<svg width="44" height="171" viewBox="0 0 44 171" fill="none" xmlns="http://www.w3.org/2000/svg">
<path d="M0.399998 170.56L0.399997 147.52L1.264 147.52L1.264 158.56L34 158.56L34 159.52L1.264 159.52L1.264 170.56L0.399998 170.56ZM17.344 123.895L10 123.895L10 122.935L34 122.935L34 123.895L26.656 123.895C28.992 124.791 30.896 126.295 32.368 128.407C33.776 130.487 34.48 132.839 34.48 135.463C34.48 138.951 33.28 141.911 30.88 144.343C28.48 146.775 25.52 147.991 22 147.991C18.48 147.991 15.52 146.775 13.12 144.343C10.72 141.911 9.52 138.951 9.52 135.463C9.52 132.807 10.24 130.455 11.68 128.407C13.088 126.327 14.976 124.823 17.344 123.895ZM22 147.031C25.264 147.031 28.016 145.911 30.256 143.671C32.496 141.431 33.616 138.695 33.616 135.463C33.616 132.231 32.496 129.495 30.256 127.255C28.016 125.015 25.264 123.895 22 123.895C18.736 123.895 15.984 125.015 13.744 127.255C11.504 129.495 10.384 132.231 10.384 135.463C10.384 138.695 11.504 141.431 13.744 143.671C15.984 145.911 18.736 147.031 22 147.031ZM9.51999 101.761C9.51999 98.2734 10.72 95.3134 13.12 92.8814C15.52 90.4494 18.48 89.2334 22 89.2334C25.52 89.2334 28.48 90.4494 30.88 92.8814C33.28 95.3134 34.48 98.2734 34.48 101.761C34.48 104.449 33.744 106.833 32.272 108.913C30.768 110.993 28.832 112.465 26.464 113.329L43.6 113.329L43.6 114.289L10 114.289L10 113.329L17.536 113.329C15.168 112.465 13.232 110.993 11.728 108.913C10.256 106.833 9.51999 104.449 9.51999 101.761ZM22 113.329C25.264 113.329 28.016 112.209 30.256 109.969C32.496 107.729 33.616 104.993 33.616 101.761C33.616 98.5294 32.496 95.7934 30.256 93.5534C28.016 91.3134 25.264 90.1934 22 90.1934C18.736 90.1934 15.984 91.3134 13.744 93.5534C11.504 95.7934 10.384 98.5294 10.384 101.761C10.384 104.993 11.504 107.729 13.744 109.969C15.984 112.209 18.736 113.329 22 113.329ZM32.464 81.5481L10 64.2681L10 63.3081L34 63.3081L34 64.2681L11.536 64.2681L34 81.5481L34 82.5081L10 82.5081L10 81.5481L32.464 81.5481ZM34.576 42.4244L43.6 42.4244L43.6 43.3844L34.576 43.3844C34.448 47.2564 33.2 50.4244 30.832 52.8884C28.464 55.3524 25.52 56.5844 22 56.5844C18.48 56.5844 15.536 55.3524 13.168 52.8884C10.8 50.4244 9.55199 47.2564 9.42399 43.3844L0.399992 43.3844L0.399992 42.4244L9.42399 42.4244C9.55199 38.5524 10.8 35.3844 13.168 32.9204C15.536 30.4564 18.48 29.2244 22 29.2244C25.52 29.2244 28.464 30.4564 30.832 32.9204C33.2 35.3844 34.448 38.5524 34.576 42.4244ZM33.712 43.3844L10.288 43.3844C10.448 47.0004 11.616 49.9444 13.792 52.2164C15.968 54.4884 18.704 55.6244 22 55.6244C25.296 55.6244 28.048 54.4884 30.256 52.2164C32.432 49.9124 33.584 46.9684 33.712 43.3844ZM10.288 42.4244L33.712 42.4244C33.584 38.8084 32.432 35.8804 30.256 33.6404C28.048 31.3364 25.296 30.1844 22 30.1844C18.672 30.1844 15.936 31.3364 13.792 33.6404C11.616 35.8804 10.448 38.8084 10.288 42.4244ZM19.696 21.5481L19.696 13.4841C19.696 11.3401 20.352 9.51612 21.664 8.01212C22.944 6.47612 24.656 5.70812 26.8 5.70812C28.944 5.70812 30.688 6.47612 32.032 8.01212C33.344 9.51612 34 11.3401 34 13.4841L34 22.5081L9.99999 22.5081L9.99999 21.5481L19.696 21.5481ZM34 1.38812L9.99999 1.38812L9.99999 0.428124L34 0.428123L34 1.38812ZM33.136 21.5481L33.136 13.4841C33.136 11.5321 32.544 9.91612 31.36 8.63612C30.144 7.32412 28.624 6.66812 26.8 6.66812C24.976 6.66812 23.488 7.30812 22.336 8.58812C21.152 9.86812 20.56 11.5001 20.56 13.4841L20.56 21.5481L33.136 21.5481Z" fill="#090413"/>
</svg>
