<svg width="158" height="46" viewBox="0 0 158 46" fill="none" xmlns="http://www.w3.org/2000/svg">
<path d="M0 0V5.45573H8.36688V29.6617H15.2715V5.45573H23.6445V0H0Z" fill="#473560"/>
<path d="M39.4066 0H32.3381L20.8223 29.6617H26.2101C26.7865 29.6617 27.2658 29.5045 27.6602 29.2021C28.0606 28.8996 28.3215 28.5549 28.4611 28.1678L30.2145 22.9963H41.5241L43.2836 28.1678C43.4353 28.6093 43.7023 28.9662 44.0906 29.2383C44.4789 29.5166 44.9703 29.6557 45.571 29.6557H50.9163L39.4066 0ZM31.8163 18.3209L34.5527 10.2461C34.7529 9.72596 34.9713 9.12111 35.2019 8.41344C35.4385 7.71181 35.663 6.94366 35.8814 6.11501C36.112 6.93156 36.3486 7.68761 36.5853 8.38924C36.8219 9.08481 37.0342 9.68967 37.2102 10.2098L39.9466 18.3269H31.8163V18.3209Z" fill="#473560"/>
<path d="M77.6743 29.6557H71.4249C70.266 29.6557 69.4348 29.2263 68.9312 28.3553L63.9924 19.7483C63.7679 19.3733 63.5191 19.1011 63.2218 18.9378C62.9306 18.7745 62.518 18.6898 61.9901 18.6898H60.2367V29.6617H53.332V14.6373C53.599 14.1353 54.0905 13.3309 54.3878 13.2341C54.8489 13.0647 59.7331 13.343 60.1214 13.597C60.4976 13.8752 57.6034 16.5365 57.1787 16.6515C56.7601 16.7664 55.3464 16.5789 55.1158 16.6031C54.8792 16.6515 54.0116 18.3209 54.1997 18.3209C54.3878 18.3209 57.7551 17.6313 58.0828 17.4015C58.4286 17.1716 62.2086 14.353 62.7546 13.8631C63.2886 13.3611 63.6708 12.6474 63.2097 12.1816C63.1672 12.1393 63.1065 12.0909 63.058 12.0546C62.5666 11.728 61.7657 11.6978 61.1589 11.4921C60.4733 11.2683 60.1214 10.8752 60.7342 9.32071C61.3531 7.7602 63.6708 6.93155 63.6708 6.93155C64.4838 8.41343 66.1463 8.07471 66.1463 8.07471C66.1463 8.07471 66.8016 8.87312 67.5296 9.10901C68.2517 9.32675 68.3366 8.83683 68.5247 8.11706C68.5914 7.86907 68.4458 7.42753 68.1971 6.90736C67.7299 5.90332 66.8986 4.5908 66.5346 3.88312C66.0007 2.81859 66.5346 1.17945 66.5346 1.17945C65.5395 1.41534 65.2422 2.51617 65.2422 2.51617C65.2422 2.44964 63.6283 2.20769 63.4949 2.20165C61.796 2.02624 59.9333 2.08672 58.3255 2.66133C56.9542 3.1694 54.054 5.31057 53.781 5.34081C53.6172 5.35291 53.4473 5.29847 53.332 5.24403V0H63.0095C65.1573 0 66.9896 0.223792 68.5126 0.659282C70.0294 1.10687 71.2671 1.71777 72.2258 2.50407C73.1783 3.29642 73.8822 4.22184 74.319 5.29846C74.7498 6.363 74.9682 7.53035 74.9682 8.79449C74.9682 9.76224 74.8408 10.6695 74.5799 11.5284C74.3251 12.3812 73.9368 13.1675 73.4271 13.8994C72.9114 14.6252 72.2925 15.2785 71.5462 15.841C70.806 16.4156 69.9505 16.8813 68.9858 17.2442C69.4469 17.4741 69.8777 17.7644 70.2782 18.1031C70.6786 18.4418 71.0305 18.8592 71.3339 19.343L77.6743 29.6557Z" fill="#473560"/>
<path d="M87.389 24.1637V0H80.4844V29.6617H98.4134V24.1637H87.389Z" fill="#473560"/>
<path d="M117.858 0H110.789L99.2676 29.6617H104.661C105.232 29.6617 105.717 29.5045 106.112 29.2021C106.506 28.8996 106.773 28.5549 106.912 28.1678L108.666 22.9963H119.975L121.735 28.1678C121.887 28.6093 122.148 28.9662 122.542 29.2383C122.93 29.5166 123.422 29.6557 124.022 29.6557H129.368L117.858 0ZM110.256 18.3209L112.998 10.2461C113.198 9.72596 113.417 9.12111 113.647 8.41344C113.878 7.71181 114.102 6.94366 114.327 6.11501C114.557 6.93156 114.788 7.68761 115.031 8.38924C115.267 9.08481 115.48 9.68967 115.656 10.2098L118.392 18.3269H110.256V18.3209Z" fill="#473560"/>
<path d="M151.666 0V15.6958C151.666 16.1736 151.678 16.6817 151.708 17.214C151.733 17.7462 151.775 18.3027 151.83 18.8713L137.705 1.05848C137.511 0.828642 137.341 0.647182 137.189 0.514115C137.038 0.381049 136.886 0.272183 136.722 0.199601C136.558 0.127019 136.37 0.0786313 136.17 0.0483889C135.97 0.0181465 135.715 0 135.418 0H131.783V29.6617H137.869V13.7663C137.869 13.3248 137.857 12.8712 137.826 12.3691C137.802 11.8792 137.766 11.3711 137.723 10.851L151.745 28.5246C152.085 28.9541 152.443 29.2505 152.807 29.4138C153.171 29.5831 153.62 29.6617 154.154 29.6617H157.745V0H151.666Z" fill="#473560"/>
<path d="M9.14327 41.5647V45.478H8.43945V35.7642H10.9513C12.092 35.7642 12.9536 36.0121 13.536 36.5142C14.1185 37.0162 14.4097 37.7239 14.4097 38.6493C14.4097 39.0727 14.3309 39.4658 14.1731 39.8227C14.0154 40.1795 13.7848 40.488 13.4875 40.7481C13.1902 41.0082 12.8262 41.2078 12.4014 41.353C11.9767 41.4981 11.4913 41.5707 10.9574 41.5707H9.14327V41.5647ZM9.14327 41.0021H10.9513C11.3821 41.0021 11.7704 40.9417 12.1102 40.8267C12.45 40.7058 12.7351 40.5425 12.9718 40.3308C13.2084 40.1191 13.3904 39.8711 13.5178 39.5868C13.6453 39.3025 13.7059 38.988 13.7059 38.6493C13.7059 37.9053 13.4754 37.3307 13.0142 36.9255C12.5531 36.5202 11.8675 36.3206 10.9513 36.3206H9.14327V41.0021Z" fill="#473560"/>
<path d="M34.6316 45.4788H34.0855C34.0188 45.4788 33.9703 45.4607 33.9278 45.4304C33.8853 45.3941 33.855 45.3518 33.8307 45.2974L32.6779 42.4727H27.8908L26.7501 45.2974C26.7319 45.3457 26.7016 45.3941 26.653 45.4304C26.6045 45.4667 26.5499 45.4849 26.4892 45.4849H25.9492L29.9355 35.771H30.6393L34.6316 45.4788ZM28.1092 41.9525H32.4777L30.4876 37.0412C30.4573 36.9626 30.4209 36.8779 30.3905 36.775C30.3602 36.6783 30.3238 36.5755 30.2934 36.4605C30.2631 36.5694 30.2267 36.6722 30.1964 36.775C30.166 36.8718 30.1296 36.9626 30.0993 37.0472L28.1092 41.9525Z" fill="#473560"/>
<path d="M49.9584 41.4747V45.4849H49.2485V41.4747L45.6445 35.771H46.2573C46.3241 35.771 46.3726 35.7891 46.4151 35.8133C46.4515 35.8436 46.494 35.8859 46.5304 35.9404L49.3213 40.4041C49.3881 40.507 49.4427 40.6098 49.4852 40.7126C49.5337 40.8094 49.5701 40.9122 49.6065 41.009C49.6429 40.9062 49.6854 40.8094 49.7279 40.7126C49.7764 40.6158 49.831 40.513 49.8917 40.4041L52.6766 35.9404C52.7069 35.892 52.7373 35.8496 52.7797 35.8194C52.8222 35.7892 52.8708 35.771 52.9375 35.771H53.5564L49.9584 41.4747Z" fill="#473560"/>
<path d="M71.7467 43.0655C71.777 42.9929 71.8013 42.9203 71.8316 42.8477C71.8619 42.7751 71.8923 42.7086 71.9287 42.6481L75.7572 35.898C75.7936 35.8375 75.83 35.8012 75.8664 35.7891C75.9028 35.777 75.9513 35.771 76.0181 35.771H76.5095V45.4849H75.8907V37.2045C75.8907 37.0835 75.8967 36.9625 75.9089 36.8295L72.0743 43.6219C72.0076 43.7429 71.9165 43.7973 71.8013 43.7973H71.6921C71.5768 43.7973 71.4858 43.7368 71.413 43.6219L67.4753 36.8234C67.4874 36.9565 67.4995 37.0835 67.4995 37.2045V45.4849H66.8867V35.771H67.366C67.4328 35.771 67.4813 35.777 67.5238 35.7891C67.5663 35.8012 67.6027 35.8375 67.6391 35.898L71.5707 42.6542C71.6375 42.7812 71.6981 42.9203 71.7467 43.0655Z" fill="#473560"/>
<path d="M96.9501 35.7653V36.346H91.8171V40.2714H96.0885V40.84H91.8171V44.8925H96.9501V45.4731H91.1133V35.7593H96.9501V35.7653Z" fill="#473560"/>
<path d="M111.451 35.7893C111.487 35.8074 111.523 35.8377 111.566 35.8982L117.876 44.3176C117.864 44.1785 117.858 44.0455 117.858 43.9184V35.7711H118.477V45.485H118.137C118.034 45.485 117.949 45.4366 117.882 45.3459L111.548 36.9143C111.56 37.0534 111.566 37.1804 111.566 37.3075V45.485H110.953V35.7711H111.299C111.366 35.7651 111.414 35.7772 111.451 35.7893Z" fill="#473560"/>
<path d="M139.439 35.7646V36.3634H136.017V45.4785H135.313V36.3634H131.873V35.7646H139.439Z" fill="#473560"/>
<path d="M157.552 36.9505C157.509 37.0291 157.448 37.0654 157.376 37.0654C157.315 37.0654 157.236 37.0231 157.145 36.9384C157.048 36.8537 156.921 36.763 156.763 36.6541C156.599 36.5513 156.399 36.4545 156.156 36.3699C155.913 36.2852 155.616 36.2368 155.264 36.2368C154.912 36.2368 154.597 36.2852 154.33 36.388C154.063 36.4908 153.832 36.6239 153.65 36.7993C153.468 36.9747 153.329 37.1743 153.238 37.4042C153.141 37.634 153.098 37.8759 153.098 38.1239C153.098 38.4505 153.171 38.7288 153.311 38.9405C153.45 39.1582 153.638 39.3397 153.869 39.4909C154.099 39.6421 154.36 39.7691 154.651 39.8719C154.943 39.9747 155.246 40.0776 155.549 40.1804C155.859 40.2832 156.156 40.3921 156.447 40.5131C156.739 40.634 156.999 40.7853 157.23 40.9667C157.461 41.1482 157.643 41.378 157.788 41.6441C157.934 41.9103 158.001 42.2429 158.001 42.6421C158.001 43.0474 157.928 43.4345 157.788 43.7913C157.649 44.1482 157.442 44.4627 157.182 44.7289C156.915 44.995 156.587 45.2067 156.205 45.3579C155.816 45.5091 155.38 45.5877 154.882 45.5877C154.239 45.5877 153.687 45.4728 153.22 45.249C152.758 45.0192 152.352 44.7107 152 44.3176L152.194 44.0151C152.249 43.9486 152.315 43.9123 152.388 43.9123C152.431 43.9123 152.485 43.9426 152.546 43.997C152.613 44.0514 152.686 44.118 152.783 44.1966C152.874 44.2752 152.983 44.366 153.116 44.4567C153.25 44.5474 153.395 44.6381 153.565 44.7168C153.735 44.7954 153.929 44.8619 154.154 44.9164C154.372 44.9708 154.627 45.001 154.906 45.001C155.295 45.001 155.64 44.9406 155.944 44.8256C156.247 44.7107 156.502 44.5474 156.714 44.3478C156.927 44.1482 157.084 43.9063 157.194 43.628C157.303 43.3498 157.357 43.0534 157.357 42.7389C157.357 42.3942 157.285 42.1159 157.145 41.8921C157.006 41.6683 156.817 41.4869 156.587 41.3357C156.356 41.1845 156.095 41.0635 155.804 40.9607C155.513 40.8578 155.21 40.7611 154.906 40.6643C154.597 40.5675 154.3 40.4586 154.008 40.3437C153.717 40.2228 153.456 40.0715 153.226 39.8901C152.995 39.7026 152.813 39.4727 152.667 39.1945C152.528 38.9163 152.455 38.5715 152.455 38.1542C152.455 37.8275 152.516 37.513 152.643 37.2106C152.764 36.9082 152.947 36.6421 153.189 36.4122C153.426 36.1824 153.723 35.9949 154.075 35.8557C154.427 35.7166 154.827 35.644 155.276 35.644C155.78 35.644 156.235 35.7227 156.635 35.886C157.036 36.0493 157.406 36.2912 157.734 36.6179L157.552 36.9505Z" fill="#473560"/>
</svg>
