<svg width="35" height="200" viewBox="0 0 35 200" fill="none" xmlns="http://www.w3.org/2000/svg">
<path d="M16.72 197.184L34 177.84L34 179.136L16.96 198.24L34 198.24L34 199.2L0.399998 199.2L0.399998 198.24L16.48 198.24L0.399997 179.616L0.399997 178.32L16.72 197.184ZM22 152.075C25.52 152.075 28.48 153.291 30.88 155.723C33.28 158.155 34.48 161.115 34.48 164.603C34.48 168.091 33.28 171.051 30.88 173.483C28.48 175.915 25.52 177.131 22 177.131C18.48 177.131 15.52 175.915 13.12 173.483C10.72 171.051 9.52 168.091 9.52 164.603C9.52 161.115 10.72 158.155 13.12 155.723C15.52 153.291 18.48 152.075 22 152.075ZM22 176.171C25.264 176.171 28.016 175.051 30.256 172.811C32.496 170.571 33.616 167.835 33.616 164.603C33.616 161.371 32.496 158.635 30.256 156.395C28.016 154.155 25.264 153.035 22 153.035C18.736 153.035 15.984 154.155 13.744 156.395C11.504 158.635 10.384 161.371 10.384 164.603C10.384 167.835 11.504 170.571 13.744 172.811C15.984 175.051 18.736 176.171 22 176.171ZM21.568 127.112L10 127.112L10 126.152L34 126.152L34 127.112L22.432 127.112L22.432 144.392L34 144.392L34 145.352L10 145.352L10 144.392L21.568 144.392L21.568 127.112ZM10 120.868L10 101.668L10.864 101.668L10.864 110.788L34 110.788L34 111.748L10.864 111.748L10.864 120.868L10 120.868ZM17.344 75.129L10 75.129L10 74.169L34 74.169L34 75.129L26.656 75.129C28.992 76.025 30.896 77.529 32.368 79.641C33.776 81.721 34.48 84.073 34.48 86.697C34.48 90.185 33.28 93.145 30.88 95.577C28.48 98.009 25.52 99.225 22 99.225C18.48 99.225 15.52 98.009 13.12 95.577C10.72 93.145 9.51999 90.185 9.51999 86.697C9.51999 84.041 10.24 81.689 11.68 79.641C13.088 77.561 14.976 76.057 17.344 75.129ZM22 98.265C25.264 98.265 28.016 97.145 30.256 94.905C32.496 92.665 33.616 89.929 33.616 86.697C33.616 83.465 32.496 80.729 30.256 78.489C28.016 76.249 25.264 75.129 22 75.129C18.736 75.129 15.984 76.249 13.744 78.489C11.504 80.729 10.384 83.465 10.384 86.697C10.384 89.929 11.504 92.665 13.744 94.905C15.984 97.145 18.736 98.265 22 98.265ZM21.52 63.5557L34 49.1557L34 50.4997L21.808 64.5637L34 64.5637L34 65.5237L10 65.5237L10 64.5637L21.232 64.5637L10 50.9797L10 49.6357L21.52 63.5557ZM10 46.7587L9.99999 27.5587L10.864 27.5587L10.864 36.6787L34 36.6787L34 37.6387L10.864 37.6387L10.864 46.7587L10 46.7587ZM19.696 21.2981L19.696 13.2341C19.696 11.0901 20.352 9.26612 21.664 7.76212C22.944 6.22612 24.656 5.45812 26.8 5.45812C28.944 5.45812 30.688 6.22612 32.032 7.76212C33.344 9.26612 34 11.0901 34 13.2341L34 22.2581L9.99999 22.2581L9.99999 21.2981L19.696 21.2981ZM34 1.13812L9.99999 1.13812L9.99999 0.178123L34 0.178122L34 1.13812ZM33.136 21.2981L33.136 13.2341C33.136 11.2821 32.544 9.66612 31.36 8.38612C30.144 7.07412 28.624 6.41812 26.8 6.41812C24.976 6.41812 23.488 7.05812 22.336 8.33812C21.152 9.61812 20.56 11.2501 20.56 13.2341L20.56 21.2981L33.136 21.2981Z" fill="#090413"/>
</svg>
