<svg width="39" height="38" viewBox="0 0 39 38" fill="none" xmlns="http://www.w3.org/2000/svg">
<path d="M37.4278 34.0121H34.4181V10.0373C34.4181 9.46578 33.9452 9.00086 33.364 9.00086H30.2452C29.664 9.00086 29.1911 9.46578 29.1911 10.0373V34.0122H26.9969V18.5798C26.9969 18.2731 26.7439 18.0244 26.432 18.0244C26.12 18.0244 25.8671 18.2731 25.8671 18.5798V34.0085H22.8998V13.2098H25.8671V16.0119C25.8671 16.3187 26.12 16.5673 26.432 16.5673C26.7439 16.5673 26.9969 16.3187 26.9969 16.0119V13.1353C26.9969 12.5639 26.524 12.0989 25.9428 12.0989H22.824C22.2428 12.0989 21.7699 12.5639 21.7699 13.1353V34.0121H19.5757V19.0606C19.5757 18.4891 19.1028 18.0242 18.5216 18.0242H15.4028C14.8216 18.0242 14.3487 18.4891 14.3487 19.0606V34.0121H12.1544V15.7044C12.1544 15.1329 11.6816 14.668 11.1003 14.668H7.98159C7.40035 14.668 6.9275 15.1329 6.9275 15.7044V34.0121H3.93129V1.09749C3.93144 0.492317 3.43072 0 2.81521 0H1.11623C0.500723 0 7.53184e-05 0.492317 7.53184e-05 1.09749V27.4848C7.53184e-05 27.7916 0.252998 28.0402 0.56497 28.0402C0.876943 28.0402 1.12987 27.7916 1.12987 27.4848V1.11082H2.80173V34.0254C2.80173 34.6306 3.30245 35.1229 3.91796 35.1229H37.4144V36.8262H1.70598C1.38829 36.8262 1.12979 36.572 1.12979 36.2597V30.0767C1.12979 29.77 0.876868 29.5213 0.564895 29.5213C0.252922 29.5213 0 29.77 0 30.0767V36.2597C0 37.1845 0.76532 37.937 1.70598 37.937H37.4278C38.0433 37.937 38.544 37.4447 38.544 36.8395V35.1096C38.5441 34.5044 38.0434 34.0121 37.4278 34.0121ZM11.0248 34.0085H8.05751V15.7788H11.0248V34.0085ZM18.4459 34.0085H15.4787V19.1351H18.4459V34.0085ZM33.2882 34.0085H30.3209V10.1117H33.2882V34.0085Z" fill="#1C1526"/>
<path d="M9.54137 11.7605C10.2976 11.7605 10.966 11.3848 11.3645 10.8135L14.7868 12.7546C14.7651 12.8765 14.7532 13.0016 14.7532 13.1295C14.7532 14.3273 15.7443 15.3017 16.9625 15.3017C18.1807 15.3017 19.1719 14.3273 19.1719 13.1295C19.1719 12.9538 19.15 12.7832 19.1098 12.6195L23.3921 8.91458C23.6905 9.06261 24.0272 9.14659 24.3837 9.14659C25.6019 9.14659 26.593 8.1721 26.593 6.97434C26.593 6.78853 26.569 6.60821 26.5242 6.43596L30.1463 4.27444C30.5516 4.72729 31.1446 5.01388 31.8049 5.01388C33.0231 5.01388 34.0142 4.03939 34.0142 2.84163C34.0142 1.64386 33.0231 0.669373 31.8049 0.669373C30.5867 0.669373 29.5955 1.64386 29.5955 2.84163C29.5955 2.9907 29.6108 3.13629 29.6401 3.27699L25.9716 5.46628C25.5696 5.0572 25.0065 4.80208 24.3837 4.80208C23.1654 4.80208 22.1743 5.77657 22.1743 6.97434C22.1743 7.41637 22.3096 7.82774 22.5411 8.17114L18.5517 11.6228C18.1496 11.2129 17.586 10.9572 16.9624 10.9572C16.28 10.9572 15.6691 11.2631 15.2635 11.7426L11.7597 9.75525C11.7546 9.75236 11.7492 9.75014 11.7441 9.7474C11.748 9.69474 11.7506 9.6418 11.7506 9.58818C11.7506 8.39042 10.7595 7.41593 9.5413 7.41593C8.32308 7.41593 7.33203 8.39049 7.33203 9.58825C7.33203 10.786 8.32308 11.7605 9.54137 11.7605ZM31.8048 1.7802C32.4 1.7802 32.8843 2.25637 32.8843 2.84163C32.8843 3.42688 32.4 3.90306 31.8048 3.90306C31.2095 3.90306 30.7252 3.42688 30.7252 2.84163C30.7252 2.25637 31.2095 1.7802 31.8048 1.7802ZM24.3837 5.91291C24.9789 5.91291 25.4632 6.38908 25.4632 6.97434C25.4632 7.55959 24.9789 8.03577 24.3837 8.03577C23.7884 8.03577 23.3041 7.55959 23.3041 6.97434C23.3041 6.38908 23.7884 5.91291 24.3837 5.91291ZM16.9625 12.0681C17.5578 12.0681 18.0421 12.5442 18.0421 13.1295C18.0421 13.7147 17.5578 14.1909 16.9625 14.1909C16.3673 14.1909 15.883 13.7147 15.883 13.1295C15.883 12.5442 16.3673 12.0681 16.9625 12.0681ZM9.54137 8.52682C10.1366 8.52682 10.6209 9.003 10.6209 9.58825C10.6209 10.1735 10.1366 10.6497 9.54137 10.6497C8.94612 10.6497 8.46182 10.1735 8.46182 9.58825C8.46182 9.003 8.94605 8.52682 9.54137 8.52682Z" fill="#1C1526"/>
</svg>
