<svg width="39" height="39" viewBox="0 0 39 39" fill="none" xmlns="http://www.w3.org/2000/svg">
<path d="M19.3392 4.69177C27.3749 4.69177 33.9125 11.1263 33.9125 19.0355C33.9125 21.5751 33.236 24.0616 31.9562 26.2263C31.7989 26.4925 31.8905 26.8338 32.161 26.9887C32.4314 27.1436 32.7783 27.0534 32.9356 26.7872C34.3159 24.4524 35.0456 21.7719 35.0456 19.0355C35.0456 10.5113 27.9997 3.57642 19.3392 3.57642C10.6786 3.57642 3.63281 10.5113 3.63281 19.0355C3.63281 22.5257 4.85327 25.9496 7.06929 28.6764C7.18117 28.8141 7.34594 28.8857 7.51214 28.8857C7.63627 28.8857 7.76122 28.8458 7.8657 28.7636C8.1101 28.5712 8.14976 28.2202 7.95424 27.9797C5.86847 25.4132 4.76602 22.3204 4.76602 19.0355C4.76602 11.1263 11.3035 4.69177 19.3392 4.69177Z" fill="#1C1526"/>
<path d="M38.68 19.0354C38.68 8.53925 30.0041 0 19.34 0C8.67588 0 0 8.53925 0 19.0354C0 29.5316 8.67588 38.0709 19.34 38.0709C19.6529 38.0709 19.9066 37.8212 19.9066 37.5132V33.9368C19.9066 33.6288 19.6529 33.3792 19.34 33.3792C15.8227 33.3792 12.424 32.1237 9.7698 29.8441C9.53409 29.6416 9.17622 29.6655 8.97036 29.8976C8.76457 30.1297 8.78897 30.482 9.02475 30.6844C11.7426 33.0187 15.1851 34.3566 18.7734 34.4844V36.9469C8.99491 36.6516 1.1332 28.7303 1.1332 19.0354C1.1332 9.15426 9.30072 1.11536 19.34 1.11536C29.3793 1.11536 37.5468 9.15426 37.5468 19.0354C37.5468 21.1747 37.1718 23.2614 36.432 25.2379C35.6953 27.2065 34.6129 29.0225 33.2153 30.6354C33.0202 30.8604 33.0377 31.1963 33.2551 31.4007L34.1272 32.2201L28.8752 33.3087L29.7365 28.0945L30.623 28.9275C30.8493 29.1401 31.208 29.132 31.4241 28.9092C31.6402 28.6865 31.6318 28.3335 31.4055 28.1208L29.7411 26.5568C29.5889 26.4139 29.369 26.3656 29.1696 26.4314C28.9703 26.4972 28.8244 26.6663 28.7906 26.8707L27.6242 33.9325C27.5942 34.114 27.6571 34.2984 27.7923 34.4254C27.9274 34.5524 28.1175 34.6057 28.3002 34.5677L35.4132 33.0933C35.619 33.0507 35.7838 32.8994 35.8414 32.7003C35.899 32.5012 35.8398 32.2871 35.6877 32.1442L34.4199 30.9529C35.74 29.3427 36.7736 27.5522 37.4954 25.6233C38.2815 23.5232 38.68 21.3067 38.68 19.0354Z" fill="#1C1526"/>
<path d="M26.8934 12.9331H11.795C10.6867 12.9331 9.78711 12.1582 9.78711 11.2036C9.78711 10.2489 10.6867 9.47406 11.795 9.47406H26.8862C27.9945 9.47406 28.8941 10.2489 28.8941 11.2036C28.8941 12.1582 27.9945 12.9331 26.8934 12.9331ZM11.795 10.4225C11.2912 10.4225 10.881 10.7758 10.881 11.2098C10.881 11.6437 11.2912 11.997 11.795 11.997H26.8862C27.39 11.997 27.8002 11.6437 27.8002 11.2098C27.8002 10.7758 27.39 10.4225 26.8862 10.4225H11.795Z" fill="#1C1526" stroke="#1C1526" stroke-width="0.5" stroke-miterlimit="10"/>
<path d="M19.3406 28.9311C18.2327 28.9311 17.3335 28.1067 17.3335 27.0911V17.9105H11.7942C10.6863 17.9105 9.78711 17.0861 9.78711 16.0705C9.78711 15.0548 10.6863 14.2304 11.7942 14.2304H20.8585C21.1607 14.2304 21.4052 14.4546 21.4052 14.7316C21.4052 15.0086 21.1607 15.2329 20.8585 15.2329H11.7942C11.2906 15.2329 10.8806 15.6088 10.8806 16.0705C10.8806 16.5321 11.2906 16.9081 11.7942 16.9081H17.8802C18.1824 16.9081 18.427 17.1323 18.427 17.4093V27.0977C18.427 27.5593 18.837 27.9353 19.3406 27.9353C19.8442 27.9353 20.2542 27.5593 20.2542 27.0977V17.4093C20.2542 17.1323 20.4988 16.9081 20.801 16.9081H26.887C27.3906 16.9081 27.8006 16.5321 27.8006 16.0705C27.8006 15.6088 27.3906 15.2329 26.887 15.2329H23.0527C22.7505 15.2329 22.5059 15.0086 22.5059 14.7316C22.5059 14.4546 22.7505 14.2304 23.0527 14.2304H26.887C27.9949 14.2304 28.8941 15.0548 28.8941 16.0705C28.8941 17.0861 27.9949 17.9105 26.887 17.9105H21.3477V27.0977C21.3477 28.1067 20.4485 28.9311 19.3406 28.9311Z" fill="#1C1526" stroke="#1C1526" stroke-width="0.5" stroke-miterlimit="10"/>
</svg>
