<svg width="39" height="39" viewBox="0 0 39 39" fill="none" xmlns="http://www.w3.org/2000/svg">
<path d="M38.6889 5.24277L36.837 3.77527L38.6889 2.30807C38.9769 2.07955 39.0754 1.72339 38.9402 1.40025C38.8043 1.07682 38.4687 0.867943 38.0849 0.867943H30.4214V0.571587C30.4214 0.25589 30.1371 0 29.7862 0C29.4354 0 29.1511 0.25589 29.1511 0.571587V8.28042L23.9347 10.8295C23.9059 10.623 23.8371 10.4201 23.7284 10.229L22.9934 8.9377C22.4888 8.05101 21.2767 7.69961 20.2921 8.15337L19.7237 8.41521C19.2463 8.63539 18.8928 9.00911 18.7282 9.46852C18.5635 9.92764 18.6075 10.4171 18.8521 10.8465L19.5871 12.1381C19.7587 12.4395 20.0123 12.6782 20.3106 12.8454C19.9204 13.3182 19.7353 13.8996 19.5448 14.5036L19.4079 14.9398C19.3124 15.2436 19.5088 15.5596 19.8464 15.6453C19.9039 15.6602 19.9621 15.667 20.0193 15.667C20.2964 15.667 20.551 15.5028 20.6303 15.2507L20.7672 14.8154C21.0456 13.932 21.2165 13.4589 21.7607 13.1929L22.7364 12.7159L22.8568 12.6606C22.8968 12.6421 22.9342 12.6213 22.9722 12.6008L29.9261 9.20251C29.8821 9.98476 29.4143 10.7239 28.6439 11.1449L24.1218 13.6175C24.1165 13.6202 24.1112 13.6229 24.1063 13.6258L22.6988 14.3953C22.3992 14.5592 22.3036 14.9109 22.4858 15.1808C22.6574 15.4352 23.0145 15.5257 23.3058 15.398L22.2379 18.3033L21.4572 18.5913L19.3345 19.3741L19.9462 17.4282C20.0414 17.1244 19.8454 16.8084 19.5078 16.7224C19.1699 16.6361 18.8191 16.8132 18.7235 17.117L17.7571 20.1927C17.7445 20.2323 17.7363 20.2757 17.7343 20.3171L17.4813 24.4982C17.4737 24.6577 17.5114 24.9591 17.4294 25.1147L14.6203 30.433H12.579C11.3831 30.433 10.4104 31.3084 10.4104 32.3844V34.0342C10.1366 33.9215 9.83276 33.8584 9.51237 33.8584H4.32834C3.13277 33.8584 2.16004 34.7335 2.16004 35.8097V37.8568H0.63515C0.284346 37.8568 0 38.1127 0 38.4284C0 38.7441 0.284346 39 0.63515 39H38.0842C38.435 39 38.7193 38.7441 38.7193 38.4284C38.7193 38.1127 38.435 37.8568 38.0842 37.8568H36.4323V23.1238C36.4323 22.0479 35.4596 21.1725 34.264 21.1725H30.4214V11.2008C31.1257 10.3418 31.3865 9.2159 31.0595 8.14593C31.0083 7.97781 30.8744 7.83975 30.6958 7.77161C30.6082 7.73799 30.5143 7.72311 30.4214 7.72639V6.68289H38.0845C38.4687 6.68289 38.8043 6.47401 38.9399 6.15088C39.0754 5.82774 38.9769 5.47128 38.6889 5.24277ZM19.9373 9.81963C19.9978 9.65092 20.1274 9.51345 20.3026 9.43282L20.871 9.17097C20.9781 9.12158 21.0925 9.09808 21.2056 9.09808C21.4734 9.09808 21.7323 9.22989 21.8626 9.4587L22.5979 10.7504C22.7695 11.0521 22.6584 11.4177 22.3532 11.6025L22.1463 11.7034L21.7095 11.9048C21.3481 12.0715 20.9031 11.9423 20.7179 11.6168L19.9826 10.3255C19.893 10.1678 19.8768 9.98804 19.9373 9.81963ZM18.661 30.6089C18.4451 30.5202 18.2104 30.4622 17.9637 30.4417L18.661 29.6082V30.6089ZM21.6768 26.0032C21.9823 25.6738 22.0666 25.2891 22.1347 24.979C22.1519 24.9052 22.4653 23.3645 22.4653 23.3645C22.4653 23.3645 22.7619 23.5309 22.793 23.5428C22.8145 23.5514 22.8297 23.5704 22.832 23.5928L23.1775 26.7536H21.0489L21.6768 26.0032ZM25.4328 22.8483L24.8965 26.7509H24.4538L24.0963 23.4809C24.0507 23.0619 23.7657 22.6962 23.3481 22.5144L22.7093 22.1499L23.1349 20.0275C23.1349 20.0275 24.9276 21.944 24.9692 21.9928C25.3402 22.427 25.4672 22.6007 25.4328 22.8483ZM18.5721 25.6146C18.7004 25.267 18.7599 24.9133 18.75 24.5535L18.9808 20.7402L21.9185 19.6568L21.3845 22.3187C21.3828 22.3258 21.3812 22.3332 21.3802 22.3404L20.9385 24.5413C20.8809 24.7692 20.8307 25.115 20.6726 25.3027L16.3807 30.433H16.0269L18.5721 25.6146ZM3.43034 35.8094C3.43034 35.364 3.83305 35.0016 4.32834 35.0016H9.51237C10.0077 35.0016 10.4107 35.364 10.4107 35.8094V37.8568H3.43034V35.8094ZM11.6807 35.8094V32.3844C11.6807 31.9386 12.0837 31.5762 12.579 31.5762H17.763C18.2583 31.5762 18.661 31.9386 18.661 32.3844V37.8568H11.681L11.6807 35.8094ZM35.162 23.1238V37.8568H28.182V34.4297C28.182 34.114 27.8977 33.8581 27.5469 33.8581C27.1957 33.8581 26.9114 34.114 26.9114 34.4297V37.8568H19.9313V28.7046C19.9313 28.2592 20.3341 27.8968 20.8293 27.8968H26.0134C26.5087 27.8968 26.9114 28.2592 26.9114 28.7046V31.57C26.9114 31.8857 27.1957 32.1416 27.5465 32.1416C27.8977 32.1416 28.1817 31.8857 28.1817 31.57V23.1238C28.1817 22.6781 28.5847 22.3157 29.08 22.3157H29.7796C29.7816 22.3157 29.7839 22.316 29.7862 22.316C29.7882 22.316 29.7905 22.3157 29.7925 22.3157H34.2637C34.759 22.3157 35.162 22.6784 35.162 23.1238ZM29.08 21.1725C27.8844 21.1725 26.9117 22.0479 26.9117 23.1238V26.9294C26.6842 26.836 26.4363 26.7768 26.1754 26.7595L26.6935 22.989C26.7953 22.2541 26.3787 21.767 25.976 21.2957C25.9334 21.2457 23.4645 18.6077 23.4645 18.6077L24.9791 14.4866L29.1511 12.2057V21.1725H29.08ZM30.4214 5.53942V2.01141H37.1409L35.6937 3.15816C35.4966 3.31437 35.3836 3.53931 35.3836 3.77557C35.3836 4.01182 35.4966 4.23676 35.6937 4.39297L37.1409 5.53972L30.4214 5.53942Z" fill="#1C1526"/>
</svg>
