<svg width="40" height="40" viewBox="0 0 40 40" fill="none" xmlns="http://www.w3.org/2000/svg">
<g clip-path="url(#clip0)">
<path d="M26.8924 21.6215L23.4875 20.1083C23.247 20.0014 23.0917 19.7622 23.0917 19.4991V18.5641C24.2354 17.6528 24.9706 16.2494 24.9706 14.6768V13.3606C25.3474 13.1524 25.5968 12.75 25.5968 12.2994V12.1717C25.5968 9.43136 23.3674 7.2019 20.6271 7.2019H19.3745C16.6342 7.2019 14.4048 9.43136 14.4048 12.1717V13.3307C14.4048 13.7268 14.5752 14.0856 14.8724 14.3152C14.9227 14.3541 14.9758 14.3883 15.031 14.4179V14.6767C15.031 16.2493 15.7661 17.6527 16.9098 18.564V19.499C16.9098 19.7622 16.7544 20.0013 16.5139 20.1082L13.1091 21.6215C11.994 22.117 11.2734 23.2258 11.2734 24.446V32.2119C11.2734 32.5355 11.5358 32.7979 11.8594 32.7979C12.183 32.7979 12.4453 32.5355 12.4453 32.2119V24.4461C12.4453 24.3782 12.4502 24.3111 12.4572 24.2445L14.0261 25.8134C14.2702 26.0576 14.4048 26.3823 14.4048 26.7276V32.212C14.4048 32.5356 14.6671 32.798 14.9907 32.798C15.3143 32.798 15.5766 32.5356 15.5766 32.212V26.7276C15.5766 26.0693 15.3203 25.4504 14.8548 24.9848L12.9844 23.1144C13.1529 22.9395 13.3551 22.7946 13.5851 22.6923L16.9325 21.2046L19.4149 23.687V32.2119C19.4149 32.5355 19.6773 32.7979 20.0009 32.7979C20.3245 32.7979 20.5868 32.5355 20.5868 32.2119V23.6871L23.0692 21.2047L26.4166 22.6923C26.6466 22.7946 26.8488 22.9395 27.0173 23.1144L25.1469 24.9848C24.6814 25.4504 24.425 26.0693 24.425 26.7276V32.212C24.425 32.5356 24.6874 32.798 25.011 32.798C25.3346 32.798 25.5969 32.5356 25.5969 32.212V26.7276C25.5969 26.3823 25.7314 26.0576 25.9756 25.8134L27.5444 24.2446C27.5514 24.3112 27.5563 24.3781 27.5563 24.446V32.2119C27.5563 32.5355 27.8186 32.7979 28.1422 32.7979C28.4658 32.7979 28.7282 32.5355 28.7282 32.2119V24.4461C28.7279 23.2258 28.0075 22.1171 26.8924 21.6215ZM20.0006 22.6158L17.8224 20.4375C17.9881 20.1588 18.0816 19.8364 18.0816 19.4991V19.2607C18.6724 19.509 19.3208 19.6465 20.0007 19.6465C20.6806 19.6465 21.3289 19.509 21.9197 19.2608V19.4991C21.9197 19.8365 22.0132 20.1588 22.1789 20.4376L20.0006 22.6158ZM20.0007 18.4746C17.9066 18.4747 16.2028 16.7709 16.2028 14.6768V14.4132C16.5684 14.2683 16.9253 14.0377 17.267 13.7225C17.5047 13.503 17.5196 13.1323 17.3001 12.8945C17.0806 12.6568 16.71 12.6418 16.4721 12.8613C16.1791 13.1318 15.8863 13.3066 15.602 13.3808C15.5952 13.3826 15.5901 13.3834 15.5865 13.3837C15.5823 13.3755 15.5766 13.3583 15.5766 13.3307V12.1718C15.5766 10.0776 17.2803 8.37386 19.3745 8.37386H20.627C22.7212 8.37386 24.4249 10.0776 24.4249 12.1718V12.2995C24.4249 12.3185 24.4135 12.335 24.3985 12.3379C20.8898 13.0309 19.1299 11.7249 18.5362 11.1311C18.3074 10.9023 17.9363 10.9023 17.7076 11.1311C17.4788 11.36 17.4788 11.731 17.7076 11.9597C19.5271 13.7793 22.1822 13.8121 23.7986 13.6179V14.6767C23.7986 16.7708 22.0949 18.4746 20.0007 18.4746Z" fill="#1C1526"/>
<path d="M10.5658 18.4345V17.1817C10.5658 15.6531 9.77142 14.3075 8.57447 13.5331C8.64838 13.296 8.68697 13.0476 8.68697 12.7979C8.68697 11.4388 7.58134 10.3332 6.22228 10.3332C4.86321 10.3332 3.75759 11.4389 3.75759 12.7979C3.75759 13.0508 3.79587 13.2967 3.86993 13.5333C2.67305 14.3076 1.87875 15.6532 1.87875 17.1817V18.4342C1.87875 19.9145 2.62352 21.2234 3.75751 22.0079V23.2964C3.75751 23.5506 3.61634 23.779 3.38907 23.8927L1.36242 24.906C0.522032 25.3263 0 26.171 0 27.1106V32.2121C0 32.5357 0.262344 32.798 0.585939 32.798C0.909533 32.798 1.17188 32.5357 1.17188 32.2121V27.364L2.12641 28.3185C2.37055 28.5628 2.50508 28.8874 2.50508 29.2328V32.2121C2.50508 32.5357 2.76743 32.798 3.09102 32.798C3.41462 32.798 3.67696 32.5357 3.67696 32.2121V29.2328C3.67696 28.5744 3.42055 27.9555 2.95508 27.4899L1.62657 26.1614C1.62016 26.155 1.61328 26.1495 1.60672 26.1435C1.69008 26.0699 1.7836 26.0058 1.88657 25.9542L3.91321 24.941C4.01704 24.889 4.11368 24.8277 4.20376 24.7595L5.63634 26.1922V32.2121C5.63634 32.5357 5.89868 32.7981 6.22228 32.7981C6.54587 32.7981 6.80822 32.5357 6.80822 32.2121V26.1921L8.24088 24.7595C8.33103 24.8277 8.42759 24.889 8.53142 24.9409L9.09025 25.2203C9.17439 25.2624 9.26377 25.2824 9.35189 25.2824C9.56682 25.2824 9.77377 25.1636 9.87642 24.9584C10.0212 24.6689 9.90385 24.317 9.61439 24.1723L9.05556 23.8928C8.82822 23.7792 8.68705 23.5507 8.68705 23.2967V22.0081C9.82103 21.2236 10.5658 19.9146 10.5658 18.4345ZM6.22228 11.5051C6.93517 11.5051 7.51509 12.0851 7.51509 12.7979C7.51509 12.8764 7.50806 12.9534 7.49462 13.0287C7.09197 12.9051 6.66486 12.8382 6.22228 12.8382C5.78032 12.8382 5.35376 12.9049 4.95173 13.0282C4.93821 12.9528 4.92946 12.8762 4.92946 12.7979C4.92946 12.085 5.50939 11.5051 6.22228 11.5051ZM6.22228 14.0102C7.97111 14.0102 9.39392 15.433 9.39392 17.1818V17.3941C6.95447 18.141 5.50064 16.2853 5.43853 16.204C5.33657 16.0681 5.18071 15.9831 5.01134 15.9711C4.84196 15.9592 4.67556 16.0212 4.55548 16.1412C3.99618 16.7005 3.44837 16.9703 3.05274 17.1005C3.0961 15.3891 4.50071 14.0102 6.22228 14.0102ZM6.22228 25.1207L4.86829 23.7667C4.90782 23.6156 4.92946 23.4581 4.92946 23.2965V22.5813C5.33798 22.7089 5.77228 22.7777 6.22228 22.7777C6.67228 22.7777 7.10658 22.7089 7.51509 22.5813V23.2965C7.51509 23.4581 7.53673 23.6157 7.57626 23.7667L6.22228 25.1207ZM6.22228 21.6059C4.47345 21.6059 3.05063 20.1831 3.05063 18.4342V18.3128C3.5179 18.2055 4.21071 17.956 4.93345 17.3748C5.18915 17.616 5.55462 17.912 6.02001 18.1658C6.57048 18.466 7.33072 18.7438 8.25931 18.7438C8.6122 18.7438 8.98978 18.7027 9.38892 18.6085C9.29807 20.2766 7.91259 21.6059 6.22228 21.6059Z" fill="#1C1526"/>
<path d="M38.6375 23.6536L35.3584 22.014C35.1311 21.9003 34.9899 21.6719 34.9899 21.4178V20.5874C35.7575 19.9059 36.2424 18.9128 36.2424 17.8081V17.1411C36.256 17.1411 36.2692 17.1415 36.2828 17.1415C36.6063 17.1415 36.8687 16.8792 36.8687 16.5556V15.3031C36.8687 13.2534 35.2011 11.5858 33.1514 11.5858H31.8989C29.8492 11.5858 28.1816 13.2534 28.1816 15.3031V16.5556C28.1816 16.8792 28.444 17.1415 28.7676 17.1415C28.7724 17.1415 28.7865 17.1414 28.8079 17.1405V17.8081C28.8079 18.9129 29.2929 19.906 30.0605 20.5875V21.4179C30.0605 21.672 29.9193 21.9004 29.692 22.014C29.4025 22.1587 29.2852 22.5107 29.4299 22.8001C29.5326 23.0054 29.7395 23.1242 29.9545 23.1242C30.0425 23.1242 30.1319 23.1043 30.216 23.0622C30.3198 23.0103 30.4165 22.949 30.5066 22.8808L31.9392 24.3135V32.2122C31.9392 32.5358 32.2016 32.7981 32.5252 32.7981C32.8488 32.7981 33.1111 32.5358 33.1111 32.2122V24.3133L34.5437 22.8807C34.6338 22.9489 34.7304 23.0102 34.8342 23.0621L38.0073 24.6487L37.0449 25.6111C36.5794 26.0766 36.323 26.6955 36.323 27.3539V32.212C36.323 32.5356 36.5853 32.798 36.9089 32.798C37.2325 32.798 37.4949 32.5356 37.4949 32.212V27.3539C37.4949 27.0086 37.6293 26.6839 37.8735 26.4397L38.7852 25.528C38.8128 25.634 38.828 25.7446 38.828 25.858V32.212C38.828 32.5356 39.0903 32.798 39.4139 32.798C39.7375 32.798 39.9999 32.5356 39.9999 32.212V25.858C39.9999 24.9185 39.4779 24.0738 38.6375 23.6536ZM29.3534 15.8491V15.303H29.3535C29.3535 13.8995 30.4954 12.7576 31.8989 12.7576H33.1514C34.5549 12.7576 35.6968 13.8995 35.6968 15.303V15.9539C33.1497 15.8164 31.6126 14.8253 31.5977 14.8155C31.4985 14.7494 31.3854 14.7171 31.2728 14.7171C31.1216 14.7171 30.9716 14.7755 30.8583 14.8887C30.2977 15.4493 29.7484 15.7192 29.3534 15.8491ZM32.5252 23.242L31.1712 21.888C31.2107 21.7369 31.2323 21.5794 31.2323 21.4178V21.293C31.6352 21.4429 32.0707 21.5253 32.5252 21.5253C32.9796 21.5253 33.4152 21.4429 33.818 21.293V21.4178C33.818 21.5794 33.8395 21.7369 33.8792 21.888L32.5252 23.242ZM32.5252 20.3535C31.1216 20.3535 29.9798 19.2117 29.9798 17.8081V16.8635C30.3902 16.6995 30.8683 16.4388 31.3548 16.0243C31.9702 16.3444 33.2575 16.8978 35.0706 17.0806V17.8081C35.0706 19.2116 33.9287 20.3535 32.5252 20.3535Z" fill="#1C1526"/>
</g>
<defs>
<clipPath id="clip0">
<rect width="40" height="40" fill="white"/>
</clipPath>
</defs>
</svg>
