<svg width="39" height="38" viewBox="0 0 39 38" fill="none" xmlns="http://www.w3.org/2000/svg">
<path d="M36.7378 11.5131C36.4222 11.5131 36.1665 11.7623 36.1665 12.0697V24.564H19.2061C18.8906 24.564 18.6348 24.8132 18.6348 25.1206C18.6348 25.428 18.8906 25.6773 19.2061 25.6773H21.8351V27.0434C21.0976 27.2783 20.5633 27.9546 20.5633 28.7505C20.5633 29.7407 21.3901 30.5464 22.4063 30.5464C23.4227 30.5464 24.2495 29.7408 24.2495 28.7505C24.2495 27.9545 23.715 27.2782 22.9776 27.0434V25.6773H36.7378C37.0534 25.6773 37.3091 25.428 37.3091 25.1206V12.0697C37.3091 11.7623 37.0534 11.5131 36.7378 11.5131ZM22.4063 29.4331C22.0201 29.4331 21.7059 29.127 21.7059 28.7505C21.7059 28.3741 22.0201 28.0679 22.4063 28.0679C22.7926 28.0679 23.1069 28.3741 23.1069 28.7505C23.1069 29.127 22.7927 29.4331 22.4063 29.4331Z" fill="#1C1526"/>
<path d="M16.2223 26.5265C16.2237 26.5246 16.2249 26.5225 16.2263 26.5206C16.2574 26.4769 16.2877 26.4327 16.3161 26.3872C16.3226 26.3768 16.3284 26.3661 16.3348 26.3556C16.3584 26.3165 16.381 26.2766 16.4025 26.2362C16.4111 26.2202 16.4196 26.2043 16.4278 26.1882C16.4522 26.1402 16.4753 26.0915 16.4966 26.042C16.5026 26.0279 16.508 26.0136 16.5138 25.9994C16.5308 25.9579 16.5467 25.9159 16.5615 25.8733C16.5664 25.8594 16.5716 25.8456 16.5763 25.8316L23.292 18.2981C23.4989 18.066 23.4735 17.7145 23.2353 17.5129C22.9971 17.3113 22.6362 17.3359 22.4294 17.5681L16.4134 24.3168C16.4025 24.3054 16.3925 24.2934 16.3811 24.2824C16.1732 24.0782 15.8955 23.9656 15.5992 23.9656H9.3082C7.45007 23.9656 5.93836 25.4386 5.93836 27.249V27.6892H5.25335V27.4779C5.25335 27.1704 4.99756 26.9212 4.68206 26.9212H0.571289C0.255785 26.9212 0 27.1704 0 27.4779C0 27.7853 0.255785 28.0345 0.571289 28.0345H4.11077V35.7276H1.65247C1.33697 35.7276 1.08118 35.9769 1.08118 36.2843C1.08118 36.5917 1.33697 36.8409 1.65247 36.8409H4.68206C4.99756 36.8409 5.25335 36.5917 5.25335 36.2843V36.0729H11.2803C11.5547 36.4841 12.0294 36.7571 12.5692 36.7571H14.7524C15.6 36.7571 16.2897 36.0851 16.2897 35.2592V35.0051C16.2897 34.8189 16.253 34.6412 16.189 34.4765C16.749 34.2268 17.1397 33.6769 17.1397 33.0386V32.7619C17.1397 32.4298 17.0336 32.1216 16.8534 31.8669C17.1713 31.5779 17.3716 31.1676 17.3716 30.7115V30.4348C17.3716 30.1545 17.2956 29.8915 17.1638 29.6629C17.5698 29.3751 17.8353 28.9099 17.8353 28.3844V28.1077C17.8352 27.2391 17.1126 26.5322 16.2223 26.5265ZM16.6926 28.1079V28.3846C16.6926 28.6429 16.4769 28.8531 16.2117 28.8531H15.7481H13.8339C13.5687 28.8531 13.353 28.6429 13.353 28.3846V28.1079C13.353 27.8495 13.5687 27.6394 13.8339 27.6394H14.0303C14.0323 27.6394 14.0342 27.6397 14.0362 27.6397H14.5542C14.5561 27.6397 14.5581 27.6394 14.5602 27.6394H14.6971C14.6994 27.6394 14.7017 27.6397 14.704 27.6397C14.7059 27.6397 14.7078 27.6394 14.7097 27.6394H16.2117C16.4769 27.6393 16.6926 27.8495 16.6926 28.1079ZM16.229 30.435V30.7116C16.229 30.97 16.0132 31.1802 15.7481 31.1802H15.5162H13.3701C13.105 31.1802 12.8893 30.97 12.8893 30.7116V30.435C12.8893 30.1766 13.105 29.9664 13.3701 29.9664H13.8338H15.748C16.0132 29.9664 16.229 30.1766 16.229 30.435ZM15.9971 33.0388C15.9971 33.2972 15.7814 33.5074 15.5162 33.5074H15.4377C15.4372 33.5074 15.4367 33.5073 15.4362 33.5073C15.4358 33.5073 15.4352 33.5074 15.4348 33.5074H14.7523H13.1384C12.8732 33.5074 12.6575 33.2972 12.6575 33.0388V32.7622C12.6575 32.5038 12.8732 32.2936 13.1384 32.2936H13.3701H15.5162C15.7814 32.2936 15.9971 32.5038 15.9971 32.7622V33.0388ZM12.3087 28.9214L11.6639 29.6445C11.9935 29.1179 12.1458 28.5272 12.2139 28.0412C12.2129 28.0634 12.2104 28.0853 12.2104 28.1079V28.3846C12.2104 28.5733 12.2462 28.7535 12.3087 28.9214ZM12.2417 27.7998C12.2469 27.7444 12.2515 27.6903 12.2548 27.6393H12.2831C12.2664 27.6917 12.2529 27.7453 12.2417 27.7998ZM5.25357 28.8026H6.50965C6.82515 28.8026 7.08094 28.5534 7.08094 28.2459V27.2562C7.08094 27.2537 7.08132 27.2514 7.08132 27.249C7.08132 26.0525 8.08031 25.0791 9.30828 25.0791H15.5597C15.5389 25.8804 14.8633 26.526 14.036 26.526H13.8338H11.6878C11.5291 26.526 11.3774 26.5911 11.2693 26.7045C11.1612 26.8178 11.1065 26.9706 11.1181 27.125C11.1192 27.1393 11.2175 28.5655 10.4669 29.3526C10.1304 29.7054 9.67032 29.8769 9.06026 29.8769C8.74476 29.8769 8.48897 30.1261 8.48897 30.4335C8.48897 30.741 8.74476 30.9902 9.06026 30.9902C9.83965 30.9902 10.4945 30.7825 11.0138 30.3735L9.11914 32.4979C8.91218 32.73 8.93755 33.0816 9.17566 33.2832C9.28383 33.3748 9.41728 33.4197 9.55012 33.4197C9.70986 33.4197 9.86868 33.3548 9.98164 33.2281L11.8168 31.1702C11.8657 31.3275 11.9393 31.4742 12.0329 31.6067C11.715 31.8957 11.5148 32.306 11.5148 32.762V33.0387C11.5148 33.3028 11.5825 33.5515 11.7004 33.7706C11.3092 34.0327 11.0495 34.4666 11.0342 34.9596H5.25357V28.8026ZM15.147 35.2593C15.147 35.4714 14.9699 35.6439 14.7523 35.6439H12.5691C12.3515 35.6439 12.1744 35.4714 12.1744 35.2593V35.0053C12.1744 34.7932 12.3515 34.6207 12.5691 34.6207H13.1383H14.7522C14.9698 34.6207 15.1469 34.7932 15.1469 35.0053V35.2593H15.147Z" fill="#1C1526"/>
<path d="M3.60352 34.7389V34.6693C3.60352 34.3619 3.34773 34.1127 3.03223 34.1127C2.71672 34.1127 2.46094 34.3619 2.46094 34.6693V34.7389C2.46094 35.0463 2.71672 35.2955 3.03223 35.2955C3.34773 35.2955 3.60352 35.0463 3.60352 34.7389Z" fill="#1C1526"/>
<path d="M38.4293 1.15497H15.692C15.3765 1.15497 15.1207 1.40419 15.1207 1.71161C15.1207 2.01902 15.3765 2.26825 15.692 2.26825H37.858V4.69609H36.7379H8.07519H6.95508V2.26825H13.4072C13.7227 2.26825 13.9785 2.01902 13.9785 1.71161C13.9785 1.40419 13.7227 1.15497 13.4072 1.15497H6.38379C6.06829 1.15497 5.8125 1.40419 5.8125 1.71161V5.25273C5.8125 5.56015 6.06829 5.80937 6.38379 5.80937H7.5039V22.5598C7.5039 22.8672 7.75968 23.1164 8.07519 23.1164C8.39069 23.1164 8.64647 22.8672 8.64647 22.5598V5.80937H36.1666V9.84264C36.1666 10.1501 36.4223 10.3993 36.7379 10.3993C37.0535 10.3993 37.3092 10.1501 37.3092 9.84264V5.80937H38.4293C38.7449 5.80937 39.0006 5.56015 39.0006 5.25273V1.71161C39.0006 1.40412 38.7449 1.15497 38.4293 1.15497Z" fill="#1C1526"/>
<path d="M11.9364 16.6614C10.9484 16.6614 10.1445 17.4447 10.1445 18.4074C10.1445 19.3701 10.9484 20.1533 11.9364 20.1533C12.9244 20.1533 13.7283 19.3701 13.7283 18.4074C13.7283 18.1544 13.6724 17.9141 13.5726 17.6969L18.0317 13.699C18.2929 13.8443 18.595 13.9278 18.9167 13.9278C19.3459 13.9278 19.7403 13.7798 20.0492 13.5337L24.1509 15.9855C24.1212 16.1111 24.1051 16.2417 24.1051 16.3761C24.1051 17.3388 24.9089 18.122 25.8969 18.122C26.885 18.122 27.6887 17.3388 27.6887 16.3761C27.6887 16.1461 27.6424 15.9265 27.5591 15.7252L31.957 12.0662C32.2261 12.2238 32.541 12.3146 32.8772 12.3146C33.8652 12.3146 34.669 11.5314 34.669 10.5687C34.669 9.60598 33.8651 8.82275 32.8772 8.82275C31.8891 8.82275 31.0853 9.60598 31.0853 10.5687C31.0853 10.7988 31.1316 11.0183 31.215 11.2196L26.8171 14.8786C26.548 14.7211 26.2332 14.6301 25.8969 14.6301C25.4605 14.6301 25.0601 14.7832 24.749 15.0369L20.6582 12.5917C20.6908 12.4602 20.7086 12.3231 20.7086 12.182C20.7086 11.2193 19.9047 10.436 18.9168 10.436C17.9288 10.436 17.1249 11.2193 17.1249 12.182C17.1249 12.4259 17.1767 12.6582 17.2699 12.8693L12.799 16.8777C12.5429 16.74 12.2489 16.6614 11.9364 16.6614ZM11.9364 19.04C11.5784 19.04 11.2871 18.7562 11.2871 18.4074C11.2871 18.0585 11.5784 17.7747 11.9364 17.7747C12.2944 17.7747 12.5857 18.0585 12.5857 18.4074C12.5857 18.7562 12.2945 19.04 11.9364 19.04ZM32.8772 9.93596C33.2352 9.93596 33.5264 10.2198 33.5264 10.5686C33.5264 10.9174 33.2352 11.2012 32.8772 11.2012C32.5192 11.2012 32.2279 10.9174 32.2279 10.5686C32.2279 10.2198 32.5192 9.93596 32.8772 9.93596ZM25.8969 15.7434C26.255 15.7434 26.5462 16.0272 26.5462 16.376C26.5462 16.7248 26.255 17.0086 25.8969 17.0086C25.5389 17.0086 25.2477 16.7248 25.2477 16.376C25.2477 16.0272 25.5389 15.7434 25.8969 15.7434ZM18.9167 11.5492C19.2747 11.5492 19.5659 11.833 19.5659 12.1818C19.5659 12.5306 19.2746 12.8145 18.9167 12.8145C18.5587 12.8145 18.2674 12.5306 18.2674 12.1818C18.2674 11.833 18.5587 11.5492 18.9167 11.5492Z" fill="#1C1526"/>
</svg>
