<svg width="39" height="39" viewBox="0 0 39 39" fill="none" xmlns="http://www.w3.org/2000/svg">
<path d="M0.0849562 3.51891L2.68398 7.99517C2.77165 8.14643 2.91838 8.25586 3.08998 8.29822L5.51473 8.89484L13.8311 17.08L14.75 16.1759L6.30347 7.86285C6.22035 7.78077 6.11611 7.72264 6.00198 7.69449L3.67211 7.11917L1.45931 3.30584L3.35645 1.43862L7.23254 3.61862L7.81734 5.91172C7.84567 6.02431 7.90501 6.12717 7.98813 6.20898L16.4347 14.5223L17.3533 13.6178L9.03694 5.43269L8.43075 3.04751C8.38772 2.87836 8.27653 2.73368 8.12284 2.64713L3.57455 0.0893817C3.3209 -0.0526714 3.00177 -0.0105816 2.7949 0.192239L0.196144 2.75025C-0.012868 2.95254 -0.0583054 3.26716 0.0849562 3.51891Z" fill="#1C1526"/>
<path d="M10.3393 27.1693C10.2217 26.9767 10.0105 26.8591 9.78225 26.8591H5.88398C5.65599 26.8591 5.44457 26.9767 5.32724 27.1693L3.37797 30.3665C3.25422 30.5691 3.25422 30.8224 3.37797 31.0252L5.32724 34.2225C5.44457 34.4148 5.65599 34.5326 5.88398 34.5326H9.78225C10.0105 34.5326 10.2217 34.4148 10.3393 34.2225L12.2883 31.0252C12.412 30.8224 12.412 30.5691 12.2883 30.3665L10.3393 27.1693ZM9.41474 33.2536H6.25175L4.69245 30.6959L6.25175 28.1379H9.41474L10.974 30.6959L9.41474 33.2536Z" fill="#1C1526"/>
<path d="M31.1867 15.3486C35.4778 15.3628 38.9685 11.9503 38.9829 7.72689C38.9851 7.08397 38.9049 6.44367 38.7443 5.82048C38.6577 5.47771 38.3051 5.26911 37.9569 5.35434C37.8425 5.38249 37.7382 5.44062 37.6548 5.52243L33.6104 9.50045L30.4014 8.44794L29.3312 5.29041L33.3757 1.30898C33.6293 1.05907 33.6291 0.654219 33.3752 0.404574C33.2915 0.322236 33.1862 0.263836 33.071 0.235951C28.9095 -0.8013 24.6819 1.67805 23.628 5.77366C23.4679 6.39501 23.388 7.03372 23.3901 7.6748C23.3917 8.1783 23.4444 8.68022 23.5481 9.1732L9.31896 23.1775C8.81808 23.0757 8.30811 23.0239 7.7968 23.0221C3.49067 23.0221 0 26.4577 0 30.6958C0 34.9338 3.49067 38.3693 7.7968 38.3693C12.1027 38.3693 15.5933 34.9338 15.5933 30.6958C15.5917 30.1923 15.5388 29.6904 15.4354 29.1974L18.8418 25.8447L20.3317 27.311C20.5856 27.5607 20.9967 27.5607 21.2506 27.311L21.5753 26.9911C21.8602 26.7126 22.3208 26.7126 22.6057 26.9911C22.8903 27.2705 22.8909 27.724 22.607 28.0042L22.6057 28.0055L22.2809 28.3251C22.0273 28.5748 22.0273 28.9796 22.2809 29.2293L30.0315 36.8575C32.07 38.8823 35.3902 38.897 37.4474 36.8907C39.5044 34.8843 39.5194 31.6163 37.4808 29.5918C37.4699 29.5807 37.4586 29.5697 37.4474 29.5586L29.6969 21.9306C29.4432 21.681 29.0319 21.681 28.7782 21.9306L28.4535 22.2502C28.1683 22.5291 27.708 22.5291 27.4228 22.2502C27.1385 21.9709 27.1377 21.5174 27.4215 21.2375L27.4228 21.2361L27.7479 20.9163C28.0015 20.6666 28.0015 20.2618 27.7479 20.0121L26.258 18.5458L29.6645 15.1931C30.1654 15.2949 30.6754 15.347 31.1867 15.3486ZM33.7395 37.0906C33.2674 37.0898 32.7994 37.0059 32.3576 36.8425L37.4319 31.848C38.1977 33.8528 37.1673 36.0889 35.1304 36.8425C34.6859 37.0069 34.2147 37.0911 33.7395 37.0906ZM26.3789 20.4706C25.6593 21.3153 25.7721 22.5743 26.6304 23.2822C27.3846 23.9044 28.4839 23.9039 29.2374 23.2804L36.5288 30.463C36.6079 30.5412 36.6819 30.6235 36.7536 30.7071L31.1984 36.1746C31.1132 36.1044 31.0295 36.0315 30.9501 35.9534L23.6531 28.771C24.3727 27.9263 24.2599 26.6673 23.4016 25.9594C22.6474 25.337 21.5478 25.3378 20.7943 25.961L19.7549 24.9379L25.3391 19.45L26.3789 20.4706ZM29.0025 14.039L14.2634 28.5427C14.1017 28.7016 14.0367 28.9323 14.0918 29.1503C14.9831 32.5957 12.8679 36.0999 9.36707 36.9769C5.86651 37.8543 2.30608 35.7724 1.41471 32.3268C0.5236 28.8815 2.63885 25.3773 6.13967 24.4999C7.19863 24.2348 8.30811 24.2348 9.36707 24.4999C9.58864 24.5533 9.82251 24.4894 9.98448 24.3313L17.3523 17.0794L24.7201 9.82743C24.8816 9.66855 24.9465 9.43784 24.8909 9.22003C24.0057 5.81496 26.0926 2.34833 29.5523 1.47681C30.206 1.3124 30.8822 1.24926 31.5558 1.29056L28.1285 4.66512C27.9545 4.83611 27.8935 5.08943 27.9713 5.31909L29.2705 9.1561C29.3355 9.34682 29.4878 9.49677 29.6819 9.56016L33.5804 10.8392C33.8135 10.9157 34.0709 10.856 34.2449 10.685L37.6722 7.31178C37.68 7.43384 37.684 7.55458 37.684 7.6748C37.7021 11.1885 34.823 14.0514 31.253 14.0696C30.701 14.0722 30.151 14.0054 29.6164 13.8707C29.3948 13.8162 29.1604 13.8799 28.999 14.0388L29.0025 14.039Z" fill="#1C1526"/>
</svg>
