<svg width="44" height="344" viewBox="0 0 44 344" fill="none" xmlns="http://www.w3.org/2000/svg">
<path d="M0.399998 343.2L0.399996 319.2L34 319.2L34 320.16L1.264 320.16L1.264 342.24L34 342.24L34 343.2L0.399998 343.2ZM9.52 297.543C9.52 294.055 10.72 291.095 13.12 288.663C15.52 286.231 18.48 285.015 22 285.015C25.52 285.015 28.48 286.231 30.88 288.663C33.28 291.095 34.48 294.055 34.48 297.543C34.48 300.231 33.744 302.615 32.272 304.695C30.768 306.775 28.832 308.247 26.464 309.111L43.6 309.111L43.6 310.071L10 310.071L10 309.111L17.536 309.111C15.168 308.247 13.232 306.775 11.728 304.695C10.256 302.615 9.52 300.231 9.52 297.543ZM22 309.111C25.264 309.111 28.016 307.991 30.256 305.751C32.496 303.511 33.616 300.775 33.616 297.543C33.616 294.311 32.496 291.575 30.256 289.335C28.016 287.095 25.264 285.975 22 285.975C18.736 285.975 15.984 287.095 13.744 289.335C11.504 291.575 10.384 294.311 10.384 297.543C10.384 300.775 11.504 303.511 13.744 305.751C15.984 307.991 18.736 309.111 22 309.111ZM9.51999 268.065C9.51999 264.577 10.768 261.745 13.264 259.569C15.696 257.361 18.64 256.257 22.096 256.257L22.576 256.257L22.576 279.249C25.84 279.089 28.496 277.953 30.544 275.841C32.592 273.697 33.616 271.041 33.616 267.873C33.616 265.761 33.168 263.873 32.272 262.209C31.376 260.513 30.176 259.265 28.672 258.465L29.152 257.649C30.784 258.609 32.08 259.985 33.04 261.777C34 263.569 34.48 265.601 34.48 267.873C34.48 271.425 33.312 274.369 30.976 276.705C28.64 279.041 25.648 280.209 22 280.209C18.448 280.209 15.488 279.073 13.12 276.801C10.72 274.497 9.51999 271.585 9.51999 268.065ZM21.712 279.249L21.712 257.121C18.352 257.313 15.632 258.449 13.552 260.529C11.44 262.577 10.384 265.089 10.384 268.065C10.384 271.201 11.456 273.841 13.6 275.985C15.744 278.129 18.448 279.217 21.712 279.249ZM32.464 248.595L9.99999 231.315L9.99999 230.355L34 230.355L34 231.315L11.536 231.315L34 248.595L34 249.555L10 249.555L10 248.595L32.464 248.595ZM9.99999 200.447L9.99999 199.151L34 199.151L34 200.111L11.2 200.111L26.512 210.287L26.512 210.575L11.2 220.751L34 220.751L34 221.711L9.99999 221.711L9.99999 220.415L24.976 210.431L9.99999 200.447ZM33.952 181.852L9.99999 172.252L9.99999 171.292L36.208 181.804C38.608 182.764 40.48 184.076 41.824 185.74C43.168 187.404 43.76 189.148 43.6 190.972L42.736 190.972C42.864 189.34 42.304 187.788 41.056 186.316C39.84 184.812 38.128 183.596 35.92 182.668L35.056 182.332L9.99999 193.852L9.99999 192.892L33.952 181.852ZM9.99999 134.824L33.136 134.824L33.136 131.464L40.432 131.464L40.432 132.424L34 132.424L34 166.024L9.99999 166.024L9.99999 165.064L33.136 165.064L33.136 150.904L9.99999 150.904L9.99999 149.944L33.136 149.944L33.136 135.784L9.99999 135.784L9.99999 134.824ZM9.51999 115.956C9.51999 112.468 10.768 109.636 13.264 107.46C15.696 105.252 18.64 104.148 22.096 104.148L22.576 104.148L22.576 127.14C25.84 126.98 28.496 125.844 30.544 123.732C32.592 121.588 33.616 118.932 33.616 115.764C33.616 113.652 33.168 111.764 32.272 110.1C31.376 108.404 30.176 107.156 28.672 106.356L29.152 105.54C30.784 106.5 32.08 107.876 33.04 109.668C34 111.46 34.48 113.492 34.48 115.764C34.48 119.316 33.312 122.26 30.976 124.596C28.64 126.932 25.648 128.1 22 128.1C18.448 128.1 15.488 126.964 13.12 124.692C10.72 122.388 9.51999 119.476 9.51999 115.956ZM21.712 127.14L21.712 105.012C18.352 105.204 15.632 106.34 13.552 108.42C11.44 110.468 10.384 112.98 10.384 115.956C10.384 119.092 11.456 121.732 13.6 123.876C15.744 126.02 18.448 127.108 21.712 127.14ZM34.48 86.8376C34.48 90.3896 33.28 93.3656 30.88 95.7656C28.48 98.1656 25.52 99.3656 22 99.3656C18.48 99.3656 15.52 98.1656 13.12 95.7656C10.72 93.3656 9.51999 90.3896 9.51999 86.8376C9.51999 84.5016 10.048 82.4056 11.104 80.5496C12.16 78.6616 13.584 77.2696 15.376 76.3736L15.856 77.1416C14.192 78.0056 12.864 79.3016 11.872 81.0296C10.88 82.7256 10.384 84.6616 10.384 86.8376C10.384 90.1656 11.504 92.9336 13.744 95.1416C15.984 97.3176 18.736 98.4056 22 98.4056C25.264 98.4056 28.032 97.3176 30.304 95.1416C32.512 92.9336 33.616 90.1656 33.616 86.8376C33.616 84.6936 33.12 82.7576 32.128 81.0296C31.136 79.3016 29.808 78.0056 28.144 77.1416L28.624 76.3736C30.416 77.2696 31.84 78.6616 32.896 80.5496C33.952 82.4056 34.48 84.5016 34.48 86.8376ZM9.99999 73.4775L9.99999 54.2775L10.864 54.2775L10.864 63.3975L34 63.3975L34 64.3575L10.864 64.3575L10.864 73.4775L9.99999 73.4775ZM21.52 35.2489C21.872 33.6489 22.592 32.4169 23.68 31.5529C24.736 30.6889 26.048 30.2569 27.616 30.2569C29.504 30.2569 31.04 30.8969 32.224 32.1769C33.408 33.4249 34 35.1689 34 37.4089L34 48.9769L9.99999 48.9769L9.99999 38.2249C9.99999 36.0809 10.56 34.4169 11.68 33.2329C12.8 32.0489 14.256 31.4569 16.048 31.4569C18.832 31.4569 20.656 32.7209 21.52 35.2489ZM10.864 38.2249L10.864 48.0169L21.232 48.0169L21.232 38.2249C21.232 36.4009 20.768 34.9769 19.84 33.9529C18.912 32.9289 17.648 32.4169 16.048 32.4169C14.448 32.4169 13.184 32.9289 12.256 33.9529C11.328 34.9769 10.864 36.4009 10.864 38.2249ZM33.136 48.0169L33.136 37.4089C33.136 35.4569 32.656 33.9369 31.696 32.8489C30.704 31.7609 29.344 31.2169 27.616 31.2169C25.888 31.2169 24.544 31.7609 23.584 32.8489C22.592 33.9369 22.096 35.4569 22.096 37.4089L22.096 48.0169L33.136 48.0169ZM17.344 1.86337L9.99998 1.86337L9.99998 0.903373L34 0.903372L34 1.86337L26.656 1.86337C28.992 2.75937 30.896 4.26337 32.368 6.37537C33.776 8.45537 34.48 10.8074 34.48 13.4314C34.48 16.9194 33.28 19.8794 30.88 22.3114C28.48 24.7434 25.52 25.9594 22 25.9594C18.48 25.9594 15.52 24.7434 13.12 22.3114C10.72 19.8794 9.51998 16.9194 9.51998 13.4314C9.51998 10.7754 10.24 8.42337 11.68 6.37537C13.088 4.29537 14.976 2.79137 17.344 1.86337ZM22 24.9994C25.264 24.9994 28.016 23.8794 30.256 21.6394C32.496 19.3994 33.616 16.6634 33.616 13.4314C33.616 10.1994 32.496 7.46337 30.256 5.22337C28.016 2.98337 25.264 1.86337 22 1.86337C18.736 1.86337 15.984 2.98337 13.744 5.22337C11.504 7.46337 10.384 10.1994 10.384 13.4314C10.384 16.6634 11.504 19.3994 13.744 21.6394C15.984 23.8794 18.736 24.9994 22 24.9994Z" fill="#090413"/>
</svg>
