<svg width="72" height="658" viewBox="0 0 72 658" fill="none" xmlns="http://www.w3.org/2000/svg">
<path d="M-5.72751e-06 620.24L-5.91284e-06 616L56 616L56 620.24L29.2 620.24L29.2 652.8L56 652.8L56 657.04L-4.11893e-06 657.04L-4.30426e-06 652.8L25.2 652.8L25.2 620.24L-5.72751e-06 620.24ZM16 567.718L16 563.638L56 563.638L56 567.718L46.96 567.718C50.0533 569.425 52.48 571.771 54.24 574.758C56 577.745 56.88 581.131 56.88 584.918C56.88 590.625 54.88 595.505 50.88 599.558C46.8267 603.611 41.8667 605.638 36 605.638C30.1333 605.638 25.2 603.611 21.2 599.558C17.1467 595.505 15.12 590.625 15.12 584.918C15.12 581.131 16 577.745 17.76 574.758C19.52 571.771 21.9467 569.425 25.04 567.718L16 567.718ZM48.08 596.678C51.3867 593.371 53.04 589.345 53.04 584.598C53.04 579.851 51.3867 575.851 48.08 572.598C44.7733 569.345 40.7467 567.718 36 567.718C31.2533 567.718 27.2267 569.345 23.92 572.598C20.6133 575.851 18.96 579.851 18.96 584.598C18.96 589.345 20.6133 593.371 23.92 596.678C27.2267 599.931 31.2533 601.558 36 601.558C40.7467 601.558 44.7733 599.931 48.08 596.678ZM16 502.396L16 498.316L56 498.316L56 551.356L16 551.356L16 547.356L52.08 547.356L52.08 526.876L16 526.876L16 522.796L52.08 522.796L52.08 502.396L16 502.396ZM16 450.765L16 446.685L56 446.685L56 450.765L46.96 450.765C50.0533 452.472 52.48 454.818 54.24 457.805C56 460.792 56.88 464.178 56.88 467.965C56.88 473.672 54.88 478.552 50.88 482.605C46.8267 486.658 41.8667 488.685 36 488.685C30.1333 488.685 25.2 486.658 21.2 482.605C17.1467 478.552 15.12 473.672 15.12 467.965C15.12 464.178 16 460.792 17.76 457.805C19.52 454.818 21.9467 452.472 25.04 450.765L16 450.765ZM48.08 479.725C51.3867 476.418 53.04 472.392 53.04 467.645C53.04 462.898 51.3867 458.898 48.08 455.645C44.7733 452.392 40.7467 450.765 36 450.765C31.2533 450.765 27.2267 452.392 23.92 455.645C20.6133 458.898 18.96 462.898 18.96 467.645C18.96 472.392 20.6133 476.418 23.92 479.725C27.2267 482.978 31.2533 484.605 36 484.605C40.7467 484.605 44.7733 482.978 48.08 479.725ZM21.6 374.994C25.4933 371.048 30.2933 369.074 36 369.074C41.7067 369.074 46.5333 371.048 50.48 374.994C54.3733 378.888 56.5067 384.034 56.88 390.434L72 390.434L72 394.434L56.88 394.434C56.5067 400.834 54.3733 406.008 50.48 409.954C46.5333 413.848 41.7067 415.794 36 415.794C30.2933 415.794 25.4933 413.848 21.6 409.954C17.6533 406.008 15.4933 400.834 15.12 394.434L-1.55978e-05 394.434L-1.57726e-05 390.434L15.12 390.434C15.4933 384.034 17.6533 378.888 21.6 374.994ZM24.32 406.994C27.4667 410.141 31.36 411.714 36 411.714C40.64 411.714 44.5333 410.141 47.68 406.994C50.8267 403.848 52.5867 399.661 52.96 394.434L19.04 394.434C19.4133 399.661 21.1733 403.848 24.32 406.994ZM52.96 390.434C52.5867 385.208 50.8267 381.021 47.68 377.874C44.5333 374.728 40.64 373.154 36 373.154C31.36 373.154 27.4667 374.728 24.32 377.874C21.1733 381.021 19.4133 385.208 19.04 390.434L52.96 390.434ZM16 329.961L16 326.441L56 326.441L56 330.521L22.96 330.521L56 355.961L56 359.481L16 359.481L16 355.481L49.04 355.481L16 329.961ZM16 281.61L56 281.61L56 285.61L19.92 285.61L19.92 305.77L39.2 305.77C45.7067 305.77 50.2133 306.97 52.72 309.37C55.2267 311.77 56.32 315.05 56 319.21L52.24 319.21C52.5067 316.01 51.6533 313.637 49.68 312.09C47.7067 310.543 44.2133 309.77 39.2 309.77L16 309.77L16 281.61ZM56.88 251.004C56.88 256.871 54.88 261.858 50.88 265.964C46.8266 270.018 41.8666 272.044 36 272.044C30.1333 272.044 25.2 270.018 21.2 265.964C17.1466 261.858 15.12 256.871 15.12 251.004C15.12 245.191 17.1466 240.258 21.2 236.204C25.2 232.098 30.1333 230.044 36 230.044C41.8666 230.044 46.8266 232.098 50.88 236.204C54.88 240.258 56.88 245.191 56.88 251.004ZM48.08 263.084C51.3866 259.778 53.04 255.751 53.04 251.004C53.04 246.258 51.3866 242.258 48.08 239.004C44.7733 235.751 40.7466 234.124 36 234.124C31.2533 234.124 27.2266 235.751 23.92 239.004C20.6133 242.258 18.96 246.258 18.96 251.004C18.96 255.751 20.6133 259.778 23.92 263.084C27.2266 266.338 31.2533 267.964 36 267.964C40.7466 267.964 44.7733 266.338 48.08 263.084ZM56.88 202.098C56.88 208.125 54.88 213.138 50.88 217.138C46.88 221.138 41.92 223.138 36 223.138C30.08 223.138 25.12 221.138 21.12 217.138C17.12 213.138 15.12 208.125 15.12 202.098C15.12 198.205 16.0533 194.685 17.92 191.538C19.7333 188.391 22.2133 186.098 25.36 184.658L27.28 187.938C24.72 189.111 22.6933 190.978 21.2 193.538C19.7066 196.045 18.96 198.898 18.96 202.098C18.96 206.898 20.6133 210.925 23.92 214.178C27.1733 217.431 31.2 219.058 36 219.058C40.8 219.058 44.8533 217.431 48.16 214.178C51.4133 210.925 53.04 206.898 53.04 202.098C53.04 198.898 52.2933 196.045 50.8 193.538C49.3066 190.978 47.28 189.031 44.72 187.698L46.72 184.338C49.8133 185.938 52.2933 188.338 54.16 191.538C55.9733 194.685 56.88 198.205 56.88 202.098ZM56.88 157.645C56.88 163.512 54.88 168.498 50.88 172.605C46.8266 176.658 41.8666 178.685 36 178.685C30.1333 178.685 25.2 176.658 21.2 172.605C17.1466 168.498 15.12 163.512 15.12 157.645C15.12 151.832 17.1466 146.898 21.2 142.845C25.2 138.738 30.1333 136.685 36 136.685C41.8666 136.685 46.8266 138.738 50.88 142.845C54.88 146.898 56.88 151.832 56.88 157.645ZM48.08 169.725C51.3866 166.418 53.04 162.392 53.04 157.645C53.04 152.898 51.3866 148.898 48.08 145.645C44.7733 142.392 40.7466 140.765 36 140.765C31.2533 140.765 27.2266 142.392 23.92 145.645C20.6133 148.898 18.96 152.898 18.96 157.645C18.96 162.392 20.6133 166.418 23.92 169.725C27.2266 172.978 31.2533 174.605 36 174.605C40.7466 174.605 44.7733 172.978 48.08 169.725ZM21.6 88.9787C25.4933 85.0321 30.2933 83.0587 36 83.0587C41.7066 83.0587 46.5333 85.0321 50.48 88.9787C54.3733 92.8721 56.5066 98.0187 56.88 104.419L72 104.419L72 108.419L56.88 108.419C56.5066 114.819 54.3733 119.992 50.48 123.939C46.5333 127.832 41.7066 129.779 36 129.779C30.2933 129.779 25.4933 127.832 21.6 123.939C17.6533 119.992 15.4933 114.819 15.12 108.419L-2.80999e-05 108.419L-2.82748e-05 104.419L15.12 104.419C15.4933 98.0187 17.6533 92.8721 21.6 88.9787ZM24.32 120.979C27.4666 124.125 31.36 125.699 36 125.699C40.64 125.699 44.5333 124.125 47.68 120.979C50.8266 117.832 52.5866 113.645 52.96 108.419L19.04 108.419C19.4133 113.645 21.1733 117.832 24.32 120.979ZM52.96 104.419C52.5866 99.1921 50.8266 95.0054 47.68 91.8587C44.5333 88.7121 40.64 87.1387 36 87.1387C31.36 87.1387 27.4666 88.7121 24.32 91.8587C21.1733 95.0054 19.4133 99.1921 19.04 104.419L52.96 104.419ZM16 43.945L16 40.425L56 40.425L56 44.505L22.96 44.505L56 69.945L56 73.465L16 73.465L16 69.465L49.04 69.465L16 43.945ZM16 0.394373L56 0.394371L56 4.39437L40.4 4.39437L40.4 13.0344L56 25.5944L56 30.7944L40.32 17.9944C39.9466 21.2477 38.6666 23.9677 36.48 26.1544C34.24 28.341 31.4933 29.4344 28.24 29.4344C24.6666 29.4344 21.7333 28.1544 19.44 25.5944C17.1466 23.0344 16 19.9144 16 16.2344L16 0.394373ZM36.56 16.2344L36.56 4.39437L19.92 4.39437L19.92 16.2344C19.92 18.7944 20.6933 20.9544 22.24 22.7144C23.7866 24.4744 25.7866 25.3544 28.24 25.3544C30.7466 25.3544 32.7733 24.501 34.32 22.7944C35.8133 21.0344 36.56 18.8477 36.56 16.2344Z" fill="white"/>
</svg>
