<svg width="17" height="17" viewBox="0 0 17 17" fill="none" xmlns="http://www.w3.org/2000/svg">
<path d="M16.5539 13.1149L13.1131 10.8201C12.6764 10.5312 12.0911 10.6263 11.7683 11.0385L10.766 12.3273C10.6372 12.4972 10.403 12.5464 10.2167 12.4429L10.026 12.3378C9.39399 11.9933 8.60759 11.5644 7.02314 9.97923C5.43869 8.3941 5.00894 7.60705 4.66444 6.97614L4.5599 6.78547C4.45496 6.59915 4.50329 6.36399 4.6732 6.23414L5.96103 5.23208C6.37308 4.9092 6.46826 4.32401 6.17974 3.88719L3.88508 0.446085C3.58938 0.00126359 2.99613 -0.132269 2.53836 0.14293L1.09951 1.00731C0.647421 1.27311 0.315738 1.70359 0.174014 2.20854C-0.34411 4.09652 0.0456698 7.35489 4.8452 12.1553C8.66313 15.9732 11.5054 17 13.459 17C13.9086 17.0019 14.3564 16.9434 14.7905 16.826C15.2955 16.6844 15.726 16.3527 15.9916 15.9004L16.8568 14.4624C17.1324 14.0045 16.9989 13.4108 16.5539 13.1149ZM16.3686 14.1717L15.5054 15.6106C15.3147 15.937 15.0051 16.177 14.6414 16.2804C12.8986 16.7589 9.85378 16.3625 5.24604 11.7545C0.638292 7.14639 0.242004 4.10163 0.72049 2.35844C0.823936 1.99429 1.06422 1.68423 1.39103 1.4932L2.82987 0.629949C3.0285 0.510427 3.28598 0.568362 3.41429 0.761391L4.66079 2.63294L5.707 4.2022C5.83228 4.39167 5.79112 4.64562 5.61238 4.78583L4.32426 5.78789C3.93225 6.08766 3.82031 6.63006 4.06166 7.06053L4.16394 7.24639C4.526 7.91047 4.97614 8.7366 6.61951 10.3798C8.26289 12.023 9.0887 12.4732 9.75243 12.8353L9.93854 12.9378C10.369 13.1792 10.9113 13.0672 11.2111 12.6752L12.2131 11.387C12.3533 11.2083 12.6071 11.1672 12.7967 11.2924L16.2372 13.5872C16.4304 13.7154 16.4883 13.9731 16.3686 14.1717Z" fill="#1C1526"/>
<path d="M9.63289 2.83435C12.2914 2.8373 14.4459 4.99192 14.4489 7.65065C14.4489 7.80713 14.5757 7.93395 14.7321 7.93395C14.8886 7.93395 15.0154 7.80713 15.0154 7.65065C15.0121 4.6791 12.6042 2.271 9.63289 2.26775C9.47643 2.26775 9.34961 2.39457 9.34961 2.55105C9.34961 2.70752 9.47643 2.83435 9.63289 2.83435Z" fill="#1C1526"/>
<path d="M9.63289 4.53421C11.3531 4.53623 12.7471 5.93032 12.7491 7.65064C12.7491 7.80712 12.876 7.93394 13.0324 7.93394C13.1889 7.93394 13.3157 7.80712 13.3157 7.65064C13.3133 5.61751 11.6659 3.96993 9.63289 3.96761C9.47643 3.96761 9.34961 4.09443 9.34961 4.25091C9.34961 4.40738 9.47643 4.53421 9.63289 4.53421Z" fill="#1C1526"/>
<path d="M9.63289 6.2341C10.4148 6.23503 11.0484 6.86869 11.0494 7.65067C11.0494 7.80714 11.1762 7.93397 11.3326 7.93397C11.4891 7.93397 11.6159 7.80714 11.6159 7.65067C11.6147 6.55591 10.7276 5.66872 9.63289 5.6675C9.47643 5.6675 9.34961 5.79432 9.34961 5.9508C9.34961 6.10727 9.47643 6.2341 9.63289 6.2341Z" fill="#1C1526"/>
</svg>
