<svg width="59" height="499" viewBox="0 0 59 499" fill="none" xmlns="http://www.w3.org/2000/svg">
<path d="M23.17 465.4L-5.11254e-06 465.4L-5.17374e-06 464L49 464L49 465.4L24.43 465.4L24.43 497.6L49 497.6L49 499L-3.64384e-06 499L-3.70504e-06 497.6L23.17 497.6L23.17 465.4ZM24.71 418.346L14 418.346L14 416.946L49 416.946L49 418.346L38.29 418.346C41.6967 419.653 44.4733 421.846 46.62 424.926C48.6733 427.96 49.7 431.39 49.7 435.216C49.7 440.303 47.95 444.62 44.45 448.166C40.95 451.713 36.6333 453.486 31.5 453.486C26.3667 453.486 22.05 451.713 18.55 448.166C15.05 444.62 13.3 440.303 13.3 435.216C13.3 431.343 14.35 427.913 16.45 424.926C18.5033 421.893 21.2567 419.7 24.71 418.346ZM31.5 452.086C36.26 452.086 40.2733 450.453 43.54 447.186C46.8067 443.92 48.44 439.93 48.44 435.216C48.44 430.503 46.8067 426.513 43.54 423.246C40.2733 419.98 36.26 418.346 31.5 418.346C26.74 418.346 22.7267 419.98 19.46 423.246C16.1933 426.513 14.56 430.503 14.56 435.216C14.56 439.93 16.1933 443.92 19.46 447.186C22.7267 450.453 26.74 452.086 31.5 452.086ZM47.74 360.239L14 360.239L14 358.839L49 358.839L49 404.339L14 404.339L14 402.939L47.74 402.939L47.74 382.289L14 382.289L14 380.889L47.74 380.889L47.74 360.239ZM24.71 313.893L14 313.893L14 312.493L49 312.493L49 313.893L38.29 313.893C41.6967 315.2 44.4733 317.393 46.62 320.473C48.6733 323.507 49.7 326.937 49.7 330.763C49.7 335.85 47.95 340.167 44.45 343.713C40.95 347.26 36.6333 349.033 31.5 349.033C26.3667 349.033 22.05 347.26 18.55 343.713C15.05 340.167 13.3 335.85 13.3 330.763C13.3 326.89 14.35 323.46 16.45 320.473C18.5033 317.44 21.2567 315.247 24.71 313.893ZM31.5 347.633C36.26 347.633 40.2733 346 43.54 342.733C46.8067 339.467 48.44 335.477 48.44 330.763C48.44 326.05 46.8067 322.06 43.54 318.793C40.2733 315.527 36.26 313.893 31.5 313.893C26.74 313.893 22.7267 315.527 19.46 318.793C16.1933 322.06 14.56 326.05 14.56 330.763C14.56 335.477 16.1933 339.467 19.46 342.733C22.7267 346 26.74 347.633 31.5 347.633ZM30.8 276.029L49 255.029L49 256.989L31.22 277.499L49 277.499L49 278.899L14 278.899L14 277.499L30.38 277.499L14 257.689L14 255.729L30.8 276.029ZM31.5 216.38C36.6333 216.38 40.95 218.153 44.45 221.7C47.95 225.247 49.7 229.563 49.7 234.65C49.7 239.737 47.95 244.053 44.45 247.6C40.95 251.147 36.6333 252.92 31.5 252.92C26.3667 252.92 22.05 251.147 18.55 247.6C15.05 244.053 13.3 239.737 13.3 234.65C13.3 229.563 15.05 225.247 18.55 221.7C22.05 218.153 26.3667 216.38 31.5 216.38ZM31.5 251.52C36.26 251.52 40.2733 249.887 43.54 246.62C46.8067 243.353 48.44 239.363 48.44 234.65C48.44 229.937 46.8067 225.947 43.54 222.68C40.2733 219.413 36.26 217.78 31.5 217.78C26.74 217.78 22.7267 219.413 19.46 222.68C16.1933 225.947 14.56 229.937 14.56 234.65C14.56 239.363 16.1933 243.353 19.46 246.62C22.7267 249.887 26.74 251.52 31.5 251.52ZM14 175.565L14 173.675L49 173.675L49 175.075L15.75 175.075L38.08 189.915L38.08 190.335L15.75 205.175L49 205.175L49 206.575L14 206.575L14 204.685L35.84 190.125L14 175.565ZM24.71 128.708L14 128.708L14 127.308L49 127.308L49 128.708L38.29 128.708C41.6966 130.014 44.4733 132.208 46.62 135.288C48.6733 138.321 49.7 141.751 49.7 145.578C49.7 150.664 47.95 154.981 44.45 158.528C40.95 162.074 36.6333 163.848 31.5 163.848C26.3667 163.848 22.05 162.074 18.55 158.528C15.05 154.981 13.3 150.664 13.3 145.578C13.3 141.704 14.35 138.274 16.45 135.288C18.5033 132.254 21.2566 130.061 24.71 128.708ZM31.5 162.448C36.26 162.448 40.2733 160.814 43.54 157.548C46.8067 154.281 48.44 150.291 48.44 145.578C48.44 140.864 46.8067 136.874 43.54 133.608C40.2733 130.341 36.26 128.708 31.5 128.708C26.74 128.708 22.7266 130.341 19.46 133.608C16.1933 136.874 14.56 140.864 14.56 145.578C14.56 150.291 16.1933 154.281 19.46 157.548C22.7266 160.814 26.74 162.448 31.5 162.448ZM30.87 88.1L14 88.1L14 86.7L49 86.7L49 88.1L32.13 88.1L32.13 113.3L49 113.3L49 114.7L14 114.7L14 113.3L30.87 113.3L30.87 88.1ZM14 46.7945L47.74 46.7945L47.74 41.8945L58.38 41.8945L58.38 43.2945L49 43.2945L49 76.8945L58.38 76.8945L58.38 78.2945L47.74 78.2945L47.74 74.5845C43.7266 71.7845 38.4766 70.3845 31.99 70.3845L14 70.3845L14 46.7945ZM47.74 72.9745L47.74 48.1945L15.26 48.1945L15.26 68.9845L31.99 68.9845C38.43 68.9845 43.68 70.3145 47.74 72.9745ZM24.71 1.83265L14 1.83265L14 0.432653L49 0.432652L49 1.83265L38.29 1.83265C41.6966 3.13932 44.4733 5.33265 46.62 8.41265C48.6733 11.446 49.7 14.876 49.7 18.7027C49.7 23.7893 47.95 28.106 44.45 31.6527C40.95 35.1993 36.6333 36.9727 31.5 36.9727C26.3666 36.9727 22.05 35.1993 18.55 31.6527C15.05 28.106 13.3 23.7893 13.3 18.7027C13.3 14.8293 14.35 11.3993 16.45 8.41265C18.5033 5.37932 21.2566 3.18599 24.71 1.83265ZM31.5 35.5727C36.26 35.5727 40.2733 33.9393 43.54 30.6727C46.8066 27.406 48.44 23.416 48.44 18.7027C48.44 13.9893 46.8066 9.99932 43.54 6.73265C40.2733 3.46598 36.26 1.83265 31.5 1.83265C26.74 1.83265 22.7266 3.46599 19.46 6.73265C16.1933 9.99932 14.56 13.9893 14.56 18.7027C14.56 23.416 16.1933 27.406 19.46 30.6727C22.7266 33.9393 26.74 35.5727 31.5 35.5727Z" fill="#1C1526"/>
</svg>
