<svg width="68" height="47" viewBox="0 0 68 47" fill="none" xmlns="http://www.w3.org/2000/svg">
<path d="M5.69515 21.739C6.24841 21.739 6.69694 21.2917 6.69694 20.7399V4.19633C6.69694 2.98433 7.68564 1.99825 8.90088 1.99825H38.064C38.6173 1.99825 39.0657 1.55091 39.0657 0.999127C39.0657 0.447343 38.6173 0 38.064 0H8.90088C6.58087 0 4.69336 1.88249 4.69336 4.19633V20.7399C4.69336 21.2917 5.14189 21.739 5.69515 21.739Z" fill="white"/>
<path d="M52.2127 1.99825H59.8672C61.0825 1.99825 62.0712 2.98433 62.0712 4.19633V20.7399C62.0712 21.2917 62.5196 21.739 63.0729 21.739C63.6263 21.739 64.0747 21.2917 64.0747 20.7399V4.19633C64.0747 1.88249 62.1872 0 59.8672 0H52.2127C51.6593 0 51.2109 0.447343 51.2109 0.999127C51.2109 1.55091 51.6593 1.99825 52.2127 1.99825Z" fill="white"/>
<path d="M65.2244 38.1928H62.8375V24.6877C62.8375 24.1357 62.3977 23.6881 61.8551 23.6881C61.3124 23.6881 60.8727 24.1357 60.8727 24.6877V38.1929H59.1634V7.4477C59.1634 5.72062 57.7825 4.31555 56.0852 4.31555H54.3596C53.8169 4.31555 53.3772 4.76312 53.3772 5.31518C53.3772 5.86723 53.8169 6.3148 54.3596 6.3148H56.0852C56.6992 6.3148 57.1986 6.82301 57.1986 7.4477V38.1928H10.2454V7.4477C10.2454 6.82301 10.7449 6.3148 11.3588 6.3148H20.0726C20.6152 6.3148 21.055 5.86723 21.055 5.31518C21.055 4.76312 20.6152 4.31555 20.0726 4.31555H11.3588C9.66151 4.31555 8.28064 5.72062 8.28064 7.4477V38.1928H6.57153V24.6877C6.57153 24.1357 6.13167 23.6881 5.58912 23.6881C5.04658 23.6881 4.60672 24.1357 4.60672 24.6877V38.1929H2.21975C1.1002 38.1929 0.189453 39.1196 0.189453 40.2588V42.8016C0.189453 45.1166 2.04043 47 4.31554 47H63.1286C65.4038 47 67.2547 45.1166 67.2547 42.8016V40.2588C67.2547 39.1195 66.344 38.1928 65.2244 38.1928ZM39.5074 40.192V40.9295C39.5074 41.1131 39.3605 41.2627 39.1799 41.2627H28.2644C28.0839 41.2627 27.9369 41.1131 27.9369 40.9295V40.192H39.5074ZM65.2899 42.8014C65.2899 44.014 64.3205 45.0006 63.1286 45.0006H4.31554C3.12382 45.0006 2.15426 44.014 2.15426 42.8014V40.2587C2.15426 40.2219 2.1836 40.192 2.21975 40.192H25.972V40.9295C25.972 42.2155 27.0004 43.2619 28.2643 43.2619H39.1798C40.4437 43.2619 41.4721 42.2155 41.4721 40.9295V40.192H65.2244C65.2605 40.192 65.2899 40.2219 65.2899 40.2587V42.8014Z" fill="white"/>
<path d="M21.1698 23.8916C20.6165 23.8916 20.168 24.3389 20.168 24.8907C20.168 25.4425 20.6165 25.8898 21.1698 25.8898H22.1846L22.3889 28.3773C22.5809 30.7173 24.5756 32.5504 26.9298 32.5504H28.3754C30.7297 32.5504 32.7241 30.7173 32.9162 28.3773L33.1205 25.8898H35.2266L35.4307 28.3774C35.6228 30.7175 37.6174 32.5505 39.9715 32.5505H41.4172C43.7712 32.5505 45.7659 30.7175 45.9579 28.3774L46.162 25.89H47.5985C48.1519 25.89 48.6003 25.4426 48.6003 24.8909C48.6003 24.3391 48.1519 23.8917 47.5985 23.8917H21.1698V23.8916ZM30.9192 28.2143C30.8115 29.5253 29.6942 30.5523 28.3753 30.5523H26.9297C25.6108 30.5523 24.4933 29.5253 24.3858 28.2143L24.1949 25.8898H31.1101L30.9192 28.2143ZM43.961 28.2142C43.8532 29.5252 42.7359 30.5522 41.417 30.5522H39.9714C38.6525 30.5522 37.5351 29.5252 37.4274 28.2142L37.2366 25.8897H44.1518L43.961 28.2142Z" fill="white"/>
<path d="M36.3528 4.59696C35.7859 5.10491 34.8367 5.95537 34.3837 5.95537C33.9306 5.95537 32.9816 5.10505 32.4145 4.59709C31.9804 4.20823 31.5705 3.84082 31.1789 3.59237C30.3693 3.07895 28.9694 2.92495 26.8999 3.12105C25.1314 3.28877 23.7104 4.62573 23.4442 6.37234L21.8705 16.7049H19.2189C18.1656 16.7049 17.3086 17.5596 17.3086 18.6102V20.0101C17.3086 21.0607 18.1656 21.9154 19.2189 21.9154H49.5482C50.6016 21.9154 51.4586 21.0607 51.4586 20.0101V18.6102C51.4586 17.5596 50.6016 16.7049 49.5482 16.7049H46.8967L46.4569 13.8174C46.4567 13.8162 46.4564 13.815 46.4563 13.8138L45.3228 6.37247C45.0569 4.62573 43.6359 3.28877 41.8673 3.12105C39.7975 2.92482 38.3976 3.07895 37.5883 3.5925C37.197 3.84068 36.7869 4.20796 36.3528 4.59696ZM24.1621 14.9664H44.6054L44.8701 16.7048H23.8972L24.1621 14.9664ZM49.455 19.9172H19.3123V18.703H49.4551V19.9172H49.455ZM38.6637 5.27836C38.7676 5.21242 39.4018 4.8943 41.6776 5.11024C42.5298 5.19097 43.2143 5.83334 43.3419 6.67234L44.3009 12.9682H24.4663L25.4252 6.67234C25.5531 5.83334 26.2375 5.19097 27.0896 5.11011C29.3654 4.89416 29.9996 5.21228 30.1036 5.27836C30.355 5.43782 30.7049 5.75141 31.0755 6.08339C32.0538 6.95996 33.1625 7.95349 34.3835 7.95349C35.6046 7.95349 36.7134 6.95996 37.6918 6.08326C38.0624 5.75141 38.4123 5.43782 38.6637 5.27836Z" fill="white"/>
</svg>
