<svg width="62" height="62" viewBox="0 0 62 62" fill="none" xmlns="http://www.w3.org/2000/svg">
<path d="M61.3775 26.7361C60.6305 26.0514 59.1988 25.3044 57.7048 24.6819C56.1486 24.0594 54.4679 23.3747 53.5341 23.0634L52.6627 21.0092C53.0361 20.0755 53.7831 18.457 54.3434 16.8385C55.2149 14.5976 55.7751 12.3566 55.0904 11.6719L50.5462 7.2522C49.8614 6.56746 47.6205 7.18995 45.3795 8.06144C43.8233 8.68393 42.1426 9.43092 41.2088 9.80441L39.0301 8.93293C38.6566 7.99919 37.9719 6.38072 37.2249 4.82449C36.2289 2.64578 35.0462 0.653809 34.0502 0.653809H27.6386C26.8293 0.653809 25.9578 1.83654 25.2108 3.39276C24.3394 5.19798 23.3434 7.68794 22.9076 8.93293L20.7289 9.80441C19.7952 9.43092 18.1145 8.74618 16.496 8.12369C14.9398 7.56345 13.3835 7.1277 12.3876 7.06545C12.0141 6.94096 11.5783 7.06545 11.2671 7.3767L6.72289 11.8586C6.3494 12.1699 6.2249 12.6679 6.16265 13.1036C6.16265 13.4771 6.28715 13.7883 6.4739 14.0996C6.78514 15.1578 7.34538 16.714 7.96787 18.0835C8.46586 19.2663 8.96386 20.3867 9.33735 21.0715L8.46586 23.1257C7.22088 23.6237 4.60643 24.6819 2.8012 25.5534C1.18273 26.3004 0 27.1719 0 27.9811V34.2683C0 35.2642 2.05422 36.3847 4.29518 37.3185C5.91365 38.0032 7.59438 38.6257 8.52811 38.9369L9.3996 40.9912C9.0261 41.9249 8.27912 43.5434 7.71888 45.1618C7.15863 46.6558 6.72289 48.1498 6.66064 49.208C6.59839 49.5193 6.59839 49.8305 6.78514 50.1418C6.84739 50.204 6.90964 50.3285 6.97189 50.3908L11.5161 54.8104C12.0763 55.3707 13.508 55.1217 15.1888 54.5614C17.1185 53.8767 19.6707 52.7562 20.8534 52.2582L23.0321 53.1297C23.5301 54.3747 24.5884 56.8646 25.5221 58.6699C26.3313 60.2261 27.2028 61.3466 28.012 61.3466H34.4237C35.2952 61.3466 36.1044 60.1638 36.8514 58.6076C37.7229 56.8024 38.7189 54.2502 39.1546 53.0675L41.3333 52.196C42.2671 52.5695 43.9478 53.3165 45.5663 53.8767C47.1225 54.4369 48.6165 54.8727 49.6747 54.9349C50.0482 55.0594 50.4839 54.9349 50.7952 54.6237L55.2771 50.204L55.3394 50.1418C55.6506 49.8305 55.8373 49.3948 55.8373 48.8968C55.8373 48.5855 55.7751 48.212 55.5884 47.9008C55.3394 46.8426 54.7169 45.3486 54.0944 43.9169C53.5964 42.7341 53.0984 41.6136 52.7249 40.9289L53.5964 38.8747C54.5301 38.5012 56.2108 37.8165 57.7671 37.1317C60.008 36.1357 62 34.953 62 34.0193V27.7321C62 27.2964 61.751 26.9229 61.3775 26.7361ZM59.6968 34.0193C59.6968 34.206 58.3273 34.3305 56.8333 35.0153C55.0281 35.8245 52.9739 36.6337 52.2892 36.8827C51.9779 37.0072 51.7289 37.2562 51.6667 37.5052L50.4217 40.4932C50.2972 40.8667 50.2972 41.2402 50.4839 41.5514C50.7952 42.1739 51.3554 43.4189 51.9779 44.8506C52.6004 46.2823 53.2229 47.7763 53.4096 48.71V48.7723L49.1767 52.943C49.0522 53.0675 47.9317 52.2582 46.3755 51.698C44.4458 50.951 42.4538 50.1418 41.8313 49.8928C41.5201 49.7683 41.2088 49.7683 40.9598 49.8928L37.8474 51.1377C37.5361 51.2622 37.2872 51.5735 37.1627 51.8847C36.7892 52.8185 35.7309 55.6819 34.7349 57.6739C34.3614 58.4831 34.6727 59.1056 34.4237 59.1056H27.9498C27.7008 59.1056 27.9498 58.4831 27.5763 57.6739C26.5181 55.6197 25.3353 52.694 24.9618 51.8225C24.8373 51.5112 24.5884 51.2622 24.3394 51.2L21.2269 49.955C20.9157 49.8305 20.5422 49.8305 20.2309 50.0173C19.2972 50.453 16.4337 51.698 14.3173 52.445C13.4458 52.7562 13.259 53.441 13.0723 53.2542L8.52811 48.8345C8.40361 48.71 9.2751 47.6518 9.83534 46.1578C10.5201 44.2904 11.3916 42.3606 11.7028 41.6759C11.8273 41.3646 11.8273 40.9912 11.7028 40.7422L10.4578 37.8165C10.3333 37.5052 10.0843 37.2562 9.77309 37.194C9.08835 36.945 7.03414 36.198 5.22892 35.3887C3.73494 34.7663 2.36546 34.704 2.36546 34.455V28.0434C2.36546 27.7944 2.98795 28.1056 3.79719 27.6699C5.91365 26.6739 8.90161 25.4289 9.77309 25.1177C10.0843 24.9932 10.3333 24.7442 10.4578 24.4329L11.7028 21.5072C11.8273 21.196 11.8273 20.8225 11.7028 20.5735C11.4538 20.0132 10.8313 18.6438 10.1466 17.212C9.5241 15.7803 8.90161 14.2241 8.71486 13.3526C8.71486 13.2904 8.71486 13.2904 8.71486 13.2281L12.9478 9.05742C13.0723 8.93292 14.1928 9.74216 15.749 10.3024C17.6787 10.9871 19.6707 11.8586 20.2932 12.1076C20.6044 12.2321 20.9157 12.2321 21.1647 12.1076L24.2149 10.8626C24.5884 10.7381 24.7751 10.4269 24.8996 10.1157C25.2731 9.18192 26.3313 6.31847 27.2651 4.3265C27.6386 3.51726 27.3273 2.89477 27.5763 2.89477H33.988C34.1747 2.89477 34.3614 4.202 35.0462 5.69598C35.9177 7.5012 36.7269 9.49317 36.9759 10.1779C37.1004 10.4892 37.3494 10.7381 37.5984 10.8004L40.7108 12.0454C41.0221 12.1699 41.3956 12.1699 41.6446 11.9831C42.3293 11.6719 44.259 10.8004 46.1265 10.1157C47.6205 9.49317 48.6787 8.62168 48.8032 8.80843L53.3474 13.2281C53.5341 13.3526 52.6004 14.4108 52.0402 15.9048C51.3554 17.7723 50.4839 19.7642 50.1727 20.3867C50.0482 20.698 50.0482 21.0715 50.1727 21.3205L51.4177 24.3084C51.5422 24.6197 51.7912 24.8687 52.1024 24.9309C52.7871 25.1799 54.7791 25.9269 56.6466 26.7361C58.3273 27.4831 59.6968 27.5454 59.6968 27.7321V34.0193Z" fill="white"/>
<path d="M31.3743 13.2904C26.5189 13.2904 22.1614 15.2824 18.9245 18.4571C15.7498 21.6318 13.7578 26.0515 13.7578 30.9069C13.7578 35.7623 15.7498 40.1197 18.9245 43.3567C22.0992 46.5314 26.5189 48.5233 31.3743 48.5233C36.2297 48.5233 40.5871 46.5314 43.8241 43.3567C46.9988 40.182 48.9907 35.7623 48.9907 30.9069C48.9907 26.0515 46.9988 21.694 43.8241 18.4571C40.5871 15.2201 36.2297 13.2904 31.3743 13.2904ZM44.6333 32.0274H46.563C46.2518 35.7623 44.6333 39.1237 42.1434 41.6137C39.6534 44.1037 36.292 45.7221 32.557 46.0334V44.1037C32.557 43.4812 32.059 42.9209 31.3743 42.9209C30.7518 42.9209 30.1915 43.4189 30.1915 44.1037V46.0334C26.4566 45.7221 23.0952 44.1037 20.6052 41.6137C18.1152 39.1237 16.4968 35.7623 16.1855 32.0274H18.1152C18.7377 32.0274 19.298 31.5294 19.298 30.8446C19.298 30.2221 18.8 29.6619 18.1152 29.6619H16.1855C16.4968 25.927 18.1152 22.5655 20.6052 20.0755C23.0952 17.5856 26.4566 15.9671 30.1915 15.6559V17.5856C30.1915 18.2081 30.6895 18.7683 31.3743 18.7683C31.9968 18.7683 32.557 18.2703 32.557 17.5856V15.6559C36.292 15.9671 39.6534 17.5856 42.1434 20.0755C44.6333 22.5655 46.2518 25.927 46.563 29.6619H44.6333C44.0108 29.6619 43.4506 30.1599 43.4506 30.8446C43.4506 31.4671 43.9486 32.0274 44.6333 32.0274Z" fill="white"/>
<path d="M33.5517 28.6658C33.2405 28.3545 32.9292 28.1678 32.5557 27.9811V21.0091C32.5557 20.3867 32.0577 19.8264 31.373 19.8264C30.7505 19.8264 30.1903 20.3244 30.1903 21.0091V27.9811C29.8168 28.1678 29.4433 28.3545 29.1943 28.6658C28.883 28.977 28.6963 29.2883 28.5096 29.6618H23.3429C22.7204 29.6618 22.1602 30.1598 22.1602 30.8445C22.1602 31.467 22.6581 32.0272 23.3429 32.0272H28.5096C28.6341 32.4007 28.883 32.712 29.132 32.961L29.1943 33.0232C29.7545 33.5835 30.5015 33.957 31.373 33.957C32.1822 33.957 32.9292 33.6457 33.4895 33.1477L33.5517 33.0855C34.112 32.5252 34.4855 31.7782 34.4855 30.9068C34.4855 30.0975 34.1742 29.3505 33.6762 28.7903C33.5517 28.728 33.5517 28.6658 33.5517 28.6658ZM31.871 31.3425C31.6843 31.467 31.5598 31.5293 31.373 31.5293C31.1863 31.5293 30.9995 31.467 30.875 31.3425L30.8128 31.2803C30.6883 31.1558 30.626 30.969 30.626 30.7823C30.626 30.5955 30.6883 30.4088 30.8128 30.2843C30.9373 30.1598 31.124 30.0975 31.3108 30.0975C31.4975 30.0975 31.6843 30.1598 31.8088 30.2843L31.871 30.3465C31.9955 30.471 32.0577 30.6578 32.0577 30.8445C32.0577 31.0313 31.9955 31.218 31.871 31.3425Z" fill="white"/>
</svg>
