<svg width="69" height="69" viewBox="0 0 69 69" fill="none" xmlns="http://www.w3.org/2000/svg">
<g clip-path="url(#clip0)">
<path d="M67.2985 52.716H66.1485V17.066C66.1449 13.8919 63.5726 11.3196 60.3985 11.316V10.166C60.3949 6.99187 57.8226 4.41961 54.6485 4.41602H20.1484C16.9743 4.41961 14.402 6.99187 14.3984 10.166V11.316C11.2243 11.3196 8.65203 13.8919 8.64844 17.066V30.866H10.9484V17.066C10.9506 15.1615 12.4939 13.6182 14.3984 13.616V29.716H16.6984V10.166C16.7006 8.26147 18.2439 6.71817 20.1484 6.71602H54.6485C56.553 6.71817 58.0963 8.26147 58.0985 10.166V49.266H60.3985V13.616C62.303 13.6182 63.8463 15.1615 63.8485 17.066V52.716H47.7484C46.403 52.7129 45.1121 53.2483 44.1638 54.2028C43.6421 54.7261 42.9328 55.0189 42.1939 55.016H36.2484V57.316H42.1939C43.5432 57.3206 44.8381 56.7853 45.7901 55.8292C46.3081 55.3075 47.0133 55.0147 47.7484 55.016H66.1485V57.316C66.147 58.5856 65.1181 59.6146 63.8485 59.616H36.2484V61.916H63.8485C66.3878 61.9131 68.4456 59.8554 68.4485 57.316V53.866C68.4485 53.2309 67.9335 52.716 67.2985 52.716Z" fill="white"/>
<path d="M14.3984 41.2161H16.6984V49.2661H14.3984V41.2161Z" fill="white"/>
<path d="M20.6992 9.20007H55.1992V11.5001H20.6992V9.20007Z" fill="white"/>
<path d="M33.8778 47.6579C33.6346 47.5953 33.3891 47.5244 33.1487 47.4471L32.4455 49.6369C32.7285 49.7278 33.0173 49.8113 33.2971 49.8835C39.5183 51.5234 46.1183 49.2986 50.0772 44.2269C55.5519 37.2223 54.3115 27.1057 47.3068 21.6311C45.586 20.2862 43.6094 19.3054 41.4974 18.7487C34.7382 16.9677 27.6021 19.7539 23.8378 25.6436C22.8577 27.1641 22.1444 28.8408 21.7285 30.6013L23.9667 31.1307C24.2752 29.8262 24.7749 28.5744 25.4498 27.4161H29.0069C28.4651 29.676 28.1932 31.9922 28.1973 34.3161C28.1973 35.1124 28.2293 35.917 28.2926 36.7078L30.5852 36.5244C30.5572 36.1739 30.5362 35.82 30.5216 35.4661H36.2473V42.3661H32.7973V44.6661H36.2473V48.0646C35.4472 47.9983 34.6542 47.8624 33.8778 47.6579ZM46.5139 44.6661C45.7142 45.3707 44.8359 45.9808 43.8963 46.4841C44.1854 45.8957 44.4542 45.291 44.6965 44.6661H46.5139ZM48.6001 42.3661H45.4746C46.1186 40.119 46.4877 37.802 46.5741 35.4661H51.1507C50.9527 37.9571 50.07 40.3451 48.6001 42.3661ZM34.2937 20.8714C34.9367 20.7234 35.5896 20.6217 36.2473 20.5675V25.1161H32.1178C32.6741 23.6208 33.4043 22.1961 34.2937 20.8714ZM38.5473 20.5677C39.2049 20.622 39.8578 20.7235 40.5008 20.8716C41.3902 22.1961 42.1206 23.6208 42.6769 25.1161H38.5473V20.5677ZM43.4148 27.4161C43.9088 29.2959 44.1966 31.2239 44.273 33.1661H38.5473V27.4161H43.4148ZM51.1485 33.1661H46.5758C46.505 31.228 46.2412 29.3018 45.7882 27.4161H49.3443C50.3658 29.1747 50.9819 31.1391 51.1478 33.1661H51.1485ZM47.6778 25.1161H45.1208C44.7748 24.0953 44.3624 23.0983 43.8861 22.1314C45.3167 22.8937 46.6004 23.9043 47.6771 25.1161H47.6778ZM30.9084 22.1315C30.4323 23.0984 30.0199 24.0953 29.6739 25.1161H27.117C28.1938 23.9043 29.4776 22.8937 30.9084 22.1315ZM30.5216 33.1661C30.5977 31.2239 30.8854 29.2959 31.3796 27.4161H36.2473V33.1661H30.5216ZM38.5473 35.4661H44.2733C44.181 37.8093 43.7762 40.1299 43.0696 42.3661H38.5473V35.4661ZM42.206 44.6661C41.7349 45.7475 41.1651 46.7832 40.5037 47.76C39.8597 47.9086 39.2059 48.0104 38.5473 48.0648V44.6661H42.206Z" fill="white"/>
<path d="M30.4973 51.5888V45.816C30.4973 38.1945 24.3187 32.016 16.6973 32.016C9.07578 32.016 2.89727 38.1945 2.89727 45.816V51.5888C0.935797 51.804 -0.550003 53.4596 -0.552734 55.4329V69.5491C-0.550147 71.6837 1.1796 73.4134 3.31414 73.416H30.0804C32.2149 73.4134 33.9447 71.6837 33.9473 69.5491V55.4329C33.9445 53.4596 32.4587 51.804 30.4973 51.5888ZM16.6973 34.316C23.0456 34.3232 28.1901 39.4677 28.1973 45.816V51.566H25.8973V45.816C25.8973 40.735 21.7783 36.616 16.6973 36.616C11.6163 36.616 7.49727 40.735 7.49727 45.816V51.566H5.19727V45.816C5.20445 39.4677 10.349 34.3232 16.6973 34.316ZM23.5973 51.566H9.79727V45.816C9.79727 42.0052 12.8865 38.916 16.6973 38.916C20.5081 38.916 23.5973 42.0052 23.5973 45.816V51.566ZM31.6473 69.5491C31.6463 70.4141 30.9453 71.115 30.0804 71.116H3.31414C2.4492 71.115 1.74827 70.4141 1.74727 69.5491V55.4329C1.74827 54.5679 2.4492 53.867 3.31414 53.866H30.0804C30.9453 53.867 31.6463 54.5679 31.6473 55.4329V69.5491Z" fill="white"/>
<path d="M16.5521 69C17.5668 69 18.3921 68.184 18.3921 67.181V63.9615C19.3136 63.3585 19.872 62.3448 19.872 61.234C19.872 59.4288 18.3862 57.96 16.56 57.96C14.7337 57.96 13.248 59.4288 13.248 61.234C13.248 62.3367 13.8003 63.3466 14.7121 63.951V67.181C14.7121 68.184 15.5375 69 16.5521 69ZM14.4747 61.234C14.4747 60.0972 15.41 59.1726 16.56 59.1726C17.7098 59.1726 18.6454 60.0972 18.6454 61.234C18.6454 62.0146 18.2069 62.7192 17.5014 63.0733C17.2953 63.1766 17.1655 63.3855 17.1655 63.614V67.181C17.1655 67.5155 16.8904 67.7873 16.5521 67.7873C16.2138 67.7873 15.9388 67.5155 15.9388 67.181V63.606C15.9388 63.3791 15.8106 63.1711 15.6065 63.0671C14.9084 62.7114 14.4747 62.009 14.4747 61.234Z" fill="white"/>
</g>
<defs>
<clipPath id="clip0">
<rect width="69" height="69" fill="white"/>
</clipPath>
</defs>
</svg>
