<svg width="49" height="59" viewBox="0 0 49 59" fill="none" xmlns="http://www.w3.org/2000/svg">
<path d="M43.0359 33.2379L33.8041 29.7497C33.1519 29.5033 32.7308 28.9521 32.7308 28.3456V26.1904C35.8319 24.0897 37.8252 20.8549 37.8252 17.2299V14.196C38.8468 13.7161 39.5232 12.7887 39.5232 11.75V11.4555C39.5232 5.13899 33.4784 0 26.0484 0H22.6524C15.2225 0 9.17764 5.13899 9.17764 11.4555V14.1271C9.17764 15.0401 9.63984 15.8672 10.4454 16.3964C10.582 16.4861 10.7259 16.565 10.8756 16.6332V17.2297C10.8756 20.8547 12.8687 24.0895 15.9696 26.19V28.3454C15.9696 28.9519 15.5483 29.5032 14.8963 29.7495L5.66453 33.2377C2.64116 34.3799 0.6875 36.9357 0.6875 39.7484V57.6492C0.6875 58.3951 1.39881 58.9998 2.27618 58.9998C3.15356 58.9998 3.86487 58.3951 3.86487 57.6492V39.7485C3.86487 39.5921 3.878 39.4374 3.89706 39.2839L8.15092 42.9003C8.81288 43.4633 9.17764 44.2115 9.17764 45.0077V57.6494C9.17764 58.3953 9.88894 59 10.7663 59C11.6437 59 12.355 58.3953 12.355 57.6494V45.0077C12.355 43.4901 11.66 42.0635 10.3977 40.9904L5.32646 36.6789C5.78336 36.2758 6.33156 35.9418 6.95517 35.7061L16.0312 32.2768L22.7619 37.9989V57.6492C22.7619 58.3951 23.4732 58.9998 24.3506 58.9998C25.228 58.9998 25.9393 58.3951 25.9393 57.6492V37.9991L32.67 32.277L41.7459 35.7061C42.3695 35.9418 42.9177 36.2758 43.3746 36.6791L38.3033 40.9904C37.041 42.0635 36.346 43.4901 36.346 45.0077V57.6494C36.346 58.3953 37.0573 59 37.9347 59C38.8121 59 39.5234 58.3953 39.5234 57.6494V45.0077C39.5234 44.2117 39.888 43.4633 40.5501 42.9003L44.8038 39.2841C44.8228 39.4375 44.836 39.5919 44.836 39.7484V57.6492C44.836 58.3951 45.5473 58.9998 46.4247 58.9998C47.302 58.9998 48.0133 58.3951 48.0133 57.6492V39.7485C48.0127 36.9358 46.0593 34.3801 43.0359 33.2379ZM24.35 35.5296L18.4441 30.5085C18.8932 29.8662 19.1467 29.123 19.1467 28.3456V27.796C20.7488 28.3683 22.5067 28.6854 24.3502 28.6854C26.1937 28.6854 27.9514 28.3685 29.5533 27.7962V28.3456C29.5533 29.1232 29.8068 29.8662 30.2561 30.5087L24.35 35.5296ZM24.3502 25.984C18.6723 25.9842 14.0528 22.057 14.0528 17.2299V16.6224C15.0441 16.2884 16.0117 15.7568 16.938 15.0302C17.5826 14.5243 17.6231 13.6698 17.0279 13.1217C16.4328 12.5737 15.4279 12.5393 14.7829 13.0451C13.9884 13.6687 13.1945 14.0716 12.4238 14.2427C12.4052 14.2468 12.3914 14.2486 12.3817 14.2493C12.3703 14.2304 12.3548 14.1908 12.3548 14.1272V11.4557C12.3548 6.62863 16.9743 2.70141 22.6522 2.70141H26.0482C31.7264 2.70141 36.3456 6.62863 36.3456 11.4557V11.7502C36.3456 11.7939 36.3147 11.8319 36.274 11.8388C26.7608 13.4361 21.9892 10.4257 20.3793 9.05703C19.7589 8.52957 18.753 8.52957 18.1327 9.05703C17.5123 9.58449 17.5123 10.4397 18.1327 10.967C23.0661 15.1611 30.265 15.2367 34.6476 14.789V17.2297C34.6476 22.0568 30.0282 25.984 24.3502 25.984Z" fill="white"/>
</svg>
