<svg width="11" height="147" viewBox="0 0 11 147" fill="none" xmlns="http://www.w3.org/2000/svg">
<path d="M4.218 142.965L4.218 145.765L0.899999 145.765L0.899999 140.865L0.199999 140.865L0.199999 146.507L10 146.507L10 142.965C10 141.369 8.698 140.067 7.102 140.067C5.52 140.067 4.218 141.369 4.218 142.965ZM9.3 142.965L9.3 145.765L4.918 145.765L4.918 142.965C4.918 141.789 5.898 140.823 7.102 140.823C8.32 140.823 9.3 141.789 9.3 142.965ZM10.154 135.251C10.154 133.221 8.572 131.583 6.5 131.583C4.428 131.583 2.846 133.221 2.846 135.251C2.846 137.295 4.428 138.933 6.5 138.933C8.572 138.933 10.154 137.295 10.154 135.251ZM9.482 135.251C9.482 136.917 8.166 138.219 6.5 138.219C4.834 138.219 3.518 136.917 3.518 135.251C3.518 133.585 4.834 132.297 6.5 132.297C8.166 132.297 9.482 133.585 9.482 135.251ZM3 124.488L3 129.416L7.06 129.416C8.866 129.416 9.44 129.99 9.342 131.068L10 131.068C10.098 129.752 9.51 128.716 7.06 128.716L3.686 128.716L3.686 125.188L10 125.188L10 124.488L3 124.488ZM5.716 119.566L5.716 121.638L3 121.638L3 122.338L10 122.338L10 119.566C10 118.32 9.146 117.256 7.858 117.256C6.57 117.256 5.716 118.32 5.716 119.566ZM9.314 119.566L9.314 121.638L6.402 121.638L6.402 119.566C6.402 118.684 6.962 117.97 7.858 117.97C8.74 117.97 9.314 118.684 9.314 119.566ZM3 107.153L9.314 107.153L9.314 110.723L3 110.723L3 111.437L9.314 111.437L9.314 115.021L3 115.021L3 115.721L10 115.721L10 106.439L3 106.439L3 107.153ZM2.846 101.127C2.846 103.269 4.442 104.753 6.5 104.753C8.614 104.753 10.154 103.227 10.154 101.071C10.154 99.6855 9.524 98.5935 8.572 98.0195L8.208 98.6355C8.95 99.0415 9.482 99.9095 9.482 101.057C9.482 102.653 8.446 103.857 6.864 104.025L6.864 97.6835C6.752 97.6835 6.64 97.6695 6.528 97.6695C4.61 97.6695 2.846 98.9995 2.846 101.127ZM3.518 101.127C3.518 99.7555 4.47 98.5515 6.178 98.3975L6.178 104.025C4.624 103.885 3.518 102.723 3.518 101.127ZM6.388 87.9889C6.094 87.3869 5.52 87.0929 4.834 87.0929C3.812 87.0929 3 87.8069 3 89.1789L3 92.3009L10 92.3009L10 88.9129C10 87.4569 9.132 86.7569 8.068 86.7569C7.27 86.7569 6.654 87.1769 6.388 87.9889ZM3.686 89.1789C3.686 88.2969 4.134 87.8069 4.876 87.8069C5.66 87.8069 6.108 88.2829 6.108 89.1789L6.108 91.6009L3.686 91.6009L3.686 89.1789ZM9.314 88.9129L9.314 91.6009L6.794 91.6009L6.794 88.9129C6.794 87.9889 7.27 87.4569 8.04 87.4569C8.838 87.4569 9.314 87.9749 9.314 88.9129ZM10.154 81.9992C10.154 79.9692 8.572 78.3312 6.5 78.3312C4.428 78.3312 2.846 79.9692 2.846 81.9992C2.846 84.0432 4.428 85.6812 6.5 85.6812C8.572 85.6812 10.154 84.0432 10.154 81.9992ZM9.482 81.9992C9.482 83.6652 8.166 84.9672 6.5 84.9672C4.834 84.9672 3.518 83.6652 3.518 81.9992C3.518 80.3332 4.834 79.0452 6.5 79.0452C8.166 79.0452 9.482 80.3332 9.482 81.9992ZM6.388 73.56C6.08 72.916 5.478 72.58 4.792 72.58C3.756 72.58 2.846 73.448 2.846 74.932C2.846 76.206 3.462 77.032 4.316 77.41L4.652 76.822C3.924 76.528 3.518 75.856 3.518 74.932C3.518 73.938 4.078 73.28 4.82 73.28C5.604 73.28 6.108 73.84 6.108 74.75L6.108 75.45L6.794 75.45L6.794 74.484C6.794 73.532 7.326 72.944 8.082 72.944C8.894 72.944 9.482 73.616 9.482 74.806C9.482 76.024 8.936 76.668 8.152 76.934L8.502 77.536C9.426 77.186 10.154 76.374 10.154 74.806C10.154 73.084 9.188 72.23 8.124 72.23C7.326 72.23 6.668 72.706 6.388 73.56ZM3 63.9237L3 64.7637L7.018 67.3117L3 69.8597L3 70.6857L10 70.6857L10 69.9857L4.036 69.9857L8.194 67.3537L8.194 67.2557L4.064 64.6377L10 64.6377L10 63.9237L3 63.9237ZM10.154 58.5656C10.154 56.5356 8.572 54.8976 6.5 54.8976C4.428 54.8976 2.846 56.5356 2.846 58.5656C2.846 60.6096 4.428 62.2476 6.5 62.2476C8.572 62.2476 10.154 60.6096 10.154 58.5656ZM9.482 58.5656C9.482 60.2316 8.166 61.5336 6.5 61.5336C4.834 61.5336 3.518 60.2316 3.518 58.5656C3.518 56.8996 4.834 55.6116 6.5 55.6116C8.166 55.6116 9.482 56.8996 9.482 58.5656ZM10 45.8916L6.36 49.1956L3 46.0316L3 46.8996L6.164 49.8536L3 49.8536L3 50.5676L6.164 50.5676L3 53.5216L3 54.3896L6.36 51.2116L10 54.5296L10 53.6616L6.556 50.5676L10 50.5676L10 49.8536L6.556 49.8536L10 46.7596L10 45.8916ZM2.99999 39.4224L6.16399 39.4224L6.16399 43.7904L3 43.7904L3 44.4904L10 44.4904L10 43.7904L6.83599 43.7904L6.83599 39.4224L9.99999 39.4224L9.99999 38.7084L2.99999 38.7084L2.99999 39.4224ZM10.154 33.341C10.154 31.311 8.57199 29.673 6.49999 29.673C4.42799 29.673 2.84599 31.311 2.84599 33.341C2.84599 35.385 4.42799 37.023 6.49999 37.023C8.57199 37.023 10.154 35.385 10.154 33.341ZM9.48199 33.341C9.48199 35.007 8.16599 36.309 6.49999 36.309C4.83399 36.309 3.51799 35.007 3.51799 33.341C3.51799 31.675 4.83399 30.387 6.49999 30.387C8.16599 30.387 9.48199 31.675 9.48199 33.341ZM10.154 24.7824C10.154 23.4104 9.45399 22.2344 8.37599 21.6744L8.02599 22.2624C8.89399 22.7244 9.48199 23.6484 9.48199 24.7824C9.48199 26.4764 8.16599 27.7504 6.49999 27.7504C4.83399 27.7504 3.51799 26.4764 3.51799 24.7824C3.51799 23.6624 4.09199 22.7104 4.97399 22.3044L4.63799 21.7304C3.54599 22.2344 2.84599 23.4104 2.84599 24.7824C2.84599 26.8964 4.42799 28.4644 6.49999 28.4644C8.57199 28.4644 10.154 26.8964 10.154 24.7824ZM2.99999 15.3775L2.99999 21.1735L3.68599 21.1735L3.68599 18.6255L9.99999 18.6255L9.99999 17.9255L3.68599 17.9255L3.68599 15.3775L2.99999 15.3775ZM2.84599 11.2349C2.84599 13.3769 4.44199 14.8609 6.49999 14.8609C8.61399 14.8609 10.154 13.3349 10.154 11.1789C10.154 9.79289 9.52399 8.70089 8.57199 8.12689L8.20799 8.74289C8.94999 9.14889 9.48199 10.0169 9.48199 11.1649C9.48199 12.7609 8.44599 13.9649 6.86399 14.1329L6.86399 7.79089C6.75199 7.79089 6.63999 7.77689 6.52799 7.77689C4.60999 7.77689 2.84599 9.10689 2.84599 11.2349ZM3.51799 11.2349C3.51799 9.86289 4.46999 8.65889 6.17799 8.50489L6.17799 14.1329C4.62399 13.9929 3.51799 12.8309 3.51799 11.2349ZM1.78199 5.03475L1.78199 1.49275L1.16599 1.49275L1.16599 5.03475L1.78199 5.03475ZM2.99999 0.974749L8.78199 5.44075L2.99999 5.44075L2.99999 6.14075L9.99999 6.14075L9.99999 5.52475L4.21799 1.07275L9.99999 1.07275L9.99999 0.358749L2.99999 0.358749L2.99999 0.974749Z" fill="white"/>
</svg>
