<svg width="71" height="61" viewBox="0 0 71 61" fill="none" xmlns="http://www.w3.org/2000/svg">
<path d="M70.7747 40.6889V24.0985C70.7747 21.6594 68.7904 19.6751 66.3513 19.6751C65.7626 19.6751 65.2009 19.7916 64.6867 20.0013C64.6252 18.4091 63.9202 16.9798 62.8242 15.9664C64.1921 14.9034 65.0749 13.244 65.0749 11.3813C65.0749 8.17999 62.4704 5.57557 59.2691 5.57557C56.0678 5.57557 53.4634 8.17999 53.4634 11.3813C53.4634 12.9559 54.0943 14.3851 55.1156 15.432C54.018 16.0595 53.0739 16.9562 52.3994 18.0589L50.8186 20.6428H46.7224V18.7535C46.7224 14.532 43.9106 10.9562 40.062 9.79675C40.7722 8.83355 41.1931 7.64448 41.1931 6.35865V5.80573C41.1931 2.60442 38.5887 0 35.3874 0C32.1861 0 29.5817 2.60442 29.5817 5.80573V6.35865C29.5817 7.64448 30.0025 8.83355 30.7128 9.79675C26.8642 10.9562 24.0524 14.532 24.0524 18.7535V20.6427H19.9561L18.3753 18.0586C17.7007 16.9559 16.7567 16.0592 15.659 15.4319C16.6801 14.3851 17.3112 12.9558 17.3112 11.3813C17.3112 8.17999 14.7067 5.57557 11.5054 5.57557C8.30412 5.57557 5.6997 8.17999 5.6997 11.3813C5.6997 13.2441 6.58245 14.9034 7.95053 15.9666C6.85449 16.98 6.14951 18.4094 6.088 20.0014C5.57377 19.7917 5.01214 19.6752 4.42341 19.6752C1.98431 19.6752 0 21.6595 0 24.0986V26.8632C0 27.6266 0.619001 28.2456 1.38232 28.2456C2.14563 28.2456 2.76463 27.6266 2.76463 26.8632V24.0986C2.76463 23.1839 3.50873 22.4398 4.42341 22.4398C5.33809 22.4398 6.08219 23.1839 6.08219 24.0986V35.5718V35.8052C6.08219 39.7449 9.28736 42.9501 13.2271 42.9501H13.8211V45.732H7.8076C5.02693 45.7317 2.76477 43.4696 2.76477 40.6889V37.9215C2.76477 37.1582 2.14577 36.5392 1.38245 36.5392C0.619139 36.5392 0.000138232 37.1582 0.000138232 37.9215V40.6889C0.000138232 44.522 2.77776 47.7166 6.42528 48.3714V57.2742H1.98141C1.2181 57.2742 0.599096 57.8932 0.599096 58.6565C0.599096 59.4198 1.2181 60.0388 1.98141 60.0388H18.521C21.1125 60.0388 23.2208 57.9305 23.2208 55.3389V39.44C23.2208 37.8861 22.705 36.4507 21.8359 35.2952H27.9229V55.6153C27.9229 58.0544 29.9072 60.0387 32.3463 60.0387C33.5236 60.0387 34.594 59.5755 35.3874 58.8229C36.1809 59.5756 37.2512 60.0387 38.4285 60.0387C40.8676 60.0387 42.8519 58.0544 42.8519 55.6153V50.3625C42.8519 49.5992 42.2329 48.9801 41.4696 48.9801C40.7063 48.9801 40.0873 49.5992 40.0873 50.3625V55.6153C40.0873 56.5299 39.3432 57.274 38.4285 57.274C37.5138 57.274 36.7697 56.5299 36.7697 55.6153V35.2952H40.0873V39.3026C40.0873 40.0659 40.7063 40.6849 41.4696 40.6849C42.2329 40.6849 42.8519 40.0659 42.8519 39.3026V35.2952H48.939C48.0699 36.4507 47.554 37.8861 47.554 39.44V55.3388C47.554 57.9304 49.6623 60.0387 52.2539 60.0387H68.7934C69.5567 60.0387 70.1758 59.4197 70.1758 58.6564C70.1758 57.893 69.5567 57.274 68.7934 57.274H64.3496V48.3712C67.9971 47.7166 70.7747 44.522 70.7747 40.6889ZM66.3513 22.4397C67.266 22.4397 68.0101 23.1838 68.0101 24.0985V40.6889C68.0101 43.4696 65.7479 45.7317 62.9673 45.7317H56.9538V42.9498H57.5477C61.4875 42.9498 64.6927 39.7446 64.6927 35.8049V35.5715V24.0983C64.6925 23.1838 65.4366 22.4397 66.3513 22.4397ZM59.2694 8.34007C60.9462 8.34007 62.3104 9.70427 62.3104 11.3812C62.3104 13.058 60.9462 14.4223 59.2693 14.4223C57.5924 14.4223 56.2282 13.058 56.2282 11.3812C56.2282 9.70427 57.5924 8.34007 59.2694 8.34007ZM51.5936 23.4073C52.0749 23.4073 52.5216 23.1568 52.7727 22.7463L54.7577 19.5013C55.6309 18.0736 57.2132 17.1869 58.8867 17.1869C60.5635 17.1869 61.9277 18.5511 61.9277 20.2278V24.0985V31.4247H55.8456V28.2315L57.9352 24.9298C58.3434 24.2848 58.1514 23.4308 57.5063 23.0225C56.8609 22.6143 56.0071 22.8063 55.599 23.4514L53.702 26.4485H45.2247C44.3863 26.4485 43.7041 25.7664 43.7041 24.928C43.7041 24.0896 44.3863 23.4074 45.2247 23.4074H51.5936V23.4073ZM36.6047 12.1644L35.405 15.4338L34.2053 12.1644H36.6047ZM32.3463 5.80573C32.3463 4.12884 33.7105 2.76463 35.3874 2.76463C37.0643 2.76463 38.4285 4.12884 38.4285 5.80573V6.35865C38.4285 8.03554 37.0643 9.39975 35.3874 9.39975C33.7105 9.39975 32.3463 8.03554 32.3463 6.35865V5.80573ZM31.3782 12.4851L34.1073 19.9229C34.3069 20.4673 34.8251 20.8292 35.405 20.8292C35.9849 20.8292 36.503 20.4674 36.7027 19.9229L39.4279 12.4957C42.0554 13.3626 43.9578 15.8394 43.9578 18.7535V20.834C42.2116 21.3756 40.9398 23.0059 40.9398 24.9279C40.9398 25.4632 41.0393 25.9755 41.2194 26.4484H29.5554C29.7355 25.9755 29.8351 25.4632 29.8351 24.9279C29.8351 23.0059 28.5632 21.3756 26.8171 20.834V18.7535C26.8171 15.8278 28.7345 13.3425 31.3782 12.4851ZM18.002 22.7463C18.2531 23.157 18.6998 23.4073 19.1812 23.4073H25.5498C26.3881 23.4073 27.0703 24.0895 27.0703 24.9279C27.0703 25.7662 26.3881 26.4484 25.5498 26.4484H17.0724L15.1755 23.4513C14.767 22.8063 13.9136 22.6143 13.2682 23.0223C12.623 23.4307 12.431 24.2847 12.8392 24.9297L14.9291 28.2315V31.4247H8.84696V24.0985V20.2278C8.84696 18.5511 10.2112 17.1869 11.8881 17.1869C13.5615 17.1869 15.1438 18.0736 16.017 19.5013L18.002 22.7463ZM11.5054 8.34007C13.1823 8.34007 14.5465 9.70427 14.5465 11.3812C14.5465 13.058 13.1823 14.4223 11.5054 14.4223C9.82854 14.4223 8.46433 13.058 8.46433 11.3812C8.46433 9.70427 9.82868 8.34007 11.5054 8.34007ZM9.18991 48.4963H13.8211V55.3388C13.8211 56.0286 13.9716 56.6834 14.2396 57.274H9.18991V48.4963ZM20.4562 39.44V55.3388C20.4562 56.406 19.5881 57.274 18.521 57.274C17.4538 57.274 16.5857 56.406 16.5857 55.3388V47.114V41.5675C16.5857 40.8042 15.9667 40.1852 15.2034 40.1852H13.2272C10.8119 40.1852 8.84696 38.2202 8.84696 35.8049V35.5715V34.1892H14.9569C15.0851 34.8201 15.6428 35.2951 16.3115 35.2951C18.5968 35.2952 20.4562 37.1546 20.4562 39.44ZM34.0051 55.6153C34.0051 56.5299 33.261 57.274 32.3463 57.274C31.4317 57.274 30.6875 56.5299 30.6875 55.6153V35.2952H34.0051V55.6153ZM17.6938 32.5306V29.213H53.0811V32.5306H17.6938ZM50.3186 39.44C50.3186 37.1546 52.178 35.2952 54.4634 35.2952C55.132 35.2952 55.6898 34.8203 55.8179 34.1894H61.9279V35.5717V35.805C61.9279 38.2203 59.9629 40.1853 57.5476 40.1853H55.5713C54.808 40.1853 54.189 40.8043 54.189 41.5676V47.1142V55.3389C54.189 56.4061 53.3209 57.2742 52.2537 57.2742C51.1866 57.2742 50.3185 56.4061 50.3185 55.3389V39.44H50.3186ZM56.5351 57.274C56.8031 56.6834 56.9536 56.0286 56.9536 55.3388V48.4963H61.5848V57.274H56.5351Z" fill="white"/>
</svg>
