<svg width="64" height="74" viewBox="0 0 64 74" fill="none" xmlns="http://www.w3.org/2000/svg">
<path d="M20.9249 15.5557C21.134 15.5557 21.3462 15.5137 21.5497 15.4251L21.5784 15.4127C22.3667 15.0681 22.7217 14.1529 22.3762 13.367C22.0305 12.5808 21.1076 12.2252 20.3202 12.5694L20.295 12.5802C19.5063 12.9238 19.1501 13.8383 19.4946 14.6246C19.7502 15.2084 20.3238 15.5557 20.9249 15.5557Z" fill="white"/>
<path d="M62.213 12.7564C52.0218 9.97138 41.7707 5.63491 32.5679 0.215885C32.0791 -0.0719618 31.4725 -0.0719618 30.9838 0.215885C21.5155 5.7906 11.8183 9.89245 1.33776 12.7564C0.660713 12.9412 0.191406 13.555 0.191406 14.2552V30.1331C0.191406 46.4838 7.75456 57.3069 14.0995 63.5069C20.9301 70.1822 28.8869 73.8737 31.7758 73.8737C34.6644 73.8737 42.6212 70.1822 49.4519 63.5069C55.7967 57.307 63.3594 46.484 63.3594 30.1331V14.255C63.3594 13.555 62.8901 12.9412 62.213 12.7564ZM60.2432 30.1329C60.2432 45.4044 53.189 55.5036 47.2709 61.2868C40.5538 67.851 33.372 70.7656 31.7758 70.7656C30.1797 70.7656 22.9975 67.851 16.2802 61.2868C10.3622 55.5035 3.30772 45.4044 3.30772 30.1329V15.4347C13.3301 12.5966 22.6639 8.63588 31.7761 3.35465C40.6608 8.49578 50.4603 12.6535 60.2432 15.4341V30.1329Z" fill="white"/>
<path d="M17.9654 15.261C17.65 14.4624 16.7454 14.0701 15.9445 14.3847C13.1611 15.4786 10.3041 16.4854 7.45315 17.3773C6.80344 17.5808 6.36133 18.181 6.36133 18.86V24.8609C6.36133 25.7191 7.05907 26.4149 7.91941 26.4149C8.77976 26.4149 9.4775 25.7191 9.4775 24.8609V19.9957C12.0351 19.1704 14.59 18.2575 17.0868 17.2762C17.8875 16.9618 18.2809 16.0596 17.9654 15.261Z" fill="white"/>
<path d="M50.34 50.1076C49.62 49.6382 48.6544 49.8401 48.1833 50.5585C46.8993 52.5184 45.393 54.3953 43.7056 56.1363C42.3179 57.5679 40.8142 58.9023 39.2363 60.102C38.5522 60.6223 38.4205 61.5974 38.9421 62.28C39.2489 62.6809 39.7129 62.8919 40.1822 62.8919C40.5117 62.8919 40.8438 62.7881 41.1259 62.5734C42.8279 61.2791 44.4496 59.8401 45.9458 58.2966C47.7702 56.4145 49.4006 54.383 50.7921 52.2584C51.263 51.5399 51.0603 50.5769 50.34 50.1076Z" fill="white"/>
<path d="M35.6172 62.5392L35.5278 62.5917C34.7832 63.0218 34.5287 63.9723 34.9598 64.715C35.2487 65.2127 35.7717 65.4906 36.3097 65.4906C36.5745 65.4906 36.8433 65.4233 37.0888 65.2811L37.1919 65.2207C37.9345 64.787 38.1839 63.8351 37.7491 63.0945C37.3139 62.3542 36.3594 62.1059 35.6172 62.5392Z" fill="white"/>
<path d="M21.1544 33.7655C20.1977 32.8112 18.9253 32.286 17.5721 32.286C16.2188 32.286 14.9463 32.8113 13.9892 33.7655C12.014 35.7358 12.014 38.9418 13.9892 40.912L23.1896 50.0876C24.1464 51.0416 25.4188 51.567 26.7721 51.567C28.1255 51.567 29.3979 51.0416 30.3549 50.0873L49.5613 30.9319C51.5363 28.9611 51.5363 25.7555 49.561 23.7859C48.6042 22.8316 47.3318 22.3064 45.9783 22.3064C44.6249 22.3064 43.3525 22.8317 42.3955 23.7859L26.772 39.3679L21.1544 33.7655ZM44.5991 25.9836C44.9673 25.6164 45.4573 25.4143 45.9784 25.4143C46.4998 25.4143 46.9894 25.6164 47.3578 25.9836C48.1181 26.7418 48.1181 27.976 47.3575 28.7346L28.1514 47.8897C27.7832 48.2569 27.2932 48.4591 26.7721 48.4591C26.251 48.4591 25.7611 48.2569 25.3927 47.8897L16.1926 38.7144C15.4321 37.9559 15.4321 36.7217 16.1924 35.9635C16.5607 35.5963 17.0507 35.3939 17.5719 35.3939C18.0932 35.3939 18.5829 35.596 18.951 35.9632L25.6702 42.6646C25.9626 42.9559 26.3587 43.1197 26.772 43.1197C27.1853 43.1197 27.5814 42.9561 27.8735 42.6646L44.5991 25.9836Z" fill="white"/>
</svg>
