<svg width="46" height="62" viewBox="0 0 46 62" fill="none" xmlns="http://www.w3.org/2000/svg">
<path d="M41.1579 23.8483V18.1579C41.1579 8.14552 33.0124 0 23 0C12.9876 0 4.84211 8.14552 4.84211 18.1579V23.8483C2.08248 24.4105 0 26.8562 0 29.7789V36.6511C0 37.3197 0.5419 37.8616 1.21053 37.8616C1.87915 37.8616 2.42105 37.3197 2.42105 36.6511V29.7789C2.42105 27.7764 4.05006 26.1474 6.05263 26.1474H39.9474C41.9499 26.1474 43.5789 27.7764 43.5789 29.7789V55.9263C43.5789 57.5043 42.567 58.85 41.1579 59.3498V52.0526C41.1579 51.384 40.616 50.8421 39.9474 50.8421C39.2787 50.8421 38.7368 51.384 38.7368 52.0526V59.5579H6.05263C4.05006 59.5579 2.42105 57.9289 2.42105 55.9263V46.3632C2.42105 45.6945 1.87915 45.1526 1.21053 45.1526C0.5419 45.1526 0 45.6945 0 46.3632V55.9263C0 59.2638 2.71517 61.979 6.05263 61.979H39.9474C43.2848 61.979 46 59.2638 46 55.9263V29.7789C46 26.8562 43.9175 24.4105 41.1579 23.8483ZM13.8 23.7263V18.1579C13.8 13.085 17.9271 8.9579 23 8.9579C28.0729 8.9579 32.2 13.085 32.2 18.1579V23.7263H13.8ZM34.6211 23.7263V18.1579C34.6211 11.7501 29.4078 6.53684 23 6.53684C16.5922 6.53684 11.3789 11.7501 11.3789 18.1579V23.7263H7.26316V18.1579C7.26316 9.48041 14.3225 2.42105 23 2.42105C31.6775 2.42105 38.7368 9.48041 38.7368 18.1579V23.7263H34.6211Z" fill="white"/>
<path d="M1.21053 52.0905C1.52876 52.0905 1.84132 51.9614 2.06641 51.7358C2.29149 51.5108 2.42105 51.1987 2.42105 50.88C2.42105 50.5617 2.29149 50.2492 2.06641 50.0246C1.84132 49.799 1.52876 49.6694 1.21053 49.6694C0.89229 49.6694 0.579729 49.799 0.354646 50.0246C0.129564 50.2492 0 50.5617 0 50.88C0 51.1987 0.129564 51.5108 0.354646 51.7358C0.579729 51.9614 0.89229 52.0905 1.21053 52.0905Z" fill="white"/>
<path d="M39.9469 57.7207C40.2665 57.7207 40.5777 57.5912 40.8027 57.3661C41.0278 57.141 41.1574 56.8299 41.1574 56.5102C41.1574 56.1906 41.0278 55.8794 40.8027 55.6543C40.5777 55.4292 40.2665 55.2997 39.9469 55.2997C39.6286 55.2997 39.3161 55.4292 39.091 55.6543C38.8659 55.8794 38.7363 56.192 38.7363 56.5102C38.7363 56.8284 38.8659 57.141 39.091 57.3661C39.3161 57.5912 39.6286 57.7207 39.9469 57.7207Z" fill="white"/>
</svg>
