<svg width="75" height="75" viewBox="0 0 75 75" fill="none" xmlns="http://www.w3.org/2000/svg">
<path d="M0.163524 6.79042L5.10038 15.4294C5.2669 15.7213 5.54563 15.9325 5.87157 16.0143L10.4774 17.1657L26.2744 32.9628L28.0199 31.2178L11.9756 15.174C11.8177 15.0156 11.6197 14.9034 11.4029 14.8491L6.97733 13.7388L2.77411 6.37919L6.37774 2.77555L13.7404 6.98284L14.8512 11.4084C14.905 11.6257 15.0177 11.8242 15.1756 11.9821L31.2199 28.0264L32.9649 26.2809L17.1678 10.4839L16.0164 5.88063C15.9346 5.55418 15.7234 5.27494 15.4315 5.10791L6.79203 0.171566C6.31022 -0.10259 5.70403 -0.0213587 5.31107 0.370076L0.374726 5.30693C-0.0222933 5.69735 -0.108602 6.30456 0.163524 6.79042Z" fill="white"/>
<path d="M19.5712 52.4356C19.3478 52.064 18.9467 51.837 18.5131 51.837H11.1083C10.6753 51.837 10.2737 52.064 10.0508 52.4356L6.34817 58.6062C6.11311 58.9971 6.11311 59.486 6.34817 59.8774L10.0508 66.048C10.2737 66.4191 10.6753 66.6466 11.1083 66.6466H18.5131C18.9467 66.6466 19.3478 66.4191 19.5712 66.048L23.2733 59.8774C23.5084 59.486 23.5084 58.9971 23.2733 58.6062L19.5712 52.4356ZM17.815 64.1782H11.8069L8.84503 59.2418L11.8069 54.305H17.815L20.7769 59.2418L17.815 64.1782Z" fill="white"/>
<path d="M59.2392 29.6221C67.3903 29.6495 74.0208 23.0637 74.0482 14.9126C74.0523 13.6718 73.9 12.436 73.5948 11.2333C73.4304 10.5718 72.7607 10.1692 72.0992 10.3336C71.8819 10.388 71.6839 10.5002 71.5255 10.6581L63.843 18.3355L57.7476 16.3042L55.7147 10.2103L63.3972 2.52628C63.879 2.04396 63.8785 1.26262 63.3962 0.780811C63.2373 0.621901 63.0373 0.509192 62.8185 0.455376C54.9136 -1.54648 46.8833 3.23857 44.8815 11.1429C44.5774 12.3421 44.4256 13.5748 44.4296 14.812C44.4327 15.7838 44.5327 16.7525 44.7297 17.7039L17.7014 44.7317C16.75 44.5352 15.7813 44.4352 14.8101 44.4316C6.63053 44.4316 0 51.0622 0 59.2417C0 67.4207 6.63053 74.0512 14.8101 74.0512C22.9891 74.0512 29.6196 67.4207 29.6196 59.2417C29.6165 58.27 29.516 57.3013 29.3195 56.3498L35.7902 49.8792L38.6201 52.7091C39.1024 53.1909 39.8832 53.1909 40.3655 52.7091L40.9824 52.0918C41.5236 51.5541 42.3983 51.5541 42.9396 52.0918C43.4803 52.631 43.4813 53.5062 42.9421 54.0469C42.9416 54.0474 42.9406 54.0485 42.9396 54.0495L42.3227 54.6663C41.8409 55.1481 41.8409 55.9295 42.3227 56.4113L57.0449 71.1335C60.9171 75.0412 67.2237 75.0697 71.1315 71.1975C75.0387 67.3252 75.0672 61.0181 71.195 57.1109C71.1741 57.0896 71.1528 57.0682 71.1315 57.0469L56.4093 42.3252C55.9275 41.8434 55.1461 41.8434 54.6643 42.3252L54.0475 42.9421C53.5058 43.4802 52.6315 43.4802 52.0898 42.9421C51.5496 42.4029 51.5481 41.5276 52.0872 40.9874C52.0883 40.9864 52.0893 40.9859 52.0898 40.9849L52.7071 40.3675C53.1889 39.8857 53.1889 39.1044 52.7071 38.6226L49.8772 35.7927L56.3478 29.322C57.2993 29.5185 58.268 29.6191 59.2392 29.6221ZM64.0882 71.5833C63.1916 71.5818 62.3026 71.4198 61.4634 71.1045L71.1021 61.4654C72.5566 65.3346 70.5994 69.65 66.7303 71.1045C65.886 71.4219 64.9909 71.5843 64.0882 71.5833ZM50.1067 39.5075C48.74 41.1377 48.9542 43.5675 50.5845 44.9338C52.0172 46.1345 54.1054 46.1334 55.5365 44.9302L69.3865 58.7924C69.5368 58.9432 69.6775 59.1021 69.8135 59.2635L59.2615 69.8155C59.0996 69.6799 58.9407 69.5393 58.7899 69.3885L44.9292 55.5269C46.2959 53.8966 46.0817 51.4668 44.4515 50.1006C43.0188 48.8994 40.9301 48.9009 39.4989 50.1036L37.5244 48.1292L48.1318 37.5376L50.1067 39.5075ZM55.0903 27.0948L27.0933 55.0862C26.7861 55.3928 26.6628 55.8381 26.7673 56.259C28.4605 62.9083 24.4426 69.6713 17.7928 71.364C11.1435 73.0572 4.38042 69.0392 2.68724 62.3894C0.99458 55.7401 5.0125 48.9771 11.6623 47.2839C13.6738 46.7721 15.7813 46.7721 17.7928 47.2839C18.2137 47.3869 18.6579 47.2636 18.9656 46.9585L46.9559 18.9665C47.2626 18.6599 47.386 18.2146 47.2804 17.7943C45.5989 11.2226 49.563 4.53219 56.1346 2.85019C57.3764 2.53288 58.6609 2.41103 59.9403 2.49074L53.4301 9.00348C53.0996 9.33348 52.9838 9.8224 53.1316 10.2656L55.5995 17.6709C55.7229 18.039 56.0123 18.3284 56.3808 18.4507L63.7861 20.9191C64.2288 21.0669 64.7178 20.9516 65.0483 20.6216L71.5585 14.1114C71.5732 14.347 71.5808 14.58 71.5808 14.812C71.6153 21.5934 66.1464 27.1186 59.3651 27.1537C58.3167 27.1588 57.2719 27.0298 56.2565 26.7699C55.8356 26.6648 55.3903 26.7876 55.0837 27.0943H55.0903V27.0948Z" fill="white"/>
<path d="M0.163524 6.79042L5.10038 15.4294C5.2669 15.7213 5.54563 15.9325 5.87157 16.0143L10.4774 17.1657L26.2744 32.9628L28.0199 31.2178L11.9756 15.174C11.8177 15.0156 11.6197 14.9034 11.4029 14.8491L6.97733 13.7388L2.77411 6.37919L6.37774 2.77555L13.7404 6.98284L14.8512 11.4084C14.905 11.6257 15.0177 11.8242 15.1756 11.9821L31.2199 28.0264L32.9649 26.2809L17.1678 10.4839L16.0164 5.88063C15.9346 5.55418 15.7234 5.27494 15.4315 5.10791L6.79203 0.171566C6.31022 -0.10259 5.70403 -0.0213587 5.31107 0.370076L0.374726 5.30693C-0.0222933 5.69735 -0.108602 6.30456 0.163524 6.79042Z" fill="white"/>
<path d="M19.5712 52.4356C19.3478 52.064 18.9467 51.837 18.5131 51.837H11.1083C10.6753 51.837 10.2737 52.064 10.0508 52.4356L6.34817 58.6062C6.11311 58.9971 6.11311 59.486 6.34817 59.8774L10.0508 66.048C10.2737 66.4191 10.6753 66.6466 11.1083 66.6466H18.5131C18.9467 66.6466 19.3478 66.4191 19.5712 66.048L23.2733 59.8774C23.5084 59.486 23.5084 58.9971 23.2733 58.6062L19.5712 52.4356ZM17.815 64.1782H11.8069L8.84503 59.2418L11.8069 54.305H17.815L20.7769 59.2418L17.815 64.1782Z" fill="white"/>
<path d="M59.2392 29.6221C67.3903 29.6495 74.0208 23.0637 74.0482 14.9126C74.0523 13.6718 73.9 12.436 73.5948 11.2333C73.4304 10.5718 72.7607 10.1692 72.0992 10.3336C71.8819 10.388 71.6839 10.5002 71.5255 10.6581L63.843 18.3355L57.7476 16.3042L55.7147 10.2103L63.3972 2.52628C63.879 2.04396 63.8785 1.26262 63.3962 0.780811C63.2373 0.621901 63.0373 0.509192 62.8185 0.455376C54.9136 -1.54648 46.8833 3.23857 44.8815 11.1429C44.5774 12.3421 44.4256 13.5748 44.4296 14.812C44.4327 15.7838 44.5327 16.7525 44.7297 17.7039L17.7014 44.7317C16.75 44.5352 15.7813 44.4352 14.8101 44.4316C6.63053 44.4316 0 51.0622 0 59.2417C0 67.4207 6.63053 74.0512 14.8101 74.0512C22.9891 74.0512 29.6196 67.4207 29.6196 59.2417C29.6165 58.27 29.516 57.3013 29.3195 56.3498L35.7902 49.8792L38.6201 52.7091C39.1024 53.1909 39.8832 53.1909 40.3655 52.7091L40.9824 52.0918C41.5236 51.5541 42.3983 51.5541 42.9396 52.0918C43.4803 52.631 43.4813 53.5062 42.9421 54.0469C42.9416 54.0474 42.9406 54.0485 42.9396 54.0495L42.3227 54.6663C41.8409 55.1481 41.8409 55.9295 42.3227 56.4113L57.0449 71.1335C60.9171 75.0412 67.2237 75.0697 71.1315 71.1975C75.0387 67.3252 75.0672 61.0181 71.195 57.1109C71.1741 57.0896 71.1528 57.0682 71.1315 57.0469L56.4093 42.3252C55.9275 41.8434 55.1461 41.8434 54.6643 42.3252L54.0475 42.9421C53.5058 43.4802 52.6315 43.4802 52.0898 42.9421C51.5496 42.4029 51.5481 41.5276 52.0872 40.9874C52.0883 40.9864 52.0893 40.9859 52.0898 40.9849L52.7071 40.3675C53.1889 39.8857 53.1889 39.1044 52.7071 38.6226L49.8772 35.7927L56.3478 29.322C57.2993 29.5185 58.268 29.6191 59.2392 29.6221ZM64.0882 71.5833C63.1916 71.5818 62.3026 71.4198 61.4634 71.1045L71.1021 61.4654C72.5566 65.3346 70.5994 69.65 66.7303 71.1045C65.886 71.4219 64.9909 71.5843 64.0882 71.5833ZM50.1067 39.5075C48.74 41.1377 48.9542 43.5675 50.5845 44.9338C52.0172 46.1345 54.1054 46.1334 55.5365 44.9302L69.3865 58.7924C69.5368 58.9432 69.6775 59.1021 69.8135 59.2635L59.2615 69.8155C59.0996 69.6799 58.9407 69.5393 58.7899 69.3885L44.9292 55.5269C46.2959 53.8966 46.0817 51.4668 44.4515 50.1006C43.0188 48.8994 40.9301 48.9009 39.4989 50.1036L37.5244 48.1292L48.1318 37.5376L50.1067 39.5075ZM55.0903 27.0948L27.0933 55.0862C26.7861 55.3928 26.6628 55.8381 26.7673 56.259C28.4605 62.9083 24.4426 69.6713 17.7928 71.364C11.1435 73.0572 4.38042 69.0392 2.68724 62.3894C0.99458 55.7401 5.0125 48.9771 11.6623 47.2839C13.6738 46.7721 15.7813 46.7721 17.7928 47.2839C18.2137 47.3869 18.6579 47.2636 18.9656 46.9585L46.9559 18.9665C47.2626 18.6599 47.386 18.2146 47.2804 17.7943C45.5989 11.2226 49.563 4.53219 56.1346 2.85019C57.3764 2.53288 58.6609 2.41103 59.9403 2.49074L53.4301 9.00348C53.0996 9.33348 52.9838 9.8224 53.1316 10.2656L55.5995 17.6709C55.7229 18.039 56.0123 18.3284 56.3808 18.4507L63.7861 20.9191C64.2288 21.0669 64.7178 20.9516 65.0483 20.6216L71.5585 14.1114C71.5732 14.347 71.5808 14.58 71.5808 14.812C71.6153 21.5934 66.1464 27.1186 59.3651 27.1537C58.3167 27.1588 57.2719 27.0298 56.2565 26.7699C55.8356 26.6648 55.3903 26.7876 55.0837 27.0943H55.0903V27.0948Z" fill="white"/>
</svg>
