<svg width="35" height="297" viewBox="0 0 35 297" fill="none" xmlns="http://www.w3.org/2000/svg">
<path d="M16.72 280.168C17.136 278.152 18.144 276.488 19.744 275.176C21.312 273.832 23.136 273.16 25.216 273.16C27.648 273.16 29.728 274.024 31.456 275.752C33.152 277.448 34 279.512 34 281.944L34 296.2L0.399998 296.2L0.399997 283.048C0.399997 280.712 1.232 278.728 2.896 277.096C4.56 275.432 6.544 274.6 8.848 274.6C10.64 274.6 12.256 275.112 13.696 276.136C15.136 277.16 16.144 278.504 16.72 280.168ZM1.264 283.048L1.264 295.24L16.432 295.24L16.432 283.048C16.432 281 15.696 279.24 14.224 277.768C12.72 276.296 10.928 275.56 8.848 275.56C6.768 275.56 4.992 276.296 3.52 277.768C2.016 279.24 1.264 281 1.264 283.048ZM33.136 281.944C33.136 279.8 32.368 277.96 30.832 276.424C29.264 274.888 27.392 274.12 25.216 274.12C23.04 274.12 21.184 274.888 19.648 276.424C18.08 277.96 17.296 279.8 17.296 281.944L17.296 295.24L33.136 295.24L33.136 281.944ZM30.88 246.958C33.28 249.39 34.48 252.35 34.48 255.838C34.48 259.326 33.28 262.286 30.88 264.718C28.48 267.15 25.52 268.366 22 268.366C18.48 268.366 15.52 267.15 13.12 264.718C10.72 262.286 9.52 259.326 9.52 255.838C9.52 252.35 10.72 249.39 13.12 246.958C15.52 244.526 18.48 243.31 22 243.31C25.52 243.31 28.48 244.526 30.88 246.958ZM30.256 264.046C32.496 261.806 33.616 259.07 33.616 255.838C33.616 252.606 32.496 249.87 30.256 247.63C28.016 245.39 25.264 244.27 22 244.27C18.736 244.27 15.984 245.39 13.744 247.63C11.504 249.87 10.384 252.606 10.384 255.838C10.384 259.07 11.504 261.806 13.744 264.046C15.984 266.286 18.736 267.406 22 267.406C25.264 267.406 28.016 266.286 30.256 264.046ZM21.52 227.828C21.904 226.1 22.672 224.772 23.824 223.844C24.976 222.884 26.32 222.404 27.856 222.404C29.712 222.404 31.28 223.156 32.56 224.66C33.84 226.164 34.48 228.244 34.48 230.9C34.48 235.732 32.64 238.74 28.96 239.924L28.528 239.156C31.92 238.132 33.616 235.38 33.616 230.9C33.616 228.596 33.088 226.772 32.032 225.428C30.976 224.052 29.584 223.364 27.856 223.364C26.128 223.364 24.736 223.972 23.68 225.188C22.624 226.372 22.096 227.988 22.096 230.036L22.096 232.916L21.232 232.916L21.232 230.852C21.232 228.932 20.736 227.412 19.744 226.292C18.752 225.14 17.44 224.564 15.808 224.564C14.208 224.564 12.912 225.204 11.92 226.484C10.896 227.732 10.384 229.332 10.384 231.284C10.384 233.14 10.784 234.708 11.584 235.988C12.384 237.268 13.456 238.164 14.8 238.676L14.368 239.444C12.896 238.868 11.728 237.876 10.864 236.468C9.968 235.06 9.51999 233.332 9.51999 231.284C9.51999 228.98 10.144 227.124 11.392 225.716C12.608 224.308 14.08 223.604 15.808 223.604C17.12 223.604 18.288 223.972 19.312 224.708C20.336 225.444 21.072 226.484 21.52 227.828ZM10 193.589L34 193.589L34 194.549L11.2 194.549L26.512 204.725L26.512 205.013L11.2 215.189L34 215.189L34 216.149L10 216.149L10 214.853L24.976 204.869L10 194.885L10 193.589ZM30.88 165.442C33.28 167.874 34.48 170.834 34.48 174.322C34.48 177.81 33.28 180.77 30.88 183.202C28.48 185.634 25.52 186.85 22 186.85C18.48 186.85 15.52 185.634 13.12 183.202C10.72 180.77 9.51999 177.81 9.51999 174.322C9.51999 170.834 10.72 167.874 13.12 165.442C15.52 163.01 18.48 161.794 22 161.794C25.52 161.794 28.48 163.01 30.88 165.442ZM30.256 182.53C32.496 180.29 33.616 177.554 33.616 174.322C33.616 171.09 32.496 168.354 30.256 166.114C28.016 163.874 25.264 162.754 22 162.754C18.736 162.754 15.984 163.874 13.744 166.114C11.504 168.354 10.384 171.09 10.384 174.322C10.384 177.554 11.504 180.29 13.744 182.53C15.984 184.77 18.736 185.89 22 185.89C25.264 185.89 28.016 184.77 30.256 182.53ZM34 131.936L34 133.184L21.856 145.424L34 145.424L34 146.384L21.856 146.384L34 158.624L34 159.872L21.52 147.344L9.99999 159.392L9.99999 158.144L21.184 146.384L9.99999 146.384L9.99999 145.424L21.184 145.424L9.99999 133.664L9.99999 132.416L21.52 144.464L34 131.936ZM9.99999 107.956L9.99999 106.996L34 106.996L34 107.956L22.432 107.956L22.432 125.236L34 125.236L34 126.196L9.99999 126.196L9.99999 125.236L21.568 125.236L21.568 107.956L9.99999 107.956ZM30.88 78.8639C33.28 81.2959 34.48 84.2559 34.48 87.7439C34.48 91.2319 33.28 94.1919 30.88 96.6239C28.48 99.0559 25.52 100.272 22 100.272C18.48 100.272 15.52 99.0559 13.12 96.6239C10.72 94.1919 9.51999 91.2319 9.51999 87.7439C9.51999 84.2559 10.72 81.2959 13.12 78.8639C15.52 76.4319 18.48 75.2159 22 75.2159C25.52 75.2159 28.48 76.4319 30.88 78.8639ZM30.256 95.9519C32.496 93.7119 33.616 90.9759 33.616 87.7439C33.616 84.5119 32.496 81.7759 30.256 79.5359C28.016 77.2959 25.264 76.1759 22 76.1759C18.736 76.1759 15.984 77.2959 13.744 79.5359C11.504 81.7759 10.384 84.5119 10.384 87.7439C10.384 90.9759 11.504 93.7119 13.744 95.9519C15.984 98.1919 18.736 99.3119 22 99.3119C25.264 99.3119 28.016 98.1919 30.256 95.9519ZM34.48 57.8845C34.48 61.4365 33.28 64.4125 30.88 66.8125C28.48 69.2125 25.52 70.4125 22 70.4125C18.48 70.4125 15.52 69.2125 13.12 66.8125C10.72 64.4125 9.51999 61.4365 9.51999 57.8845C9.51999 55.5485 10.048 53.4525 11.104 51.5965C12.16 49.7085 13.584 48.3165 15.376 47.4205L15.856 48.1885C14.192 49.0205 12.864 50.3005 11.872 52.0285C10.88 53.7565 10.384 55.7085 10.384 57.8845C10.384 61.2125 11.504 63.9805 13.744 66.1885C15.952 68.3645 18.704 69.4525 22 69.4525C25.296 69.4525 28.064 68.3645 30.304 66.1885C32.512 63.9805 33.616 61.2125 33.616 57.8845C33.616 55.7085 33.12 53.7725 32.128 52.0765C31.136 50.3485 29.808 49.0525 28.144 48.1885L28.624 47.4205C30.416 48.3165 31.84 49.7085 32.896 51.5965C33.952 53.4525 34.48 55.5485 34.48 57.8845ZM9.99999 25.3244L10.864 25.3244L10.864 34.4444L34 34.4444L34 35.4044L10.864 35.4044L10.864 44.5244L9.99999 44.5244L9.99999 25.3244ZM9.99999 1.78375L9.99999 0.823749L34 0.823748L34 1.78375L11.536 1.78375L34 19.0637L34 20.0237L9.99999 20.0237L9.99999 19.0637L32.464 19.0637L9.99999 1.78375Z" fill="white"/>
</svg>
