<svg width="52" height="81" viewBox="0 0 52 81" fill="none" xmlns="http://www.w3.org/2000/svg">
<path d="M5.43781 14.2383C6.31397 14.2383 7.02406 13.5301 7.02406 12.6562C7.02406 7.42195 11.2939 3.16406 16.5415 3.16406C21.7898 3.16406 26.059 7.42195 26.059 12.6562C26.059 13.5301 26.7691 14.2383 27.6453 14.2383C28.5214 14.2383 29.2315 13.5301 29.2315 12.6562C29.2315 5.67739 23.539 0 16.5415 0C9.54409 0 3.85156 5.67739 3.85156 12.6562C3.85156 13.5301 4.56166 14.2383 5.43781 14.2383Z" fill="white"/>
<path d="M43.5081 51.5742C44.3837 51.5742 45.0944 50.8654 45.0944 49.9922C45.0944 49.119 44.3837 48.4102 43.5081 48.4102C42.6326 48.4102 41.9219 49.119 41.9219 49.9922C41.9219 50.8654 42.6326 51.5742 43.5081 51.5742Z" fill="white"/>
<path d="M0.979849 50.6503C1.9632 54.8168 3.51847 58.8225 5.6029 62.5557C7.68857 66.2914 10.2842 69.7194 13.3179 72.745L13.3687 72.7963V79.418C13.3687 80.2918 14.0788 81 14.955 81H43.5075C44.3836 81 45.0937 80.2918 45.0937 79.418V72.614C49.2105 66.2883 51.4387 58.872 51.4387 51.2405V38.918C51.4387 35.4288 48.5921 32.5898 45.0937 32.5898C43.7881 32.5898 42.5737 32.9854 41.5637 33.6627C40.6956 31.1982 38.3404 29.4258 35.5762 29.4258C34.2706 29.4258 33.0562 29.8213 32.0462 30.4986C31.1781 28.0341 28.8229 26.2617 26.0587 26.2617C24.9266 26.2617 23.8404 26.5571 22.8862 27.109V12.6562C22.8862 9.16033 20.0471 6.32812 16.5412 6.32812C13.0428 6.32812 10.1962 9.16713 10.1962 12.6562V35.4344L5.86129 38.3167C1.83432 40.9944 -0.128047 45.9506 0.979849 50.6503ZM7.62165 40.9493L10.1962 39.2368V49.9922C10.1962 50.866 10.9063 51.5742 11.7825 51.5742C12.6586 51.5742 13.3687 50.866 13.3687 49.9922C13.3687 48.839 13.3687 13.6104 13.3687 12.6562C13.3687 10.9117 14.792 9.49219 16.5412 9.49219C18.2935 9.49219 19.7137 10.9086 19.7137 12.6562V43.6641C19.7137 44.5379 20.4238 45.2461 21.3 45.2461C22.1761 45.2461 22.8862 44.5379 22.8862 43.6641V32.5898C22.8862 30.8422 24.3064 29.4258 26.0587 29.4258C27.8079 29.4258 29.2312 30.8453 29.2312 32.5898V43.6641C29.2312 44.5379 29.9413 45.2461 30.8175 45.2461C31.6936 45.2461 32.4037 44.5379 32.4037 43.6641V35.7539C32.4037 34.0093 33.827 32.5898 35.5762 32.5898C37.3254 32.5898 38.7487 34.0093 38.7487 35.7539V43.6641C38.7487 44.5379 39.4588 45.2461 40.335 45.2461C41.2111 45.2461 41.9212 44.5379 41.9212 43.6641V38.918C41.9212 37.1734 43.3445 35.7539 45.0937 35.7539C46.8429 35.7539 48.2662 37.1734 48.2662 38.918V51.2405C48.2662 58.325 46.1756 65.2971 42.1876 71.2631C42.0141 71.5233 41.9212 71.8285 41.9212 72.1406V77.8359H16.5412V72.1406C16.5412 71.721 16.3739 71.3187 16.0765 71.0221C15.7406 70.6408 11.7763 67.1096 8.3745 61.0163C6.4332 57.5384 4.98389 53.807 4.06746 49.9261C3.26194 46.5062 4.69019 42.8984 7.62165 40.9493Z" fill="white"/>
<path d="M37.3488 69.9461C38.0762 70.43 39.0614 70.2366 39.5485 69.508C42.1813 65.5714 43.902 61.2159 44.6629 56.5619C44.8035 55.6998 44.2167 54.8866 43.3524 54.7463C42.4874 54.6054 41.6725 55.1906 41.5313 56.0527C40.8441 60.258 39.2895 64.194 36.9095 67.7523C36.4231 68.479 36.6201 69.461 37.3488 69.9461Z" fill="white"/>
</svg>
