<svg width="69" height="69" viewBox="0 0 69 69" fill="none" xmlns="http://www.w3.org/2000/svg">
<path d="M67.5953 0H11.0956C10.3202 0 9.69141 0.628838 9.69141 1.40418V5.47583C9.69141 6.25117 10.3202 6.88 11.0956 6.88C11.8709 6.88 12.4998 6.25117 12.4998 5.47583V2.80836H66.1911V56.4997H63.5237C62.7483 56.4997 62.1195 57.1285 62.1195 57.9038C62.1195 58.6792 62.7483 59.308 63.5237 59.308H67.5953C68.3707 59.308 68.9995 58.6792 68.9995 57.9038V1.40418C68.9995 0.628838 68.3707 0 67.5953 0Z" fill="white"/>
<path d="M57.9038 9.69177H1.40418C0.628838 9.69177 0 10.3206 0 11.096V67.5956C0 68.371 0.628838 68.9998 1.40418 68.9998H57.9038C58.6792 68.9998 59.308 68.371 59.308 67.5956V11.096C59.308 10.3206 58.6792 9.69177 57.9038 9.69177ZM56.4997 66.1915H2.80836V12.5001H56.4997V66.1915Z" fill="white"/>
</svg>
