<svg width="261" height="94" viewBox="0 0 261 94" fill="none" xmlns="http://www.w3.org/2000/svg">
<path d="M29.8493 0.938203C36.071 0.938203 38.026 5.43916 39.6663 9.93306C40.3553 11.8414 56.5235 56.4982 57.0096 57.8386C57.139 58.2125 57.0516 58.8263 56.4815 59.0485C55.9079 59.2672 47.5073 62.5618 47.0422 62.7382C46.577 62.9181 46.0559 62.657 45.8881 62.1879C45.7132 61.7258 42.2264 51.9902 41.8347 50.9038H17.8709C17.4932 51.9902 13.9643 61.747 13.807 62.1879C13.6461 62.6359 13.146 62.9392 12.6493 62.7382C12.1527 62.5406 3.72064 59.246 3.21702 59.0485C2.73439 58.858 2.51406 58.3042 2.68193 57.8386C3.27648 56.1666 19.1999 12.2259 20.0113 9.93306C21.592 5.50618 23.6135 0.938203 29.8493 0.938203ZM1.4019 80.8443C0.898287 80.8443 0.496094 81.2676 0.496094 81.7826V92.2201C0.496094 92.7351 0.898287 93.1514 1.4019 93.1514H58.2722C58.7863 93.1514 59.1885 92.7351 59.1885 92.2201V81.7826C59.1885 81.2676 58.7863 80.8443 58.2722 80.8443H1.4019ZM29.7933 15.5205L21.6935 40.0535H38.0261L29.8982 15.5205H29.7933V15.5205ZM151.336 55.7469C150.144 56.1525 149.357 56.2513 148.42 56.2513C146.482 56.2513 145.408 55.4788 145.408 53.4752C145.408 51.387 146.772 50.6886 149.451 50.6886C150.105 50.6886 150.749 50.7838 151.05 50.8896V52.3853C151.05 53.9973 151.137 55.0555 151.336 55.7469V55.7469ZM158.223 58.1384C156.792 55.9479 156.418 54.6569 156.418 51.895V46.2864C156.418 43.2669 156.068 42.177 155.278 41.0764C154.176 39.5173 152.34 38.8401 148.965 38.8401C146.576 38.8401 144.258 39.1011 142.012 39.6796L142.824 43.6655C144.342 43.4504 145.933 43.2669 147.056 43.2669C150.64 43.2669 151.05 43.789 151.05 46.5016V47.5139C150.252 47.2988 149.357 47.1436 148.318 47.1436C142.922 47.1436 140.071 49.8067 140.071 54.216C140.071 58.3501 143.118 60.6041 146.828 60.6041C148.213 60.6041 149.661 60.3466 150.808 59.8739C151.501 59.5706 151.802 59.3907 152.697 58.8051C153.235 59.5953 154.316 60.403 154.757 60.5547L158.223 58.1384V58.1384ZM211.603 55.7469C210.403 56.1525 209.63 56.2513 208.686 56.2513C206.741 56.2513 205.654 55.4788 205.654 53.4752C205.654 51.387 207.035 50.6886 209.721 50.6886C210.375 50.6886 211.022 50.7838 211.316 50.8896V52.3853C211.316 53.9973 211.4 55.0555 211.603 55.7469V55.7469ZM218.496 58.1384C217.055 55.9479 216.688 54.6569 216.688 51.895V46.2864C216.688 43.2669 216.331 42.177 215.534 41.0764C214.446 39.5173 212.606 38.8401 209.221 38.8401C206.836 38.8401 204.503 39.1011 202.258 39.6796L203.059 43.6655C204.58 43.4504 206.175 43.2669 207.329 43.2669C210.893 43.2669 211.316 43.789 211.316 46.5016V47.5139C210.518 47.2988 209.63 47.1436 208.57 47.1436C203.167 47.1436 200.306 49.8067 200.306 54.216C200.306 58.3501 203.359 60.6041 207.087 60.6041C208.49 60.6041 209.924 60.3466 211.06 59.8739C211.763 59.5706 212.054 59.3907 212.949 58.8051C213.495 59.5953 214.575 60.403 215.019 60.5547L218.496 58.1384V58.1384ZM260.513 60.1349C260.513 60.1349 257.554 53.7751 256.83 52.3288C256.015 50.6992 255.26 49.5739 253.595 49.1683V49.0766C254.711 48.8614 255.599 48.1806 256.571 46.0994C257.491 44.0712 257.764 43.6338 258.306 43.1505C258.838 42.6708 259.565 42.8437 259.565 42.8437L259.838 39.094C259.065 38.9882 258.208 38.9847 257.323 39.0341C255.854 39.1223 255.095 39.5491 254.371 40.2828C253.805 40.8436 253.42 41.6831 252.945 42.6461C252.441 43.6973 252.042 44.5439 251.518 45.6127C250.997 46.7097 250.752 47.2035 249.349 47.2035H248.437V30.593H243.033V60.1349H248.437V51.641L249.174 51.6269C250.724 51.6269 250.997 52.0184 251.815 53.6657C252.773 55.6305 254.609 60.1349 254.609 60.1349H260.513V60.1349ZM108.295 60.1349H114.53L105.098 31.0868C104.105 30.7517 102.877 30.5436 101.566 30.5436C100.135 30.5436 99.6247 30.7341 98.5056 31.0868L88.5241 60.1349H94.5081C94.5081 60.1349 95.316 57.5882 96.2673 54.4311H106.605C107.529 57.5846 108.295 60.1349 108.295 60.1349ZM97.7851 49.5598C97.7851 49.5598 99.5128 43.729 99.7821 42.8225C100.468 40.4732 101.51 36.7413 101.51 36.7413H101.681C101.681 36.7413 102.646 40.6073 103.276 42.7802C103.514 43.6444 105.164 49.5598 105.164 49.5598H97.7851ZM167.428 46.237C165.522 46.237 163.972 47.8067 163.972 49.7291C163.972 51.6657 165.522 53.2248 167.428 53.2248C169.337 53.2248 170.88 51.6657 170.88 49.7291C170.88 47.8067 169.337 46.237 167.428 46.237ZM121.934 30.593H116.517V60.1314H121.934V30.593V30.593ZM229.565 43.535C232.559 43.5985 232.929 44.2229 232.929 46.7555V60.1349H238.298V46.2864C238.298 43.2669 237.948 42.177 237.151 41.0764C236.049 39.5173 233.884 38.8401 230.222 38.8401C226.599 38.8401 224.291 39.2281 221.322 40.1205V60.1349H226.746V43.789C228.169 43.5809 228.421 43.535 229.565 43.535V43.535ZM135.333 30.0674C131.947 30.0674 130.104 30.7447 129.02 32.3003C128.222 33.4044 127.869 34.519 127.869 37.5455V40.1205H125.18V44.5368H127.869V60.1349H133.241L133.227 44.5368H138.582V40.1205H133.227L133.241 37.7536C133.241 35.0446 133.65 34.519 137.239 34.519C137.627 34.519 138.064 34.5402 138.529 34.5754L139.375 30.332C138.05 30.1556 136.693 30.0674 135.333 30.0674V30.0674ZM178.434 30.3426C180.277 30.2332 184.397 30.078 186.981 30.078C187.453 30.078 187.943 30.0815 188.433 30.1062C193.514 30.1062 196.428 33.8382 196.428 38.2192C196.428 41.1999 195.074 43.1788 191.902 44.3569C195.634 45.1894 197.589 48.1277 197.589 51.7221C197.589 54.3606 196.851 56.4559 195.497 57.8845C193.742 59.627 191.084 60.6041 187.544 60.6041C184.397 60.6041 180.445 60.5053 178.434 60.3854V30.3426V30.3426ZM186.981 35.1822C186.086 35.1822 184.977 35.1998 183.879 35.2386V42.3322H186.985C188.216 42.3322 189.206 41.9865 189.881 41.3198C190.524 40.6919 190.86 39.803 190.86 38.7484C190.86 36.4802 189.643 35.1963 187.38 35.1822H186.981V35.1822ZM187.093 55.5105H187.327C190.15 55.5105 191.878 53.9973 191.899 50.9496C191.871 49.8561 191.454 48.8473 190.709 48.1171C189.895 47.2917 188.74 46.8614 187.387 46.8614H183.879V55.4788C184.869 55.5 185.96 55.5035 187.093 55.5105" fill="#EE2A23"/>
</svg>
