<svg width="261" height="94" viewBox="0 0 261 94" fill="none" xmlns="http://www.w3.org/2000/svg">
<path fill-rule="evenodd" clip-rule="evenodd" d="M29.9691 19.9657H19.7643V30.4806L3.46297 47.2577L19.7643 64.0384V74.4814H29.9691L33.7462 78.3704L46.3367 91.262L58.8608 78.374L62.7042 74.485H72.8428V64.042L76.6862 60.1529L89.2103 47.2613L76.6862 34.3697L72.8428 30.4806V19.9657H62.7042L58.8608 16.0766L46.3367 3.18501L29.9691 19.9657ZM15.9871 16.0766H31.0956L46.3367 0.448242L61.5777 16.0766H76.6862V31.5609L91.9272 47.2589L76.6862 62.8873V78.3716H61.5777L46.3367 94L31.0956 78.3716H15.9871V62.8873L0.746094 47.2589L15.9871 31.5585V16.0742V16.0766ZM8.7642 47.2589L46.3367 8.72816L83.8429 47.2589L46.3367 85.7897L8.7642 47.2589V47.2589Z" fill="#006D58"/>
<path fill-rule="evenodd" clip-rule="evenodd" d="M72.8427 35.9542C68.6547 41.2357 62.9913 45.0743 56.8728 47.1173C53.554 48.1904 50.7786 48.5961 47.3306 48.7738C44.5673 48.7318 41.7013 49.1987 39.2462 50.6463C34.8174 53.1334 31.6732 57.8303 31.4269 63.3218C31.0337 74.5186 40.059 77.613 46.3366 85.7921L57.3366 74.4849L72.8427 58.4965L83.8428 47.2613L72.8427 35.9542V35.9542ZM19.7642 58.4965C23.8616 53.5715 29.1098 49.7184 34.9389 47.6935C41.3424 44.8787 46.7828 46.6948 52.1017 44.4526C56.5006 42.6761 59.9431 38.4149 60.9812 33.4335C62.978 21.1997 53.353 16.9289 46.3366 8.73057L35.3365 19.9657L19.7642 35.9518L8.76412 47.2589L19.7642 58.4941V58.4965ZM3.46289 47.2589L19.7642 30.4782V19.9633H29.969L46.3366 3.18262L62.7041 19.9633H72.8427V30.4782L89.2103 47.2589L72.8427 64.0396V74.4825H62.7041L46.3366 91.2632L29.969 74.4825H19.7642V64.0396L3.46289 47.2613V47.2589Z" fill="#F1A400"/>
<path fill-rule="evenodd" clip-rule="evenodd" d="M157.066 69.0114L151.036 56.5519L144.939 69.0114H157.066V69.0114ZM100.939 65.9122V73.6903H118.963L119.361 73.5463H119.493C119.899 73.4227 120.25 73.1862 120.62 72.9701L120.819 72.8261L121.084 72.538L121.282 72.2499L121.548 71.9618L121.68 71.6762C121.967 71.3557 122.022 70.8503 122.144 70.4518C122.197 69.2347 122.111 68.2816 121.282 67.355L121.084 67.0669L120.819 66.8508L120.487 66.5627L120.156 66.4187L119.825 66.2026L119.692 66.1306L119.493 66.0562C113.43 65.192 107.196 65.414 100.939 65.9122ZM100.939 53.4527V61.2309H118.963L119.162 61.1588H119.361L119.493 61.0868C119.891 60.9308 120.316 60.7723 120.62 60.4386C121.089 60.2826 121.468 59.674 121.68 59.2143C121.978 58.871 122.045 58.3536 122.144 57.9179C122.195 56.6216 122.096 55.9194 121.282 54.8931L121.084 54.605L120.819 54.3169L120.487 54.1729L119.825 53.7408L119.692 53.6687H119.493L119.361 53.5967L119.162 53.5247H118.963L118.764 53.4503H100.939V53.4527ZM172.241 48.7714H179.795L201.066 70.5935V48.7738H208.62V78.374H201.066L179.795 56.5519V78.374H172.241V48.7738V48.7714ZM224.723 63.6075L244.269 48.7738H235.919L219.287 61.2333V48.7738H211.666V78.374H219.287V65.9122L235.919 78.3716H244.269L224.72 63.6075H224.723ZM228.367 16.0742H235.922V28.5337L252.62 16.0742H260.97L241.422 30.9104L260.97 45.6745H252.62L235.922 33.215V45.6745H228.367V16.0766V16.0742ZM211.668 33.215V45.6745H204.114V33.2174L189.668 16.0766H197.289L207.891 28.5361L218.494 16.0766H226.114L211.668 33.2174V33.215ZM172.241 16.0742H179.795V40.9932H201.066V45.6745H172.241V16.0766V16.0742ZM151.036 23.8524L157.066 36.3119H144.939L151.036 23.8524V23.8524ZM161.638 45.6745H169.192L154.813 16.0742H147.192L132.813 45.6745H140.367L142.62 40.9932H159.319L161.638 45.6745V45.6745ZM93.3848 16.0742H100.939V28.5337H122.144V16.0766H129.764V45.6769H122.144V33.2174H100.939V45.6769H93.3848V16.0766V16.0742ZM93.3848 48.7714H122.939L123.27 48.8434H123.668L123.999 48.9178L124.331 49.0618L124.662 49.1339L125.06 49.2779C125.903 49.5864 126.686 50.0965 127.379 50.7183C128.775 52.1107 129.658 53.7552 129.764 55.8317C129.93 60.2226 126.462 63.5763 122.542 63.6099C126.236 63.4599 129.791 66.8628 129.764 70.956C129.795 72.9605 128.95 74.8367 127.644 76.2134C126.959 76.9 126.206 77.4618 125.325 77.7979L125.06 77.9419L124.662 78.0139L124.331 78.158L123.999 78.23L123.668 78.302L123.27 78.374H93.3848V48.7738V48.7714ZM140.367 78.3716H132.813L147.192 48.7714H154.813L169.192 78.3716H161.638L159.319 73.6903H142.62L140.367 78.3716V78.3716Z" fill="#006D58"/>
<path fill-rule="evenodd" clip-rule="evenodd" d="M133.077 0.520466H139.174V1.31269H136.722V5.20178H135.529V1.31269H133.077V0.520466V0.520466ZM87.8181 3.61733L88.8121 1.67279L89.8061 3.61733H87.8181V3.61733ZM89.4085 0.520466H88.2157L85.7639 5.20178H86.9567L87.4205 4.40956H90.2037L90.6013 5.20178H91.8603L89.4085 0.520466ZM96.2338 0.520466C95.3326 0.67891 95.4939 1.29108 95.5049 2.10491H96.6977V1.31269H99.7459V2.46501H98.2218V3.25723H99.7459V4.40956H96.6977V3.61733H95.5049C95.5491 4.09507 95.3249 4.80566 95.8362 5.05774L96.1013 5.20178H100.342L100.475 5.12975L100.607 5.05774C101.082 4.82607 100.939 3.855 100.939 3.47329C100.775 3.09879 100.635 2.83231 100.21 2.89713L100.342 2.82511H100.475L100.607 2.75309L100.806 2.53703L100.939 2.24895V1.16865L100.74 0.736527L100.607 0.664507L100.475 0.592488L100.342 0.520466H96.2338V0.520466ZM106.571 3.61733L107.631 1.67279L108.625 3.61733H106.571ZM108.228 0.520466H106.969L104.583 5.20178H105.776L106.174 4.40956H109.023L109.421 5.20178H110.68L108.228 0.520466ZM124.132 0.520466H128.836L129.234 0.736527C129.607 1.53715 129.342 0.882969 129.433 2.10491H128.24V1.31269H124.595V4.40956H128.24V3.61733H129.433V4.55359L129.234 4.98572L129.101 5.05774L128.836 5.20178H123.999L123.601 4.98572L123.403 4.55359V1.16865C123.565 0.74493 123.673 0.580483 124.132 0.520466V0.520466ZM144.806 3.61733L145.867 1.67279L146.861 3.61733H144.806ZM146.463 0.520466H145.204L142.818 5.20178H144.011L144.409 4.40956H147.258L147.656 5.20178H148.849L146.463 0.520466V0.520466ZM152.493 0.520466H153.752V2.46501H157.33V0.520466H158.59V5.20178H157.33V3.25723H153.752V5.20178H152.493V0.520466ZM76.6855 0.520466H77.8783V2.46501L80.6615 0.520466H82.1193L78.806 2.89713L81.5892 4.76965H82.1193L81.3241 6.06602H80.7277L80.9265 5.20178H80.6615L77.8783 3.25723V5.20178H76.6855V0.520466ZM223.331 3.25723V4.40956H225.915L226.048 4.33753H226.18L226.313 4.19349L226.379 4.04945V3.61733L226.313 3.47329L226.18 3.32925L226.048 3.25723H223.331ZM222.138 0.520466H226.975V1.31269H223.331V2.46501H226.512L226.777 2.60905H226.909L226.975 2.68107L227.108 2.75309L227.373 3.04117L227.505 3.32925L227.572 3.40127V4.26551L227.505 4.33753L227.439 4.48157L227.373 4.55359L227.307 4.69764L227.24 4.76965L227.108 4.84167L226.973 4.98572L226.907 5.05774H226.774L226.642 5.12975H226.509L226.377 5.20178H222.136V0.520466H222.138ZM233.271 3.61733L234.265 1.67279L235.259 3.61733H233.271ZM234.861 0.520466H233.668L231.216 5.20178H232.475L232.873 4.40956H235.656L236.12 5.20178H237.313L234.861 0.520466ZM240.957 0.520466H242.15V2.46501H245.795V0.520466H246.988V5.20178H245.795V3.25723H242.15V5.20178H240.957V0.520466ZM250.632 0.520466H251.891V2.46501L254.674 0.520466H256.132L252.819 2.89713L256.132 5.20178H254.674L251.891 3.25723V5.20178H250.632V0.520466ZM259.777 5.20178V0.520466H260.969V5.20178H259.777ZM170.716 3.25723L169.059 5.20178H167.668L169.656 2.89713L167.668 0.520466H169.059L170.716 2.46501L172.373 0.520466H173.764L171.71 2.89713L173.764 5.20178H172.373L170.716 3.25723ZM179.397 3.61733L180.391 1.67279L181.451 3.61733H179.397ZM181.053 0.520466H179.794L177.409 5.20178H178.602L178.999 4.40956H181.849L182.246 5.20178H183.439L181.053 0.520466V0.520466ZM198.017 3.25723V4.40956H200.602L200.734 4.33753H200.801L200.933 4.19349L201.002 4.04945L201.068 3.97743V3.68935L201.002 3.61733L200.935 3.47329L200.803 3.32925L200.736 3.25723H198.017V3.25723ZM202.855 5.20178V0.520466H204.114V5.20178H202.855ZM196.758 0.520466H198.017V2.46501H201.198L201.463 2.60905H201.529L201.795 2.75309C201.989 3.1588 202.32 3.29684 202.258 3.83339V4.12147L202.192 4.26551V4.33753L201.993 4.55359L201.927 4.69764L201.662 4.98572L201.529 5.05774H201.463L201.331 5.12975H201.198L201.066 5.20178H196.758V0.520466V0.520466ZM190.728 0.520466H189.535L187.084 5.20178H188.276L190.132 1.67279L191.921 5.20178H193.18L190.728 0.520466ZM207.692 0.520466H208.951V2.46501L211.734 0.520466H213.192L209.879 2.89713L212.596 4.76965H213.192L212.397 6.06602H211.734L211.999 5.20178H211.734L208.951 3.25723V5.20178H207.692V0.520466V0.520466ZM256.927 92.4182L257.921 90.4736L258.982 92.4182H256.927ZM231.216 89.3189H237.313V90.0391H234.927V93.9282H233.668V90.0391H231.216V89.3189V89.3189ZM192.716 92.4158L193.71 90.4712L194.77 92.4158H192.716ZM194.373 89.3189H193.114L190.728 93.9282H191.921L192.319 93.208H195.168L195.566 93.9282H196.758L194.373 89.3189V89.3189ZM199.541 89.3189H199.276L199.144 89.3909L198.945 89.607L198.813 89.8951V90.8313H200.005V90.0391H203.054V91.1914H201.529V91.9836H203.054V93.208H200.005V92.4158H198.813C198.879 93.2056 198.63 93.3544 199.144 93.8562L199.276 93.9306H203.782L203.915 93.8586C204.427 93.3844 204.207 93.0567 204.246 92.2741C204.133 91.9224 203.896 91.5899 203.517 91.6259H203.65L203.851 91.5539L203.917 91.4819L204.05 91.4075C204.423 90.6057 204.158 91.2598 204.249 90.0391V89.8951L204.116 89.607L204.05 89.535L203.917 89.3909L203.785 89.3189H199.544H199.541ZM208.355 92.4158L209.349 90.4712L210.343 92.4158H208.355ZM209.945 89.3189H208.752L206.301 93.9282H207.493L207.891 93.208H210.74L211.138 93.9282H212.397L209.945 89.3189V89.3189ZM217.433 91.9836L215.777 93.9282H214.385L216.373 91.6235L214.385 89.3189H215.777L217.433 91.1914L219.09 89.3189H220.481L218.493 91.6235L220.481 93.9282H219.09L217.433 91.9836ZM223.596 89.3189H228.433L228.566 89.3909L228.765 89.607L228.897 89.8951V90.8313H227.704V90.0391H224.06V93.208H227.704V92.4158H228.897C228.831 93.2056 229.079 93.3544 228.566 93.8562L228.433 93.9306H223.331L223.198 93.8586L222.999 93.6425L222.867 93.3544V89.8975C223.03 89.523 223.171 89.2565 223.596 89.3189V89.3189ZM240.692 92.4158L241.753 90.4712L242.746 92.4158H240.692ZM242.349 89.3189H241.156L238.704 93.9282H239.897L240.295 93.208H243.142L243.539 93.9282H244.732L242.349 89.3189V89.3189ZM246.789 89.3189H248.048V91.1914H251.626V89.3189H252.885V93.9282H251.626V91.9836H248.048V93.9282H246.789V89.3189ZM183.24 89.3189H184.433V91.1914L187.216 89.3189H188.674L185.361 91.6235L188.674 93.9282H187.216L184.433 91.9836V93.9282H183.24V89.3189ZM258.518 89.3189H257.325L254.873 93.9282H256.132L256.53 93.208H259.379L259.777 93.9282H260.969L258.518 89.3189V89.3189ZM76.6855 89.3189H77.8783V91.1914H81.5229V89.3189H82.7157V93.9282H81.5229V91.9836H77.8783V93.9282H76.6855V89.3189ZM86.8241 92.4158L87.8181 90.4712L88.8121 92.4158H86.8241V92.4158ZM88.4145 89.3189H87.2217L84.7699 93.9282H85.9627L86.3603 93.208H89.2097L89.6073 93.9282H90.8663L88.4145 89.3189ZM101.601 93.208V90.0391H105.246V93.208H101.601ZM101.137 89.3189H105.975L106.107 89.3909L106.174 89.535L106.306 89.607L106.439 89.8951V93.352L106.306 93.6401L106.174 93.7121L106.107 93.8562L105.975 93.9306H100.806L100.674 93.8586L100.607 93.7145L100.475 93.6425L100.409 93.4985V93.3544L100.342 93.2104V90.0415L100.409 89.8975V89.7534L100.475 89.6094L100.607 89.5374L100.674 89.3933L100.806 89.3189H101.137V89.3189ZM94.0471 91.1914V90.0391H96.6977L96.7639 90.1111L96.8965 90.1855L97.0953 90.4016V90.5456L97.1615 90.6177L97.0953 90.7617V90.9057L96.8965 91.1218L96.7639 91.1938H94.0471V91.1914ZM92.8543 93.9282H94.0471V91.9836H97.4266L97.4929 91.9116L97.7579 91.7676L97.8242 91.6956L97.9567 91.6235L98.0252 91.4795L98.0915 91.4075L98.1577 91.2634L98.224 91.1914L98.2903 91.0474V90.7593L98.3587 90.6153L98.2925 90.5432V90.2552L98.1599 89.9671L98.0937 89.8951L98.0274 89.751L97.9589 89.679L97.8264 89.6046L97.7601 89.5326L97.4951 89.3885L97.4288 89.3165H92.8543V93.9294V93.9282ZM110.083 93.208H113.33V90.0391C110.686 89.847 109.746 90.1747 110.083 93.208ZM108.493 93.208H109.089C109.294 91.2754 108.639 91.3114 109.752 89.9671L109.884 89.8254L110.282 89.5374L110.481 89.4653L110.878 89.3213H114.523V93.2104H115.119V93.9306H108.493V93.2104V93.208ZM117.174 89.3189H118.366V91.1914H122.011V89.3189H123.204V93.9282H122.011V91.9836H118.366V93.9282H117.174V89.3189ZM126.517 91.9836V93.208H128.969L129.101 93.136H129.168L129.3 93.0639L129.499 92.8479V92.7038L129.565 92.5598L129.499 92.4878V92.3437L129.3 92.1277L129.168 92.0557H129.101L128.969 91.9836H126.517V91.9836ZM131.354 93.9282V89.3189H132.547V93.9282H131.354ZM125.258 89.3189H126.517V91.1914H129.366L129.565 91.2634H129.83L129.897 91.3379L130.029 91.4099L130.162 91.4819L130.228 91.5539L130.36 91.6283L130.429 91.7004L130.495 91.8444L130.561 91.9164L130.694 92.2045V92.4926L130.76 92.5646L130.694 92.7086V92.9967L130.628 93.1408L130.561 93.2128L130.495 93.3568L130.429 93.4288L130.36 93.5729L130.228 93.6449L130.162 93.7169L129.897 93.861L129.83 93.9354H125.258V89.3189V89.3189ZM136.457 89.3189V88.5267H138.776V89.3189H136.457ZM140.632 89.3189H139.439L135.794 92.7038V89.3189H134.601V93.9282H135.794L139.439 90.5432V93.9282H140.632V89.3189ZM149.18 91.9836V93.208H151.632L151.764 93.136H151.897L152.162 92.8479L152.228 92.7038V92.4878L152.162 92.3437L151.897 92.0557H151.764L151.632 91.9836H149.18V91.9836ZM147.987 89.3189H152.824V90.0391H149.18V91.1914H152.096L152.228 91.2634H152.493L152.626 91.3379C152.758 91.4171 153.001 91.5707 153.089 91.698C153.403 92.1145 153.281 91.926 153.421 92.3461C153.432 92.8503 153.418 92.7122 153.355 93.1384L153.222 93.2104V93.3544L153.089 93.4264L153.023 93.5705L152.957 93.6425L152.824 93.7145L152.758 93.7889L152.626 93.861L152.493 93.933H147.987V89.3213V89.3189ZM157.198 92.4158L158.258 90.4712L159.252 92.4158H157.198ZM158.855 89.3189H157.596L155.21 93.9282H156.403L156.8 93.208H159.65L160.047 93.9282H161.24L158.855 89.3189V89.3189ZM163.294 89.3189H164.487V91.1914H168.132V89.3189H169.391V93.9282H168.132V91.9836H164.487V93.9282H163.294V89.3189ZM171.644 89.3189H172.837V91.1914L175.686 89.3189H177.078L173.831 91.6235L177.078 93.9282H175.686L172.837 91.9836V93.9282H171.644V89.3189ZM114.324 0.518066H115.517V2.46261L118.3 0.518066H119.758L116.445 2.89473L119.228 4.76725H119.758L118.963 6.06362H118.3L118.565 5.19937H118.3L115.517 3.25483V5.19937H114.324V0.518066Z" fill="#1F1A17"/>
</svg>
