<svg width="44" height="229" viewBox="0 0 44 229" fill="none" xmlns="http://www.w3.org/2000/svg">
<path d="M0.399997 204.2L34 204.2L34 205.16L1.264 205.16L1.264 227.24L34 227.24L34 228.2L0.399998 228.2L0.399997 204.2ZM10 172.895L10 171.935L34 171.935L34 172.895L26.656 172.895C29.024 173.823 30.928 175.327 32.368 177.407C33.776 179.487 34.48 181.839 34.48 184.463C34.48 187.951 33.28 190.911 30.88 193.343C28.48 195.775 25.52 196.991 22 196.991C18.48 196.991 15.52 195.775 13.12 193.343C10.72 190.911 9.52 187.951 9.52 184.463C9.52 181.839 10.24 179.487 11.68 177.407C13.088 175.327 14.976 173.823 17.344 172.895L10 172.895ZM30.256 192.671C32.496 190.431 33.616 187.695 33.616 184.463C33.616 181.231 32.496 178.495 30.256 176.255C28.016 174.015 25.264 172.895 22 172.895C18.736 172.895 15.984 174.015 13.744 176.255C11.504 178.495 10.384 181.231 10.384 184.463C10.384 187.695 11.504 190.431 13.744 192.671C15.984 194.911 18.736 196.031 22 196.031C25.264 196.031 28.016 194.911 30.256 192.671ZM9.52 150.761C9.51999 147.273 10.72 144.313 13.12 141.881C15.52 139.449 18.48 138.233 22 138.233C25.52 138.233 28.48 139.449 30.88 141.881C33.28 144.313 34.48 147.273 34.48 150.761C34.48 153.417 33.744 155.801 32.272 157.913C30.8 159.993 28.864 161.465 26.464 162.329L43.6 162.329L43.6 163.289L10 163.289L10 162.329L17.536 162.329C15.136 161.465 13.2 159.993 11.728 157.913C10.256 155.801 9.52 153.417 9.52 150.761ZM30.256 158.969C32.496 156.729 33.616 153.993 33.616 150.761C33.616 147.529 32.496 144.793 30.256 142.553C28.016 140.313 25.264 139.193 22 139.193C18.736 139.193 15.984 140.313 13.744 142.553C11.504 144.793 10.384 147.529 10.384 150.761C10.384 153.993 11.504 156.729 13.744 158.969C15.984 161.209 18.736 162.329 22 162.329C25.264 162.329 28.016 161.209 30.256 158.969ZM10 116.606L10.864 116.606L10.864 125.726L34 125.726L34 126.686L10.864 126.686L10.864 135.806L10 135.806L10 116.606ZM10 93.065L10 92.105L34 92.105L34 93.065L22.432 93.065L22.432 110.345L34 110.345L34 111.305L10 111.305L10 110.345L21.568 110.345L21.568 93.065L10 93.065ZM9.51999 73.2372C9.51999 69.7492 10.768 66.9172 13.264 64.7412C15.728 62.5332 18.672 61.4292 22.096 61.4292L22.576 61.4292L22.576 84.4212C25.84 84.2932 28.496 83.1572 30.544 81.0132C32.592 78.8372 33.616 76.1812 33.616 73.0452C33.616 70.9332 33.168 69.0452 32.272 67.3812C31.376 65.6852 30.176 64.4372 28.672 63.6372L29.152 62.8212C30.784 63.7492 32.08 65.1252 33.04 66.9492C34 68.7412 34.48 70.7732 34.48 73.0452C34.48 76.5972 33.312 79.5412 30.976 81.8772C28.608 84.2132 25.616 85.3812 22 85.3812C18.448 85.3812 15.488 84.2452 13.12 81.9732C10.72 79.6692 9.51999 76.7572 9.51999 73.2372ZM21.712 84.4212L21.712 62.2932C18.352 62.4852 15.632 63.6212 13.552 65.7012C11.44 67.7492 10.384 70.2612 10.384 73.2372C10.384 76.3732 11.456 79.0132 13.6 81.1572C15.712 83.2692 18.416 84.3572 21.712 84.4212ZM9.51999 42.1989C9.51999 38.7109 10.72 35.7509 13.12 33.3189C15.52 30.8869 18.48 29.6709 22 29.6709C25.52 29.6709 28.48 30.8869 30.88 33.3189C33.28 35.7509 34.48 38.7109 34.48 42.1989C34.48 44.8549 33.744 47.2389 32.272 49.3509C30.8 51.4309 28.864 52.9029 26.464 53.7669L43.6 53.7669L43.6 54.7269L9.99999 54.7269L9.99999 53.7669L17.536 53.7669C15.136 52.9029 13.2 51.4309 11.728 49.3509C10.256 47.2389 9.51999 44.8549 9.51999 42.1989ZM30.256 50.4069C32.496 48.1669 33.616 45.4309 33.616 42.1989C33.616 38.9669 32.496 36.2309 30.256 33.9909C28.016 31.7509 25.264 30.6309 22 30.6309C18.736 30.6309 15.984 31.7509 13.744 33.9909C11.504 36.2309 10.384 38.9669 10.384 42.1989C10.384 45.4309 11.504 48.1669 13.744 50.4069C15.984 52.6469 18.736 53.7669 22 53.7669C25.264 53.7669 28.016 52.6469 30.256 50.4069ZM19.696 13.9216C19.696 11.7776 20.352 9.95362 21.664 8.44962C22.944 6.91362 24.656 6.14562 26.8 6.14562C28.944 6.14562 30.688 6.91362 32.032 8.44962C33.344 9.95362 34 11.7776 34 13.9216L34 22.9456L9.99999 22.9456L9.99999 21.9856L19.696 21.9856L19.696 13.9216ZM9.99999 1.82562L9.99999 0.865623L34 0.865622L34 1.82562L9.99999 1.82562ZM33.136 13.9216C33.136 11.9696 32.544 10.3536 31.36 9.07362C30.144 7.76162 28.624 7.10562 26.8 7.10562C24.976 7.10562 23.488 7.74562 22.336 9.02562C21.152 10.3056 20.56 11.9376 20.56 13.9216L20.56 21.9856L33.136 21.9856L33.136 13.9216Z" fill="white"/>
</svg>
