<svg width="268" height="70" viewBox="0 0 268 70" fill="none" xmlns="http://www.w3.org/2000/svg">
<path d="M251.308 32.0375C249.202 32.0375 248.838 34.786 248.838 37.9706C248.838 42.3143 249.445 44.4534 251.275 44.4534C253.223 44.4553 253.711 41.8214 253.711 38.3023C253.711 34.3595 253.192 32.0375 251.308 32.0375ZM251.213 49.4359C245.762 49.4359 242.439 46.6248 242.439 38.271C242.439 31.2404 245.639 27.0493 251.336 27.0493C256.698 27.0493 260.111 30.1078 260.111 38.0303C260.111 45.3993 257.062 49.4359 251.208 49.4359H251.213ZM233.176 32.1844H232.289V36.7148H232.893C234.054 36.7148 234.753 35.767 234.753 34.2382C234.753 33.0724 234.384 32.1844 233.167 32.1844H233.176ZM235.017 48.9156L232.855 41.1779H232.279V48.9156H226.218V27.5715H233.742C237.859 27.5715 241.116 29.1922 241.116 33.6231C241.116 36.6503 240.295 38.6085 238.557 39.4662L241.871 48.9156H235.017ZM217.107 32.4052C216.862 32.2498 216.522 32.1844 216.163 32.1844H215.672V37.7545H216.277C217.466 37.7545 217.834 36.5338 217.834 34.786C217.834 33.5918 217.589 32.7047 217.098 32.4033L217.107 32.4052ZM216.031 42.4024H215.663V48.9156H209.573V27.5715H216.267C217.24 27.5715 218.099 27.6303 218.948 27.8113C222.121 28.4274 224.16 30.5693 224.16 34.3605C224.16 39.8387 221.233 42.4072 216.022 42.4072L216.031 42.4024ZM199.926 32.5208V48.9175H193.83V32.5208H190.177V27.5734H203.583V32.5303H199.929L199.926 32.5208ZM184.253 49.4388C178.829 49.4388 175.872 45.9576 175.872 38.6151C175.872 31.0015 179.349 27.0569 184.435 27.0569C186.018 27.0569 187.725 27.4521 188.943 28.3108L187.272 33.0497C186.601 32.4716 185.839 32.1967 185.047 32.1967C182.97 32.1967 182.3 34.8315 182.3 38.1962C182.3 42.7199 183.527 44.2809 185.264 44.2809C186.029 44.2809 186.851 43.9748 187.587 43.482L188.974 48.2256C187.973 48.927 186.019 49.4454 184.253 49.4454V49.4388ZM166.941 32.9635H166.913C166.368 35.4087 165.849 38.0407 165.484 40.3353H168.373C167.976 37.9469 167.485 35.5642 166.937 32.9672L166.941 32.9635ZM169.713 48.9279C169.581 47.8285 169.373 46.331 169.194 44.9946H164.766C164.587 46.4353 164.398 47.7148 164.285 48.9374H158.28C159.47 42.0281 160.961 35.3936 163.18 27.5933H171.337C173.32 34.787 175.057 42.1228 176.18 48.9374H169.694L169.713 48.9279ZM150.274 49.4492C148.414 49.4492 146.705 49.1459 145.147 48.6246L145.789 43.7625C146.828 44.189 148.225 44.5302 149.566 44.5302C151.124 44.5302 151.634 43.9236 151.634 43.0327C151.634 42.1228 151.114 41.4689 148.952 40.0661C145.846 38.0189 145.081 36.4361 145.081 33.9245C145.081 29.2235 148.405 27.0815 152.087 27.0815C153.909 27.0815 155.684 27.4227 156.987 28.0009L156.222 32.6829C154.881 32.01 153.814 31.8015 152.653 31.8015C151.898 31.8015 151.473 32.2659 151.473 32.9957C151.473 33.8487 151.992 34.5216 153.965 35.8106C157.1 37.8294 157.978 39.6681 157.978 41.8669C157.978 47.2788 154.475 49.4776 150.246 49.4776L150.274 49.4492ZM134.791 48.9564L131.137 36.0855H131.109V48.927H125.925V27.5734H134.3L137.982 40.4443H138.01V27.5715H143.184V48.9156H134.8L134.791 48.9564ZM115.334 32.9663H115.305C114.758 35.4116 114.238 38.0464 113.873 40.3401H116.767C116.37 37.9516 115.881 35.5661 115.332 32.9691L115.334 32.9663ZM118.107 48.9298C117.985 47.8304 117.77 46.3329 117.59 44.987H113.167C112.987 46.4277 112.801 47.7072 112.682 48.9298H106.677C107.867 42.0205 109.358 35.386 111.586 27.5857H119.753C121.736 34.7794 123.473 42.1153 124.596 48.9298H118.11H118.107ZM97.2161 32.1891H96.3325V36.7195H96.9367C98.0979 36.7195 98.7966 35.7717 98.7966 34.243C98.7966 33.0772 98.4284 32.1901 97.2105 32.1901L97.2161 32.1891ZM99.0666 48.9184L96.9046 41.1845H96.3287V48.9279H90.2675V27.5734H97.792C101.906 27.5734 105.166 29.1941 105.166 33.6241C105.166 36.6513 104.346 38.6094 102.609 39.4671L105.926 48.9166H99.0723L99.0666 48.9184ZM85.1505 32.5303V48.9175H79.061V32.5227H75.5111L75.4073 27.5706H88.8079V32.5227H85.1542L85.1505 32.5303ZM33.3889 0.305664H44.9409V11.6667H33.3889V0.305664ZM44.9447 11.6677C39.0875 23.606 25.9115 26.4588 10.9285 25.2589L4.87305 35.4855C20.7982 35.3557 38.5984 37.0067 44.9268 25.7423L44.9457 11.6677H44.9447ZM33.3794 51.5315H44.9032V62.9921H33.3804V51.5305L33.3794 51.5315Z" fill="#0653AD"/>
<path d="M33.3809 51.0688C39.239 39.1296 52.3952 36.1564 67.3782 37.3572L73.4365 27.1306C57.5094 27.2586 39.7102 25.6085 33.3837 36.872V51.0698L33.3809 51.0688ZM83.3968 57.3839C83.3968 56.6162 82.938 56.1546 82.16 56.1546H80.4361V58.6037H82.16C82.938 58.6037 83.3968 58.1544 83.3968 57.3848V57.3839ZM84.8035 57.3848C84.8035 58.9392 83.833 59.8586 82.2884 59.8586H80.4361V62.1427C80.4361 62.4081 80.3389 62.5124 80.0726 62.5124H79.4684C79.1946 62.5124 79.1002 62.4176 79.1002 62.1522V55.2808C79.1002 55.0154 79.1946 54.9206 79.4778 54.9206H82.2903C83.8236 54.9206 84.8035 55.8589 84.8035 57.4038V57.3848ZM90.455 56.1527H90.3794C90.3794 56.1717 90.37 56.7972 90.1453 57.4512L89.3268 59.7259H91.519L90.7099 57.4701C90.4861 56.8067 90.4644 56.1812 90.455 56.1622V56.1527ZM93.596 62.5313H93.0428C92.5896 62.5313 92.4669 62.4745 92.3819 62.2091L91.8909 60.8348H88.9453L88.445 62.2185C88.36 62.4744 88.2278 62.5408 87.7841 62.5408H87.2931C87.0288 62.5408 86.9627 62.4271 87.0477 62.1901L89.7101 55.2429C89.8045 54.9964 89.9083 54.949 90.1538 54.949H90.7108C90.9563 54.949 91.0696 55.0059 91.1545 55.2429L93.8169 62.2091C93.9019 62.446 93.8358 62.5597 93.5715 62.5597L93.596 62.5313ZM102.172 55.3376L99.5769 59.5543V62.1825C99.5769 62.4536 99.4825 62.5503 99.2087 62.5503H98.6045C98.3307 62.5503 98.2457 62.4555 98.2457 62.1901V59.5363L95.6494 55.3092C95.5267 55.1102 95.5739 54.949 95.8383 54.949H96.5841C97.009 54.949 97.1317 54.9585 97.2827 55.2713L98.9349 58.162L100.597 55.2808C100.766 54.968 100.88 54.9585 101.305 54.9585H102.001C102.275 54.9585 102.304 55.1196 102.19 55.3282L102.172 55.3376ZM112.689 55.3282V62.1996C112.689 62.4744 112.604 62.5692 112.327 62.5692H111.789C111.515 62.5692 111.43 62.4745 111.43 62.2091V58.8918C111.43 58.2852 111.501 57.5934 111.685 56.7688H111.61C111.345 57.5716 111.077 58.1052 110.734 58.7269L109.696 60.5751C109.583 60.7647 109.498 60.831 109.28 60.831H108.941C108.72 60.831 108.644 60.7874 108.525 60.5751L107.458 58.7136C107.1 58.0928 106.897 57.6237 106.642 56.7678H106.566C106.736 57.6019 106.788 58.2369 106.788 58.9098V62.1607C106.788 62.4261 106.703 62.5304 106.429 62.5304H105.919C105.646 62.5304 105.547 62.4356 105.547 62.1702V55.2893C105.547 55.0201 105.642 54.9244 105.921 54.9244H106.391C106.692 54.9244 106.788 54.9784 106.901 55.2031L109.118 59.1743L111.337 55.2031C111.469 54.9661 111.544 54.9092 111.828 54.9092H112.347C112.63 54.9092 112.715 55.004 112.715 55.2694L112.689 55.3282ZM121.613 55.2694V55.7907C121.613 56.0561 121.519 56.1508 121.245 56.1508H117.979V58.0274H120.745C121.009 58.0274 121.104 58.1222 121.104 58.3876V58.9089C121.104 59.1743 121.009 59.269 120.745 59.269H117.979V61.2404H121.349C121.623 61.2404 121.708 61.3352 121.708 61.6006V62.1219C121.708 62.3873 121.623 62.482 121.349 62.482H117.006C116.732 62.482 116.638 62.3873 116.638 62.1124V55.2884C116.638 55.0135 116.732 54.9187 117.016 54.9187H121.245C121.519 54.9187 121.623 55.0135 121.623 55.2789L121.613 55.2694ZM131.196 55.2789V62.1408C131.196 62.4062 131.111 62.5105 130.837 62.5105H130.224C130.044 62.5105 129.959 62.4726 129.874 62.3304L127.259 58.4634C126.759 57.7147 126.428 56.729 126.381 56.6721H126.315C126.315 56.7574 126.551 57.7905 126.551 58.8046V62.1598C126.551 62.4346 126.457 62.5294 126.192 62.5294H125.626C125.352 62.5294 125.258 62.4346 125.258 62.1693V55.2893C125.258 55.0201 125.352 54.9244 125.626 54.9244H126.23C126.426 54.9244 126.511 54.987 126.586 55.095L129.173 58.943C129.715 59.7581 130.013 60.6775 130.07 60.7628H130.131C130.131 60.6547 129.895 59.6823 129.895 58.6018V55.2846C129.895 55.0154 129.989 54.9197 130.254 54.9197H130.82C131.094 54.9197 131.179 55.0144 131.179 55.2836L131.196 55.2789ZM140.252 55.2836V55.8049C140.252 56.0703 140.157 56.1679 139.893 56.1679H138.062V62.1446C138.062 62.4128 137.967 62.5095 137.701 62.5095H137.087C136.823 62.5095 136.728 62.4147 136.728 62.1456V56.1651H134.897C134.623 56.1651 134.538 56.0703 134.538 55.803V55.2779C134.538 55.0097 134.623 54.914 134.897 54.914H139.901C140.169 54.914 140.265 55.0088 140.265 55.2779L140.252 55.2836ZM146.241 54.7538C147.771 54.7538 148.545 55.313 149.045 56.3707C149.168 56.6171 149.102 56.7498 148.847 56.8636L148.262 57.1195C148.026 57.2237 147.931 57.1858 147.809 56.9394C147.525 56.3802 147.1 56.0485 146.26 56.0485C145.231 56.0485 144.721 56.3707 144.721 57.0342C144.721 57.8019 145.59 57.944 146.562 58.0483C147.818 58.1905 149.266 58.5032 149.266 60.2851C149.266 61.7162 148.19 62.683 146.232 62.683C144.58 62.683 143.739 62.0574 143.305 60.9011C143.207 60.6357 143.271 60.5125 143.526 60.4272L144.111 60.2187C144.357 60.1334 144.466 60.1903 144.572 60.4462C144.846 61.0812 145.403 61.4414 146.234 61.4414C147.329 61.4414 147.933 61.1002 147.933 60.3325C147.933 59.5932 147.15 59.4415 146.253 59.3373C144.956 59.2046 143.354 58.9961 143.354 57.1289C143.354 55.7736 144.355 54.7879 146.272 54.7879L146.241 54.7538ZM160.043 55.8684C159.458 55.8684 159.137 56.2854 159.137 56.7593C159.137 57.1384 159.295 57.3943 159.713 57.8208L160.09 57.6218C160.581 57.3943 160.855 57.1669 160.855 56.674C160.855 56.2475 160.506 55.8874 160.034 55.8874L160.043 55.8684ZM158.523 60.4651C158.523 61.0907 158.995 61.5361 159.618 61.5361C160.185 61.5361 160.534 61.2423 161.006 60.7874L159.458 59.1951C158.769 59.5268 158.523 59.9533 158.523 60.4557V60.4651ZM160.034 54.8069C161.143 54.8069 162.016 55.6125 162.016 56.6645C162.016 57.5839 161.548 58.162 160.6 58.6264L160.496 58.6833L161.809 60.0292L162.47 59.3923C162.611 59.2482 162.762 59.2482 162.904 59.3923L163.338 59.8188C163.451 59.9609 163.465 60.0557 163.305 60.2168L162.616 60.8898L163.9 62.2546C164.079 62.4602 164.051 62.5768 163.739 62.5768H162.984C162.739 62.5768 162.644 62.5361 162.503 62.3854L161.823 61.6935C160.93 62.5275 160.369 62.7408 159.576 62.7408C158.235 62.7408 157.286 61.7968 157.286 60.4604C157.286 59.4084 157.919 58.7828 158.693 58.3658C158.268 57.9014 157.992 57.3896 157.992 56.783C157.992 55.7594 158.709 54.8211 160.059 54.8211L160.034 54.8069ZM176.94 55.3481V55.8693C176.94 56.1347 176.845 56.2295 176.581 56.2295H174.75V62.2005C174.75 62.4707 174.65 62.5673 174.383 62.5673H173.77C173.505 62.5673 173.411 62.4726 173.411 62.2072V56.2267H171.579C171.305 56.2267 171.22 56.1224 171.22 55.857V55.3329C171.22 55.0628 171.305 54.9671 171.585 54.9671H176.589C176.853 54.9671 176.947 55.0618 176.947 55.3367L176.94 55.3481ZM185.256 55.3367V55.858C185.256 56.1233 185.161 56.2181 184.884 56.2181H181.626V58.0853H184.383C184.648 58.0853 184.742 58.18 184.742 58.4454V58.9667C184.742 59.234 184.648 59.3307 184.383 59.3307H181.617V61.2926H184.997C185.278 61.2926 185.363 61.3873 185.363 61.6603V62.1816C185.363 62.447 185.278 62.5417 185.004 62.5417H180.652C180.375 62.5417 180.28 62.447 180.28 62.1797V55.2893C180.28 55.0211 180.375 54.9254 180.648 54.9254H184.878C185.152 54.9254 185.246 55.0201 185.246 55.2855L185.256 55.3367ZM191.657 54.7595C193.224 54.7595 194.149 55.3945 194.555 56.5508C194.649 56.8067 194.583 56.9204 194.328 57.0247L193.743 57.2332C193.488 57.309 193.384 57.2711 193.29 57.0057C193.054 56.3518 192.544 56.02 191.666 56.02C190.569 56.02 189.963 56.5603 189.963 57.5365V59.906C189.963 60.8916 190.567 61.4414 191.668 61.4414C192.56 61.4414 193.061 61.1002 193.295 60.4462C193.404 60.1808 193.512 60.1239 193.767 60.2187L194.343 60.4272C194.598 60.522 194.659 60.6452 194.573 60.9011C194.167 62.0574 193.242 62.7019 191.665 62.7019C189.705 62.7019 188.618 61.6309 188.618 59.9154V57.564C188.618 55.8532 189.703 54.7832 191.667 54.7832L191.657 54.7595ZM203.937 55.3101V62.1759C203.937 62.4413 203.842 62.5361 203.564 62.5361H202.956C202.691 62.5361 202.597 62.4413 202.597 62.1721V59.27H199.36V62.1257C199.36 62.3929 199.261 62.4896 198.994 62.4896H198.39C198.11 62.4896 198.012 62.3948 198.012 62.1257V55.2609C198.012 54.9936 198.112 54.8979 198.39 54.8979H198.997C199.264 54.8979 199.361 54.9926 199.361 55.2609V58.0208H202.514V55.2609C202.514 54.9917 202.608 54.896 202.873 54.896H203.486C203.77 54.896 203.864 54.9907 203.864 55.259L203.937 55.3101ZM213.711 55.259V62.1247C213.711 62.392 213.626 62.4887 213.352 62.4887H212.748C212.569 62.4887 212.484 62.446 212.399 62.3057L209.783 58.4388C209.283 57.69 208.953 56.7043 208.905 56.6408H208.849C208.849 56.7261 209.085 57.7535 209.085 58.7686V62.1332C209.085 62.4081 208.99 62.5029 208.726 62.5029H208.169C207.895 62.5029 207.801 62.4081 207.801 62.1427V55.2808C207.801 55.0154 207.895 54.9206 208.178 54.9206H208.783C208.972 54.9206 209.057 54.987 209.132 55.0912L211.719 58.9392C212.266 59.7543 212.559 60.6737 212.616 60.759H212.682C212.682 60.6547 212.446 59.6785 212.446 58.598V55.2808C212.446 55.0154 212.54 54.9206 212.814 54.9206H213.371C213.654 54.9206 213.739 55.0154 213.739 55.2902L213.711 55.259ZM220.499 56.02C219.404 56.02 218.8 56.5603 218.8 57.546V59.906C218.8 60.9011 219.413 61.4319 220.509 61.4319C221.594 61.4319 222.217 60.9011 222.217 59.906V57.546C222.217 56.5603 221.594 56.02 220.509 56.02H220.499ZM220.509 54.769C222.463 54.769 223.549 55.84 223.549 57.5649V59.8965C223.549 61.6214 222.463 62.683 220.518 62.683C218.554 62.683 217.468 61.6214 217.468 59.8965V57.564C217.468 55.839 218.554 54.7775 220.518 54.7775L220.509 54.769ZM228.59 55.3035V61.2746H231.649C231.913 61.2746 232.008 61.3693 232.008 61.6385V62.1598C232.008 62.4252 231.913 62.5199 231.649 62.5199H227.618C227.344 62.5199 227.249 62.4252 227.249 62.1503V55.2789C227.249 55.0135 227.344 54.9092 227.625 54.9092H228.229C228.498 54.9092 228.593 55.004 228.593 55.2694L228.59 55.3035ZM238.05 55.9992C236.955 55.9992 236.346 56.53 236.346 57.5251V59.8851C236.346 60.8803 236.95 61.411 238.049 61.411C239.135 61.411 239.748 60.8708 239.748 59.8756V57.5156C239.748 56.5205 239.135 55.9802 238.049 55.9802L238.05 55.9992ZM238.049 54.7292C239.994 54.7292 241.08 55.8002 241.08 57.5251V59.8567C241.08 61.5722 239.994 62.6432 238.049 62.6432C236.085 62.6432 235 61.5722 235 59.851V57.5194C235 55.8039 236.085 54.7329 238.049 54.7329V54.7292ZM250.662 58.6947V60.1258C250.662 61.5854 249.577 62.6564 247.624 62.6564C245.665 62.6564 244.579 61.5854 244.579 59.8643V57.5137C244.579 55.7983 245.664 54.7292 247.623 54.7292C249.19 54.7292 250.116 55.3642 250.522 56.5205C250.616 56.7764 250.556 56.8901 250.295 56.9849L249.71 57.1934C249.445 57.2882 249.342 57.2313 249.247 56.9659C249.011 56.312 248.501 55.9802 247.62 55.9802C246.516 55.9802 245.921 56.511 245.921 57.4967V59.8605C245.921 60.8556 246.525 61.3864 247.62 61.3864C248.706 61.3864 249.348 60.8509 249.348 60.123V59.5638H247.743C247.479 59.5638 247.375 59.469 247.375 59.1875V58.6757C247.375 58.3914 247.474 58.3061 247.74 58.3061H250.294C250.568 58.3061 250.653 58.3914 250.653 58.67L250.662 58.6947ZM259.943 55.2391L257.347 59.4709V62.0963C257.347 62.3617 257.252 62.4564 256.988 62.4564H256.384C256.11 62.4564 256.025 62.3617 256.025 62.0868V59.433L253.419 55.2154C253.301 55.0097 253.344 54.8495 253.611 54.8495H254.351C254.776 54.8495 254.899 54.859 255.05 55.1718L256.702 58.0625L258.363 55.1813C258.533 54.8685 258.651 54.859 259.077 54.859H259.773C260.037 54.859 260.075 55.0201 259.952 55.222" fill="#0653AD"/>
</svg>
