<svg width="135" height="39" viewBox="0 0 135 39" fill="none" xmlns="http://www.w3.org/2000/svg">
<path d="M0.228516 0V4.64462H7.35148V25.2519H13.2296V4.64462H20.3577V0H0.228516Z" fill="#473560"/>
<path d="M33.7764 0H27.7588L17.9551 25.2519H22.5419C23.0326 25.2519 23.4406 25.118 23.7764 24.8605C24.1173 24.6031 24.3394 24.3096 24.4582 23.98L25.951 19.5774H35.5791L37.0771 23.98C37.2062 24.3559 37.4335 24.6597 37.764 24.8914C38.0946 25.1283 38.513 25.2467 39.0244 25.2467H43.575L33.7764 0ZM27.3146 15.5971L29.6442 8.72281C29.8146 8.27998 30.0006 7.76506 30.1969 7.16259C30.3983 6.56528 30.5894 5.91133 30.7754 5.20588C30.9717 5.90103 31.1731 6.54468 31.3746 7.14199C31.576 7.73416 31.7568 8.24908 31.9066 8.69192L34.2361 15.6022H27.3146V15.5971Z" fill="#473560"/>
<path d="M66.3541 25.2467H61.0338C60.0472 25.2467 59.3396 24.8811 58.9109 24.1396L54.7063 16.8123C54.5152 16.493 54.3034 16.2613 54.0503 16.1223C53.8024 15.9832 53.4511 15.9111 53.0018 15.9111H51.509V25.2519H45.6309V12.4612C45.8581 12.0338 46.2765 11.3489 46.5296 11.2665C46.9222 11.1224 51.0803 11.3592 51.4108 11.5755C51.7311 11.8124 49.2672 14.078 48.9057 14.1759C48.5493 14.2737 47.3457 14.1141 47.1495 14.1347C46.948 14.1759 46.2094 15.5971 46.3695 15.5971C46.5296 15.5971 49.3964 15.01 49.6753 14.8144C49.9697 14.6187 53.1877 12.2191 53.6526 11.802C54.1071 11.3747 54.4326 10.7671 54.04 10.3706C54.0038 10.3345 53.9522 10.2933 53.9109 10.2624C53.4925 9.98437 52.8106 9.95863 52.2941 9.78356C51.7104 9.59303 51.4108 9.25834 51.9325 7.93498C52.4594 6.60648 54.4325 5.90102 54.4325 5.90102C55.1247 7.16259 56.54 6.87423 56.54 6.87423C56.54 6.87423 57.0979 7.55393 57.7177 7.75475C58.3324 7.94013 58.4047 7.52304 58.5648 6.91028C58.6216 6.69916 58.4977 6.32327 58.2859 5.88043C57.8881 5.02566 57.1805 3.90827 56.8706 3.30581C56.416 2.39954 56.8706 1.0041 56.8706 1.0041C56.0235 1.20492 55.7704 2.14209 55.7704 2.14209C55.7704 2.08544 54.3964 1.87947 54.2828 1.87432C52.8365 1.725 51.2507 1.77648 49.8819 2.26566C48.7145 2.6982 46.2455 4.52103 46.0131 4.54678C45.8736 4.55708 45.729 4.51073 45.6309 4.46439V0H53.8695C55.698 0 57.258 0.19052 58.5545 0.561265C59.8458 0.942309 60.8995 1.46238 61.7156 2.13178C62.5266 2.80634 63.1258 3.59417 63.4977 4.51073C63.8644 5.417 64.0503 6.4108 64.0503 7.48699C64.0503 8.31087 63.9419 9.08326 63.7198 9.81445C63.5028 10.5405 63.1723 11.2099 62.7384 11.833C62.2993 12.4509 61.7725 13.007 61.1371 13.4859C60.507 13.975 59.7786 14.3715 58.9574 14.6805C59.3499 14.8762 59.7167 15.1233 60.0576 15.4117C60.3985 15.7 60.6981 16.0553 60.9563 16.4673L66.3541 25.2467Z" fill="#473560"/>
<path d="M74.6242 20.5712V0H68.7461V25.2519H84.0096V20.5712H74.6242Z" fill="#473560"/>
<path d="M100.565 0H94.5472L84.7383 25.2519H89.3302C89.8158 25.2519 90.229 25.118 90.5647 24.8605C90.9005 24.6031 91.1278 24.3096 91.2466 23.98L92.7393 19.5774H102.367L103.865 23.98C103.995 24.3559 104.217 24.6597 104.552 24.8914C104.883 25.1283 105.301 25.2467 105.813 25.2467H110.363L100.565 0ZM94.0926 15.5971L96.4274 8.72281C96.5978 8.27998 96.7838 7.76506 96.9801 7.16259C97.1763 6.56528 97.3675 5.91133 97.5586 5.20588C97.7549 5.90103 97.9511 6.54468 98.1577 7.14199C98.3592 7.73416 98.54 8.24908 98.6898 8.69192L101.019 15.6022H94.0926V15.5971Z" fill="#473560"/>
<path d="M129.345 0V13.3623C129.345 13.7691 129.355 14.2016 129.381 14.6547C129.401 15.1079 129.438 15.5816 129.484 16.0656L117.459 0.901117C117.294 0.705446 117.149 0.550964 117.02 0.437681C116.891 0.324397 116.762 0.231717 116.623 0.169926C116.483 0.108135 116.323 0.0669411 116.152 0.0411949C115.982 0.0154487 115.765 0 115.512 0H112.418V25.2519H117.599V11.7197C117.599 11.3438 117.588 10.9576 117.563 10.5302C117.542 10.1131 117.511 9.68057 117.475 9.23774L129.412 24.2838C129.701 24.6494 130.006 24.9017 130.316 25.0408C130.626 25.1849 131.008 25.2519 131.462 25.2519H134.52V0H129.345Z" fill="#473560"/>
<path d="M8.01324 35.385V38.7165H7.41406V30.4468H9.55251C10.5236 30.4468 11.2571 30.658 11.7529 31.0853C12.2488 31.5127 12.4967 32.1152 12.4967 32.903C12.4967 33.2635 12.4296 33.5982 12.2953 33.902C12.161 34.2058 11.9647 34.4684 11.7116 34.6898C11.4585 34.9112 11.1486 35.0812 10.787 35.2047C10.4254 35.3283 10.0122 35.3901 9.55767 35.3901H8.01324V35.385ZM8.01324 34.9061H9.55251C9.91925 34.9061 10.2498 34.8546 10.5391 34.7568C10.8283 34.6538 11.0711 34.5147 11.2726 34.3345C11.474 34.1543 11.629 33.9432 11.7374 33.7012C11.8459 33.4591 11.8976 33.1914 11.8976 32.903C11.8976 32.2697 11.7013 31.7805 11.3087 31.4355C10.9161 31.0905 10.3325 30.9206 9.55251 30.9206H8.01324V34.9061Z" fill="#473560"/>
<path d="M29.7119 38.7172H29.247C29.1902 38.7172 29.1489 38.7018 29.1127 38.676C29.0765 38.6451 29.0507 38.6091 29.0301 38.5627L28.0486 36.158H23.9732L23.0021 38.5627C22.9866 38.6039 22.9608 38.6451 22.9195 38.676C22.8782 38.7069 22.8317 38.7224 22.78 38.7224H22.3203L25.7139 30.4527H26.3131L29.7119 38.7172ZM24.1592 35.7152H27.8782L26.184 31.534C26.1581 31.4671 26.1272 31.395 26.1013 31.3074C26.0755 31.2251 26.0445 31.1375 26.0187 31.0397C25.9929 31.1324 25.9619 31.2199 25.936 31.3074C25.9102 31.3898 25.8792 31.4671 25.8534 31.5392L24.1592 35.7152Z" fill="#473560"/>
<path d="M42.7604 35.3084V38.7224H42.1561V35.3084L39.0879 30.4527H39.6096C39.6664 30.4527 39.7077 30.4681 39.7439 30.4887C39.7749 30.5145 39.811 30.5505 39.842 30.5968L42.2181 34.397C42.2749 34.4845 42.3214 34.5721 42.3575 34.6596C42.3989 34.742 42.4298 34.8295 42.4608 34.9119C42.4918 34.8244 42.528 34.742 42.5641 34.6596C42.6055 34.5772 42.652 34.4897 42.7036 34.397L45.0745 30.5968C45.1003 30.5557 45.1261 30.5196 45.1623 30.4939C45.1984 30.4681 45.2398 30.4527 45.2966 30.4527H45.8234L42.7604 35.3084Z" fill="#473560"/>
<path d="M61.3093 36.6627C61.3351 36.6009 61.3558 36.5391 61.3816 36.4773C61.4074 36.4155 61.4333 36.3589 61.4642 36.3074L64.7236 30.5608C64.7545 30.5093 64.7855 30.4784 64.8165 30.4681C64.8475 30.4578 64.8888 30.4527 64.9457 30.4527H65.3641V38.7224H64.8372V31.6731C64.8372 31.5701 64.8424 31.4671 64.8527 31.3538L61.5882 37.1364C61.5314 37.2394 61.4539 37.2857 61.3558 37.2857H61.2628C61.1647 37.2857 61.0872 37.2342 61.0252 37.1364L57.6729 31.3486C57.6832 31.4619 57.6936 31.5701 57.6936 31.6731V38.7224H57.1719V30.4527H57.5799C57.6367 30.4527 57.6781 30.4578 57.7142 30.4681C57.7504 30.4784 57.7814 30.5093 57.8124 30.5608L61.1595 36.3125C61.2163 36.4206 61.268 36.5391 61.3093 36.6627Z" fill="#473560"/>
<path d="M82.7659 30.4475V30.9418H78.3961V34.2837H82.0324V34.7677H78.3961V38.2177H82.7659V38.712H77.7969V30.4424H82.7659V30.4475Z" fill="#473560"/>
<path d="M95.111 30.4681C95.142 30.4836 95.173 30.5093 95.2092 30.5608L100.581 37.7285C100.571 37.6101 100.566 37.4968 100.566 37.3887V30.4527H101.092V38.7224H100.803C100.715 38.7224 100.643 38.6812 100.586 38.6039L95.1937 31.4259C95.204 31.5443 95.2092 31.6524 95.2092 31.7606V38.7224H94.6875V30.4527H94.9819C95.0387 30.4475 95.0801 30.4578 95.111 30.4681Z" fill="#473560"/>
<path d="M118.937 30.4475V30.9572H116.024V38.7172H115.425V30.9572H112.496V30.4475H118.937Z" fill="#473560"/>
<path d="M134.357 31.4568C134.321 31.5237 134.269 31.5546 134.207 31.5546C134.156 31.5546 134.089 31.5185 134.011 31.4465C133.928 31.3744 133.82 31.2971 133.686 31.2044C133.546 31.1169 133.376 31.0345 133.169 30.9624C132.962 30.8903 132.709 30.8491 132.41 30.8491C132.11 30.8491 131.842 30.8903 131.614 30.9779C131.387 31.0654 131.191 31.1787 131.036 31.328C130.881 31.4773 130.762 31.6473 130.685 31.8429C130.602 32.0386 130.566 32.2446 130.566 32.4557C130.566 32.7338 130.628 32.9706 130.747 33.1509C130.865 33.3362 131.025 33.4907 131.222 33.6194C131.418 33.7482 131.64 33.8563 131.888 33.9438C132.136 34.0314 132.394 34.1189 132.653 34.2064C132.916 34.294 133.169 34.3867 133.417 34.4897C133.665 34.5926 133.887 34.7214 134.083 34.8759C134.28 35.0303 134.435 35.226 134.559 35.4526C134.683 35.6791 134.739 35.9623 134.739 36.3022C134.739 36.6472 134.677 36.9767 134.559 37.2805C134.44 37.5843 134.264 37.8521 134.042 38.0787C133.815 38.3053 133.536 38.4855 133.21 38.6142C132.88 38.7429 132.508 38.8099 132.084 38.8099C131.537 38.8099 131.067 38.712 130.669 38.5215C130.277 38.3258 129.93 38.0632 129.631 37.7285L129.796 37.4711C129.843 37.4144 129.899 37.3835 129.961 37.3835C129.998 37.3835 130.044 37.4093 130.096 37.4556C130.153 37.502 130.215 37.5586 130.297 37.6255C130.375 37.6925 130.468 37.7697 130.581 37.847C130.695 37.9242 130.819 38.0014 130.964 38.0684C131.108 38.1353 131.273 38.192 131.465 38.2383C131.65 38.2847 131.867 38.3104 132.105 38.3104C132.436 38.3104 132.73 38.2589 132.988 38.1611C133.247 38.0632 133.464 37.9242 133.644 37.7543C133.825 37.5844 133.959 37.3784 134.052 37.1415C134.145 36.9047 134.192 36.6523 134.192 36.3846C134.192 36.0911 134.13 35.8542 134.011 35.6637C133.892 35.4732 133.732 35.3187 133.536 35.19C133.34 35.0612 133.117 34.9582 132.87 34.8707C132.622 34.7832 132.363 34.7008 132.105 34.6184C131.842 34.536 131.589 34.4433 131.341 34.3455C131.093 34.2425 130.871 34.1138 130.674 33.9593C130.478 33.7997 130.323 33.604 130.199 33.3671C130.08 33.1303 130.018 32.8367 130.018 32.4814C130.018 32.2034 130.07 31.9356 130.178 31.6782C130.282 31.4207 130.437 31.1941 130.643 30.9985C130.845 30.8028 131.098 30.6432 131.397 30.5247C131.697 30.4063 132.038 30.3445 132.42 30.3445C132.849 30.3445 133.236 30.4114 133.577 30.5505C133.918 30.6895 134.233 30.8955 134.512 31.1735L134.357 31.4568Z" fill="#473560"/>
</svg>
