<svg width="45" height="423" viewBox="0 0 45 423" fill="none" xmlns="http://www.w3.org/2000/svg">
<path d="M35 400.84L35 402.136L17.96 421.24L35 421.24L35 422.2L1.4 422.2L1.4 421.24L17.48 421.24L1.4 402.616L1.4 401.32L17.72 420.184L35 400.84ZM11 376.035L11 375.075L35 375.075L35 376.035L27.656 376.035C30.024 376.963 31.928 378.467 33.368 380.547C34.776 382.627 35.48 384.979 35.48 387.603C35.48 391.091 34.28 394.051 31.88 396.483C29.48 398.915 26.52 400.131 23 400.131C19.48 400.131 16.52 398.915 14.12 396.483C11.72 394.051 10.52 391.091 10.52 387.603C10.52 384.979 11.24 382.627 12.68 380.547C14.088 378.467 15.976 376.963 18.344 376.035L11 376.035ZM31.256 395.811C33.496 393.571 34.616 390.835 34.616 387.603C34.616 384.371 33.496 381.635 31.256 379.395C29.016 377.155 26.264 376.035 23 376.035C19.736 376.035 16.984 377.155 14.744 379.395C12.504 381.635 11.384 384.371 11.384 387.603C11.384 390.835 12.504 393.571 14.744 395.811C16.984 398.051 19.736 399.171 23 399.171C26.264 399.171 29.016 398.051 31.256 395.811ZM35 350.062L35 351.406L22.808 365.47L35 365.47L35 366.43L11 366.43L11 365.47L22.232 365.47L11 351.886L11 350.542L22.52 364.462L35 350.062ZM10.52 321.61C10.52 317.962 11.704 315.002 14.072 312.73C16.44 310.458 19.416 309.322 23 309.322C26.584 309.322 29.56 310.458 31.928 312.73C34.296 315.002 35.48 317.962 35.48 321.61C35.48 324.042 34.952 326.218 33.896 328.138C32.84 330.026 31.416 331.418 29.624 332.314L29.144 331.546C30.84 330.682 32.184 329.386 33.176 327.658C34.136 325.898 34.616 323.882 34.616 321.61C34.616 318.282 33.56 315.594 31.448 313.546C29.336 311.466 26.664 310.378 23.432 310.282L23.432 323.578L22.568 323.578L22.568 310.282C19.336 310.378 16.664 311.466 14.552 313.546C12.44 315.594 11.384 318.282 11.384 321.61C11.384 323.914 11.88 325.946 12.872 327.706C13.832 329.434 15.16 330.714 16.856 331.546L16.376 332.314C14.584 331.418 13.16 330.026 12.104 328.138C11.048 326.218 10.52 324.042 10.52 321.61ZM11 287.684L11.864 287.684L11.864 296.804L35 296.804L35 297.764L11.864 297.764L11.864 306.884L11 306.884L11 287.684ZM31.88 263.833C34.28 266.265 35.48 269.225 35.48 272.713C35.48 276.201 34.28 279.161 31.88 281.593C29.48 284.025 26.52 285.241 23 285.241C19.48 285.241 16.52 284.025 14.12 281.593C11.72 279.161 10.52 276.201 10.52 272.713C10.52 269.225 11.72 266.265 14.12 263.833C16.52 261.401 19.48 260.185 23 260.185C26.52 260.185 29.48 261.401 31.88 263.833ZM31.256 280.921C33.496 278.681 34.616 275.945 34.616 272.713C34.616 269.481 33.496 266.745 31.256 264.505C29.016 262.265 26.264 261.145 23 261.145C19.736 261.145 16.984 262.265 14.744 264.505C12.504 266.745 11.384 269.481 11.384 272.713C11.384 275.945 12.504 278.681 14.744 280.921C16.984 283.161 19.736 284.281 23 284.281C26.264 284.281 29.016 283.161 31.256 280.921ZM10.52 226.543C10.52 223.055 11.72 220.095 14.12 217.663C16.52 215.231 19.48 214.015 23 214.015C26.52 214.015 29.48 215.231 31.88 217.663C34.28 220.095 35.48 223.055 35.48 226.543C35.48 229.199 34.744 231.583 33.272 233.695C31.8 235.775 29.864 237.247 27.464 238.111L44.6 238.111L44.6 239.071L11 239.071L11 238.111L18.536 238.111C16.136 237.247 14.2 235.775 12.728 233.695C11.256 231.583 10.52 229.199 10.52 226.543ZM31.256 234.751C33.496 232.511 34.616 229.775 34.616 226.543C34.616 223.311 33.496 220.575 31.256 218.335C29.016 216.095 26.264 214.975 23 214.975C19.736 214.975 16.984 216.095 14.744 218.335C12.504 220.575 11.384 223.311 11.384 226.543C11.384 229.775 12.504 232.511 14.744 234.751C16.984 236.991 19.736 238.111 23 238.111C26.264 238.111 29.016 236.991 31.256 234.751ZM11 185.113L11 184.153L35 184.153L35 185.113L27.656 185.113C30.024 186.041 31.928 187.545 33.368 189.625C34.776 191.705 35.48 194.057 35.48 196.681C35.48 200.169 34.28 203.129 31.88 205.561C29.48 207.993 26.52 209.209 23 209.209C19.48 209.209 16.52 207.993 14.12 205.561C11.72 203.129 10.52 200.169 10.52 196.681C10.52 194.057 11.24 191.705 12.68 189.625C14.088 187.545 15.976 186.041 18.344 185.113L11 185.113ZM31.256 204.889C33.496 202.649 34.616 199.913 34.616 196.681C34.616 193.449 33.496 190.713 31.256 188.473C29.016 186.233 26.264 185.113 23 185.113C19.736 185.113 16.984 186.233 14.744 188.473C12.504 190.713 11.384 193.449 11.384 196.681C11.384 199.913 12.504 202.649 14.744 204.889C16.984 207.129 19.736 208.249 23 208.249C26.264 208.249 29.016 207.129 31.256 204.889ZM35.528 165.428C35.528 168.916 34.408 171.796 32.168 174.068C29.928 176.308 26.952 177.428 23.24 177.428C19.4 177.428 16.392 176.884 14.216 175.796C12.008 174.676 10.04 172.388 8.31199 168.932C7.86399 168.036 7.39999 166.98 6.91999 165.764C6.40799 164.548 5.99199 163.572 5.67199 162.836C5.35199 162.1 4.96799 161.348 4.51999 160.58C4.07199 159.812 3.57599 159.22 3.03199 158.804C2.45599 158.388 1.78399 158.1 1.01599 157.94L1.44799 157.172C2.43999 157.364 3.31999 157.86 4.08799 158.66C4.85599 159.428 5.43199 160.228 5.81599 161.06C6.19999 161.86 6.72799 163.06 7.39999 164.66C8.03999 166.26 8.58399 167.524 9.03199 168.452C10.344 171.108 11.832 173.044 13.496 174.26C15.16 175.444 17.448 176.148 20.36 176.372C18.024 175.22 16.248 173.636 15.032 171.62C13.816 169.604 13.208 167.444 13.208 165.14C13.208 161.972 14.264 159.316 16.376 157.172C18.488 154.996 21.176 153.908 24.44 153.908C27.672 153.908 30.328 154.996 32.408 157.172C34.488 159.316 35.528 162.068 35.528 165.428ZM34.664 165.428C34.664 162.324 33.72 159.796 31.832 157.844C29.912 155.86 27.448 154.868 24.44 154.868C21.464 154.868 19 155.844 17.048 157.796C15.064 159.748 14.072 162.196 14.072 165.14C14.072 167.892 14.936 170.308 16.664 172.388C18.392 174.468 20.584 175.828 23.24 176.468C26.6 176.468 29.352 175.444 31.496 173.396C33.608 171.348 34.664 168.692 34.664 165.428ZM31.88 128.176C34.28 130.608 35.48 133.568 35.48 137.056C35.48 140.544 34.28 143.504 31.88 145.936C29.48 148.368 26.52 149.584 23 149.584C19.48 149.584 16.52 148.368 14.12 145.936C11.72 143.504 10.52 140.544 10.52 137.056C10.52 133.568 11.72 130.608 14.12 128.176C16.52 125.744 19.48 124.528 23 124.528C26.52 124.528 29.48 125.744 31.88 128.176ZM31.256 145.264C33.496 143.024 34.616 140.288 34.616 137.056C34.616 133.824 33.496 131.088 31.256 128.848C29.016 126.608 26.264 125.488 23 125.488C19.736 125.488 16.984 126.608 14.744 128.848C12.504 131.088 11.384 133.824 11.384 137.056C11.384 140.288 12.504 143.024 14.744 145.264C16.984 147.504 19.736 148.624 23 148.624C26.264 148.624 29.016 147.504 31.256 145.264ZM11 102.902L11.864 102.902L11.864 112.022L35 112.022L35 112.982L11.864 112.982L11.864 122.102L11 122.102L11 102.902ZM11 76.3634L11 75.4034L35 75.4034L35 76.3634L27.656 76.3634C30.024 77.2914 31.928 78.7954 33.368 80.8754C34.776 82.9554 35.48 85.3074 35.48 87.9314C35.48 91.4194 34.28 94.3794 31.88 96.8114C29.48 99.2434 26.52 100.459 23 100.459C19.48 100.459 16.52 99.2434 14.12 96.8114C11.72 94.3794 10.52 91.4194 10.52 87.9314C10.52 85.3074 11.24 82.9554 12.68 80.8754C14.088 78.7954 15.976 77.2914 18.344 76.3634L11 76.3634ZM31.256 96.1394C33.496 93.8994 34.616 91.1634 34.616 87.9314C34.616 84.6994 33.496 81.9634 31.256 79.7234C29.016 77.4834 26.264 76.3634 23 76.3634C19.736 76.3634 16.984 77.4834 14.744 79.7234C12.504 81.9634 11.384 84.6994 11.384 87.9314C11.384 91.1634 12.504 93.8994 14.744 96.1394C16.984 98.3794 19.736 99.4994 23 99.4994C26.264 99.4994 29.016 98.3794 31.256 96.1394ZM10.52 56.5341C10.52 53.0461 11.768 50.2141 14.264 48.0381C16.728 45.8301 19.672 44.7261 23.096 44.7261L23.576 44.7261L23.576 67.7181C26.84 67.5901 29.496 66.4541 31.544 64.3101C33.592 62.1341 34.616 59.4781 34.616 56.3421C34.616 54.2301 34.168 52.3421 33.272 50.6781C32.376 48.9821 31.176 47.7341 29.672 46.9341L30.152 46.1181C31.784 47.0461 33.08 48.4221 34.04 50.2461C35 52.0381 35.48 54.0701 35.48 56.3421C35.48 59.8941 34.312 62.8381 31.976 65.1741C29.608 67.5101 26.616 68.6781 23 68.6781C19.448 68.6781 16.488 67.5421 14.12 65.2701C11.72 62.9661 10.52 60.0541 10.52 56.5341ZM22.712 67.7181L22.712 45.5901C19.352 45.7821 16.632 46.9181 14.552 48.9981C12.44 51.0461 11.384 53.5581 11.384 56.5341C11.384 59.6701 12.456 62.3101 14.6 64.4541C16.712 66.5661 19.416 67.6541 22.712 67.7181ZM11 23.1212L11.864 23.1212L11.864 32.2412L35 32.2412L35 33.2012L11.864 33.2012L11.864 42.3212L11 42.3212L11 23.1212ZM27.32 10.6206C25.784 10.6206 24.312 10.3006 22.904 9.66062C21.464 9.02062 20.216 8.23662 19.16 7.30862C18.072 6.38062 17.016 5.45262 15.992 4.52462C14.968 3.59662 13.864 2.81262 12.68 2.17262C11.496 1.53262 10.296 1.21262 9.07998 1.21262C6.87198 1.21262 5.11198 1.93262 3.79998 3.37262C2.45598 4.78062 1.78398 6.86062 1.78398 9.61262C1.78398 11.7246 2.31198 13.5966 3.36798 15.2286C4.39198 16.8286 5.70398 17.9006 7.30398 18.4446L6.87198 19.2606C5.11198 18.6206 3.68798 17.4046 2.59998 15.6126C1.47998 13.8206 0.91998 11.8206 0.91998 9.61262C0.91998 6.73262 1.65598 4.46062 3.12798 2.79662C4.56798 1.10062 6.55198 0.252623 9.07998 0.252623C10.36 0.252623 11.624 0.572623 12.872 1.21262C14.088 1.85262 15.208 2.63662 16.232 3.56462C17.256 4.49262 18.312 5.42062 19.4 6.34862C20.456 7.27662 21.672 8.06062 23.048 8.70062C24.424 9.34062 25.848 9.66062 27.32 9.66062L27.32 10.6206ZM35.144 9.32462C35.368 9.54862 35.48 9.82062 35.48 10.1406C35.48 10.4606 35.368 10.7486 35.144 11.0046C34.92 11.2286 34.632 11.3406 34.28 11.3406C33.928 11.3406 33.64 11.2286 33.416 11.0046C33.192 10.7486 33.08 10.4606 33.08 10.1406C33.08 9.82062 33.192 9.54862 33.416 9.32462C33.64 9.06862 33.928 8.94062 34.28 8.94062C34.632 8.94062 34.92 9.06862 35.144 9.32462Z" fill="#1C1526"/>
</svg>
